<svg width="129" height="160" viewBox="0 0 129 160" fill="none" xmlns="http://www.w3.org/2000/svg">
<path d="M60.3481 142.602C93.6775 142.602 120.696 115.583 120.696 82.2535C120.696 48.9241 93.6775 21.9053 60.3481 21.9053C27.0188 21.9053 0 48.9241 0 82.2535C0 115.583 27.0188 142.602 60.3481 142.602Z" fill="#FFEFC8"/>
<path d="M127.093 28.3693C127.083 29.5618 126.913 30.7477 126.59 31.8955C123.703 42.3694 114.968 40.7235 114.968 40.7235C114.962 40.7368 114.955 40.7498 114.948 40.7624C114.92 40.8135 114.867 40.9159 114.789 41.0694C114.445 41.7261 113.623 43.2993 112.469 45.5405C107.948 54.3177 98.3131 73.3677 92.0815 88.0633C91.4024 89.6647 90.6813 91.3946 89.9243 93.2191C87.5742 98.878 84.8775 105.467 81.9798 112.112C78.9602 119.021 75.7313 125.989 72.4476 132.039C70.3406 135.918 68.2141 139.419 66.1101 142.286C63.6622 145.618 61.245 148.087 58.9286 149.292C58.5154 149.512 58.0832 149.694 57.6373 149.837C57.5759 149.859 57.5114 149.879 57.45 149.896C57.45 149.896 59.3478 158.192 54.4151 158.788C52.2021 159.056 51.4467 157.108 51.1739 154.557C50.8356 151.424 51.2251 147.381 50.5449 145.395C49.31 141.797 42.6981 142.109 41.2339 130.328C41.2339 130.328 36.9921 124.893 35.7653 118.304C36.1236 120.45 37.5203 130.015 33.5969 130.015C29.176 130.015 31.6828 120.757 30.1428 113.382C28.6028 106.006 21.7959 87.6565 21.7959 87.6565C21.7959 87.6565 22.8467 98.5408 17.4923 98.3673C12.1379 98.1938 13.3928 89.959 14.8376 83.5345C16.2824 77.1099 14.6226 65.678 12.9179 57.2641C11.6327 50.9123 10.8108 41.7916 11.2243 36.3318C11.3446 34.7247 11.5764 33.434 11.9316 32.6264C11.968 32.5425 12.0069 32.4642 12.0463 32.3915C11.3795 32.1141 10.7292 31.7989 10.0984 31.4472C9.96993 31.3771 9.83584 31.3019 9.69612 31.2236C9.45865 31.0864 9.20992 30.9411 8.95556 30.7819C8.84654 30.7118 8.7319 30.6422 8.62033 30.5695C8.55584 30.5275 8.49187 30.4886 8.42994 30.4467C8.05019 30.1979 7.65867 29.9241 7.26766 29.6278C7.20061 29.5766 7.13613 29.5254 7.06908 29.4743C6.87358 29.3207 6.67808 29.1672 6.48257 28.9993C6.41553 28.943 6.35104 28.8872 6.28707 28.8314C6.15809 28.7226 6.02946 28.608 5.90117 28.4875C5.70823 28.3115 5.51835 28.1293 5.33411 27.9399C5.21076 27.8145 5.08793 27.684 4.96766 27.5571C4.58649 27.1429 4.2318 26.7052 3.90569 26.2464C3.81664 26.121 3.73014 25.9905 3.64621 25.8636C3.60424 25.7996 3.56228 25.7351 3.52287 25.6711C3.42051 25.5033 3.31815 25.3328 3.22398 25.1593C3.1728 25.0611 3.12162 24.9633 3.07044 24.8656C3.0341 24.7929 2.99521 24.7176 2.96143 24.6419C2.92765 24.5662 2.89439 24.5022 2.86368 24.4295C2.82427 24.3461 2.791 24.2622 2.75467 24.1782C0.519152 18.7568 2.08934 12.3747 6.96877 9.48259C11.8482 6.59044 26.3872 5.88314 31.8225 4.29607C37.2577 2.709 51.7824 -1.39354 67.4848 3.53862C83.1871 8.47077 89.1669 6.44458 96.7537 6.86527C100.138 7.05515 107.342 8.81316 113.88 12.1521C117.407 13.95 120.733 16.2076 123.172 18.9298C123.175 18.9298 123.175 18.9298 123.178 18.9298C125.587 21.6233 127.121 24.7714 127.093 28.3693Z" fill="#DF3E08"/>
<path opacity="0.2" d="M127.093 28.3693C126.28 30.1913 125.07 31.7983 123.444 32.9995C118.598 36.579 110.584 36.5457 108.027 40.9835C108.066 44.0906 108.105 47.2273 107.485 50.2746C106.865 53.3218 105.529 56.3137 103.215 58.387C101.219 60.1726 98.4922 61.3211 97.3213 63.7301C96.1032 66.2307 96.9722 69.344 95.8657 71.8978C94.8764 74.1809 92.5344 75.5418 91.0006 77.5009C89.107 79.9151 88.5389 83.1486 88.7119 86.2112C88.846 88.5808 89.3823 90.8977 89.9248 93.214C87.5747 98.8729 84.878 105.462 81.9802 112.107C80.2642 111.808 78.694 110.864 77.8859 109.327C78.6823 113.806 75.5608 118.629 70.6343 119.683C71.7157 123.721 72.8002 127.904 72.4481 132.032C72.3984 132.615 72.3181 133.196 72.2076 133.772C71.5284 137.31 69.2427 140.749 66.11 142.281H66.1075C65.0872 142.787 63.9702 143.068 62.832 143.105C62.0945 143.128 61.334 143.049 60.6313 143.27C58.4429 143.955 58.0723 146.998 58.8764 149.144C58.8927 149.191 58.9127 149.239 58.9321 149.287C58.8298 149.342 58.7274 149.393 58.622 149.443C58.3041 149.594 57.9763 149.724 57.6409 149.831C57.5795 149.854 57.5155 149.873 57.4536 149.89C57.4536 149.89 59.3513 158.187 54.4191 158.782C54.2884 158.798 54.1568 158.807 54.0251 158.807C53.9549 158.807 53.8879 158.804 53.8239 158.799C53.7733 158.796 53.7229 158.79 53.6729 158.782C53.6408 158.78 53.609 158.775 53.5778 158.768C53.5358 158.762 53.4969 158.754 53.4575 158.746C53.4493 158.743 53.4437 158.743 53.4355 158.74C53.3927 158.731 53.3506 158.719 53.3096 158.704C53.0376 158.622 52.7854 158.485 52.569 158.301C52.5357 158.273 52.505 158.246 52.4743 158.214C52.3181 158.066 52.1806 157.899 52.0649 157.717C52.0316 157.666 51.9978 157.611 51.9671 157.555C51.9364 157.499 51.9032 157.441 51.875 157.382C51.6682 156.952 51.5136 156.499 51.4144 156.032C51.3975 155.965 51.3837 155.898 51.3699 155.831C51.3561 155.764 51.3417 155.697 51.3305 155.63C51.2793 155.353 51.2383 155.067 51.202 154.775C51.1908 154.702 51.1826 154.627 51.1769 154.551C51.1575 154.355 51.138 154.157 51.1211 153.953C51.0904 153.551 51.07 153.134 51.051 152.713C51.0485 152.578 51.0428 152.441 51.0372 152.303C51.0346 152.228 51.0316 152.155 51.0316 152.079C51.0316 151.968 51.026 151.853 51.0234 151.739C51.0091 151.082 51.0039 150.42 50.9952 149.777C50.9896 149.5 50.9871 149.229 50.9784 148.964V148.932C50.9727 148.767 50.9671 148.602 50.962 148.441C50.9589 148.354 50.9563 148.267 50.9507 148.185C50.9451 148.102 50.942 148.014 50.9364 147.933C50.9169 147.601 50.8949 147.279 50.8612 146.977C50.8555 146.91 50.8473 146.841 50.8386 146.776C50.8274 146.695 50.8161 146.615 50.8054 146.536C50.7998 146.482 50.7912 146.428 50.7798 146.374C50.7302 146.042 50.6526 145.715 50.5479 145.396C49.313 141.797 42.7011 142.11 41.2369 130.328C41.2369 130.328 36.9951 124.894 35.7684 118.304C36.1266 120.45 37.5233 130.016 33.5999 130.016C29.179 130.016 31.6858 120.758 30.1458 113.382C28.6058 106.007 21.799 87.657 21.799 87.657C21.799 87.657 22.8497 98.5413 17.4953 98.3678C12.1409 98.1943 13.3958 89.9595 14.8406 83.535C16.2854 77.1104 14.6257 65.6785 12.9209 57.2646C11.7668 51.5499 10.9817 43.5916 11.1383 38.078C11.1439 37.9163 11.1496 37.754 11.1547 37.5974C11.1659 37.2904 11.1828 36.991 11.2023 36.7003C11.2112 36.5747 11.2195 36.4519 11.2274 36.3318C11.2386 36.1695 11.2529 36.0129 11.2668 35.8594C11.3057 35.4346 11.3533 35.0405 11.4121 34.6664C11.4234 34.5881 11.4341 34.5098 11.4485 34.434C11.4761 34.258 11.5099 34.085 11.5431 33.9223C11.5907 33.7073 11.6383 33.5062 11.6916 33.3188C11.711 33.2487 11.7305 33.1791 11.7555 33.1141C11.7724 33.0583 11.7893 33.0051 11.8067 32.955C11.8262 32.8961 11.8461 32.8403 11.8681 32.7845C11.8901 32.7287 11.9101 32.6781 11.9326 32.6279C11.9689 32.544 12.0078 32.4657 12.0473 32.393C11.3805 32.1157 10.7301 31.8004 10.0994 31.4487C9.97091 31.3786 9.83682 31.3034 9.6971 31.2251C9.45962 31.0879 9.21089 30.9426 8.95653 30.7834C8.84752 30.7138 8.73288 30.6437 8.62131 30.571C8.55682 30.5291 8.49285 30.4902 8.43092 30.4482C8.05117 30.1995 7.65965 29.9257 7.26864 29.6293C7.20159 29.5781 7.13711 29.527 7.07006 29.4758C6.87456 29.3223 6.67905 29.1687 6.48355 29.0008C6.4165 28.9451 6.35202 28.8888 6.28804 28.833C6.15907 28.7241 6.03044 28.6097 5.90215 28.4896C5.7092 28.3135 5.51933 28.1313 5.33508 27.9414C5.21174 27.816 5.08891 27.6855 4.96864 27.5586C4.58759 27.1445 4.23291 26.7069 3.90667 26.2484C3.81761 26.1225 3.73112 25.9925 3.64719 25.8656C3.60522 25.8011 3.56325 25.7366 3.52384 25.6727C3.42149 25.5048 3.31913 25.3344 3.22496 25.1609C3.17378 25.0631 3.1226 24.9654 3.07142 24.8671C3.03508 24.7944 2.99618 24.7192 2.96241 24.6439C2.92863 24.5687 2.89536 24.5042 2.86465 24.4316C2.82525 24.3476 2.79198 24.2637 2.75564 24.1798C0.520129 18.7588 2.09031 12.3763 6.96975 9.48411C11.8492 6.59197 26.3882 5.88467 31.8235 4.2976C37.2587 2.71053 51.7834 -1.39201 67.4857 3.54014C83.1881 8.4723 89.1679 6.44662 96.7547 6.8668C97.1764 6.88932 97.6601 6.93948 98.1939 7.01215C98.3279 7.02921 98.4644 7.04883 98.6033 7.07101C99.0869 7.14368 99.6064 7.2358 100.157 7.34737C100.28 7.36989 100.406 7.39856 100.532 7.42312C100.907 7.50092 101.295 7.58843 101.697 7.68567C101.831 7.71638 101.965 7.74965 102.102 7.78342C102.373 7.85047 102.65 7.92007 102.932 7.99582C103.074 8.03215 103.214 8.07105 103.357 8.11046C104.013 8.28925 104.69 8.48851 105.386 8.70824C105.55 8.75941 105.715 8.81059 105.883 8.8674C106.031 8.915 106.182 8.9626 106.333 9.01582C107.381 9.36231 108.456 9.75332 109.541 10.1894C109.746 10.2733 109.954 10.3572 110.161 10.4453C110.368 10.5333 110.578 10.6157 110.784 10.7078C110.991 10.7999 111.198 10.8869 111.407 10.9791C111.824 11.1607 112.24 11.3532 112.657 11.5518C112.861 11.6495 113.062 11.7473 113.266 11.8481C113.469 11.9489 113.675 12.0528 113.88 12.1552C114.101 12.2672 114.319 12.3819 114.54 12.4991C115.194 12.8456 115.842 13.2089 116.476 13.5918C116.689 13.7177 116.898 13.8461 117.105 13.9771C117.314 14.1061 117.521 14.2402 117.725 14.3743C117.94 14.514 118.155 14.6563 118.368 14.8016C118.552 14.9275 118.731 15.0575 118.91 15.1819C119.125 15.3354 119.338 15.4919 119.547 15.6512C119.717 15.7771 119.885 15.9071 120.053 16.0397C120.079 16.0577 120.103 16.0774 120.126 16.0985C120.481 16.378 120.825 16.6639 121.16 16.9563C121.179 16.9732 121.196 16.987 121.211 17.0039C121.379 17.1492 121.543 17.2971 121.703 17.4481C121.731 17.4732 121.759 17.4993 121.784 17.5234C121.929 17.6575 122.075 17.7972 122.214 17.9369C122.345 18.0628 122.474 18.1928 122.597 18.3228C122.678 18.4036 122.759 18.4876 122.835 18.5715C122.949 18.6918 123.061 18.8116 123.17 18.9349C123.173 18.9349 123.173 18.9349 123.176 18.9349C123.251 19.0188 123.323 19.1028 123.396 19.1867C123.541 19.3539 123.684 19.5245 123.824 19.6985C124.393 20.3975 124.903 21.1423 125.35 21.9253C125.442 22.085 125.531 22.2441 125.615 22.4059C126.314 23.7268 126.776 25.1595 126.982 26.6394C127.06 27.2127 127.097 27.7908 127.093 28.3693Z" fill="#000215"/>
<path d="M103.807 40.3683C104.385 44.4115 105.347 49.6932 101.839 50.9112C98.332 52.1293 97.0443 48.8211 97.0443 48.8211C97.0443 48.8211 97.2372 55.7236 93.6798 63.3018C90.1223 70.8799 85.9727 74.681 85.3048 82.8267C84.6369 90.9724 88.5158 102.256 82.3625 104.145C76.2092 106.034 76.919 96.9163 76.919 96.9163C76.919 96.9163 75.0689 102.402 74.6671 106.305C74.2654 110.209 74.9773 113.467 72.7587 114.482C70.54 115.497 68.891 112.651 68.7877 109.825C68.7877 109.825 67.1474 115.746 68.02 122.766C68.8926 129.786 68.9642 135.917 65.418 137.976C62.7214 139.546 61.1901 136.626 59.0861 137.004C55.5788 137.638 56.2999 145.331 57.3143 149.651C57.4258 150.12 57.5743 150.746 57.6997 151.456C58.2002 154.256 58.3481 158.311 54.4134 158.786C54.2829 158.802 54.1514 158.811 54.0199 158.811C53.9497 158.811 53.8827 158.809 53.8187 158.803C53.7681 158.8 53.7177 158.795 53.6677 158.786C53.6356 158.784 53.6038 158.779 53.5726 158.772C53.5306 158.767 53.4917 158.758 53.4523 158.75C53.4441 158.747 53.4354 158.747 53.4303 158.744C53.3875 158.735 53.3454 158.723 53.3044 158.708C53.0323 158.626 52.7802 158.489 52.5638 158.305C52.5306 158.278 52.4989 158.249 52.4686 158.218C52.3124 158.07 52.1749 157.903 52.0592 157.721C52.0259 157.67 51.9921 157.615 51.9614 157.559C51.9277 157.503 51.897 157.445 51.8693 157.386C51.6625 156.956 51.5078 156.503 51.4087 156.036C51.3918 155.969 51.378 155.902 51.3642 155.835C51.3503 155.768 51.3386 155.701 51.3248 155.634C51.2736 155.36 51.2296 155.075 51.1963 154.779C51.1881 154.703 51.1794 154.631 51.1712 154.555C50.8329 151.423 51.2224 147.379 50.5422 145.394C49.3073 141.795 42.6954 142.108 41.2312 130.326C41.2312 130.326 37.1824 125.137 35.8522 118.755C35.8215 118.604 35.7908 118.453 35.7627 118.302C35.7877 118.459 35.8215 118.657 35.8548 118.886C36.0784 120.348 36.4249 123.145 36.2514 125.57C36.0841 127.976 35.4049 130.014 33.5942 130.014C32.3505 130.014 31.655 129.281 31.2635 128.066C30.2629 124.955 31.2466 118.682 30.1375 113.377C28.8524 107.204 23.8727 93.3466 22.2825 88.9902C21.9724 88.1406 21.7907 87.6519 21.7907 87.6519C21.7907 87.6519 22.8414 98.5362 17.487 98.3627C15.2095 98.2874 14.1281 96.7562 13.7509 94.5242C13.2391 91.5118 14.0068 87.2225 14.8349 83.5309C16.2828 77.1094 14.62 65.6744 12.9152 57.2606C11.2529 49.0365 10.3613 36.168 11.929 32.6223C11.9653 32.5384 12.0042 32.4601 12.0436 32.3874C11.3771 32.1094 10.7268 31.7942 10.0957 31.4431C17.4532 24.0431 44.8854 2.92293 99.9446 28.6789C101.448 29.3832 102.972 30.1219 104.516 30.895C104.516 30.895 103.23 36.3246 103.807 40.3683Z" fill="#FFD91F"/>
<path opacity="0.2" d="M126.59 31.8955C123.703 42.3694 114.968 40.7235 114.968 40.7235C114.962 40.7368 114.956 40.7498 114.948 40.7624C114.921 40.8135 114.867 40.9159 114.789 41.0694C114.446 41.7261 113.624 43.2993 112.47 45.5405C110.058 45.2697 107.594 44.6295 105.271 43.7548C104.917 43.6207 104.564 43.481 104.212 43.3387C104.59 46.6582 104.528 49.9808 101.84 50.9133C98.3328 52.1293 97.0446 48.8231 97.0446 48.8231C97.0446 48.8231 97.2376 55.7257 93.6801 63.3038C90.1226 70.8819 85.973 74.683 85.3051 82.8287C84.6372 90.9744 88.5161 102.258 82.3628 104.147C76.2095 106.036 76.9189 96.9138 76.9189 96.9138C76.9189 96.9138 75.0693 102.399 74.667 106.303C74.2647 110.206 74.9771 113.465 72.7585 114.48C70.5399 115.494 68.8909 112.649 68.7875 109.822C68.7875 109.822 67.1472 115.744 68.0198 122.763C68.8924 129.783 68.9646 135.914 65.4184 137.973C62.7217 139.544 61.1904 136.624 59.0865 137.001C55.5791 137.635 56.3003 145.328 57.3146 149.648C57.4262 150.118 57.5746 150.744 57.7 151.454C57.9769 153.888 57.9825 158.353 54.4138 158.783C54.2832 158.8 54.1518 158.808 54.0202 158.809C53.9501 158.809 53.8831 158.806 53.8186 158.8C53.7681 158.798 53.7179 158.792 53.6681 158.783C53.636 158.782 53.6041 158.777 53.5729 158.769C53.5309 158.764 53.4915 158.755 53.4526 158.747C53.4445 158.744 53.4358 158.744 53.4301 158.741C53.3875 158.732 53.3456 158.72 53.3047 158.705C53.0327 158.624 52.7805 158.487 52.5642 158.303C52.531 158.275 52.4992 158.246 52.469 158.216C52.3128 158.067 52.1753 157.9 52.0595 157.718C52.0258 157.667 51.9925 157.612 51.9618 157.557C51.9281 157.501 51.8973 157.443 51.8697 157.383C51.6626 156.953 51.508 156.5 51.4091 156.034C51.3922 155.967 51.3783 155.9 51.364 155.832C51.3497 155.765 51.3389 155.698 51.3251 155.631C51.2606 155.285 51.2135 154.927 51.1716 154.557V154.553C52.3896 154.144 53.4347 153.388 54.0499 152.394C55.2624 150.435 55.1984 147.948 54.8212 145.673C54.444 143.398 53.7976 141.129 53.9829 138.83C54.1681 136.53 55.4497 134.118 57.6627 133.473C59.5829 132.91 62.0779 133.643 63.3385 132.091C63.8692 131.44 63.9894 130.555 64.0903 129.721C64.903 122.958 65.4721 114.785 66.9599 107.369C67.0103 107.12 67.1219 106.887 67.2847 106.692C67.4474 106.497 67.6562 106.345 67.8922 106.251C68.1282 106.156 68.384 106.122 68.6364 106.152C68.8888 106.181 69.13 106.273 69.3382 106.418C73.3302 109.199 73.3732 103.886 73.823 100.628C74.2197 97.7557 75.3794 95.0498 76.1481 92.2508C76.5729 90.7026 76.8692 89.068 76.8467 87.4666C77.3831 90.0907 77.9186 92.7147 78.4532 95.3385C78.5791 95.9526 78.7383 96.621 79.2445 96.9931C80.502 97.9143 81.9913 96.1179 82.391 94.6092C84.2995 87.3801 82.391 79.5502 84.3414 72.3318C86.8789 62.9455 95.5579 55.9677 97.3128 46.4054C97.7601 47.0595 98.8528 46.9336 99.3979 46.3465C99.9429 45.7595 100.068 44.9074 100.133 44.1085C100.133 44.0941 100.133 44.0803 100.133 44.0634C100.253 42.5321 99.423 41.0873 98.0734 40.3498C95.6224 39.0141 93.2164 37.5862 90.7603 36.2642C85.8394 33.6182 80.6166 31.3658 75.0836 30.5915C68.0638 29.6109 60.9688 31.0521 53.9102 31.6929C46.8515 32.3336 39.2673 32.045 33.3796 28.0991C30.2577 32.1622 26.0215 34.8588 21.3888 36.0518C18.0623 36.9022 14.5874 36.9958 11.22 36.3256C11.3397 34.7191 11.5721 33.4278 11.9268 32.6202C11.9631 32.5363 12.002 32.4585 12.0414 32.3858C11.3746 32.1084 10.7242 31.793 10.0935 31.4411C9.96504 31.3715 9.83096 31.2957 9.69124 31.2174C9.45377 31.0808 9.20503 30.9354 8.95067 30.7762C8.84166 30.7061 8.72702 30.6365 8.61545 30.5638C8.55096 30.5219 8.48699 30.4825 8.42557 30.4405C8.04531 30.1923 7.6543 29.918 7.26278 29.6216C7.19573 29.5705 7.13176 29.5193 7.06471 29.4681C6.8687 29.3176 6.67319 29.161 6.47769 28.9932C6.41064 28.9374 6.34615 28.8816 6.28218 28.8258C6.15355 28.717 6.02492 28.6023 5.89629 28.4819C5.70385 28.3058 5.51347 28.1236 5.32922 27.9342C5.20639 27.8083 5.08305 27.6784 4.96329 27.5514C4.58209 27.1373 4.2274 26.6995 3.90132 26.2407C3.81176 26.1148 3.72526 25.9848 3.64133 25.8579C3.59936 25.7939 3.55739 25.7294 3.5185 25.665C3.41614 25.4976 3.31378 25.3272 3.2191 25.1532C3.16792 25.0554 3.11674 24.9577 3.06556 24.8599C3.02922 24.7872 2.99033 24.7115 2.95655 24.6363C2.92277 24.561 2.8895 24.4965 2.8588 24.4239C2.8199 24.3399 2.78612 24.256 2.74978 24.1726C0.51427 18.7511 2.08445 12.3686 6.96389 9.47642C11.8433 6.58428 26.3824 5.87749 31.8176 4.28991C37.2528 2.70233 51.7775 -1.39919 67.4799 3.53297C83.1822 8.46512 89.162 6.43893 96.7488 6.85962C101.957 7.14981 116.215 11.1587 123.167 18.9257C123.17 18.9257 123.17 18.9257 123.173 18.9287C126.344 22.4683 128.001 26.7904 126.59 31.8955Z" fill="#000215"/>
<path d="M54.0219 160C53.9236 160 53.8289 159.996 53.7378 159.989C53.6646 159.984 53.5909 159.976 53.5193 159.966C53.4758 159.961 53.4169 159.954 53.3535 159.941C53.3023 159.932 53.2511 159.922 53.1999 159.911L53.1636 159.903C53.0866 159.885 53.0106 159.864 52.9359 159.838C52.5177 159.709 52.1301 159.496 51.7961 159.213C51.7449 159.173 51.6937 159.124 51.6426 159.072C51.4216 158.859 51.2268 158.621 51.0622 158.363C51.0161 158.291 50.9741 158.223 50.9347 158.152C50.8877 158.073 50.8447 157.991 50.8047 157.908C50.5574 157.396 50.3718 156.856 50.252 156.299C50.2377 156.241 50.2198 156.159 50.2008 156.076C50.1819 155.993 50.1686 155.923 50.1553 155.844C50.1005 155.558 50.0529 155.26 50.0181 154.934C50.0053 154.845 49.9946 154.752 49.9874 154.659C49.9675 154.461 49.948 154.26 49.9311 154.053C49.8978 153.654 49.8733 153.217 49.8579 152.755C49.8549 152.619 49.8497 152.496 49.8451 152.37C49.8451 152.37 49.8451 152.333 49.8451 152.332C49.8421 152.253 49.8395 152.178 49.839 152.097L49.8313 151.769C49.8206 151.276 49.8149 150.784 49.8093 150.299L49.798 149.529C49.795 149.351 49.7919 149.176 49.7868 149.003C49.7868 148.99 49.7868 148.978 49.7868 148.965V148.952L49.7658 148.373C49.7658 148.327 49.7612 148.28 49.7597 148.233L49.7479 148.011C49.731 147.725 49.7095 147.402 49.6768 147.108L49.6737 147.076C49.6696 147.025 49.6634 146.976 49.6573 146.929L49.6256 146.704C49.6228 146.686 49.6208 146.669 49.6194 146.652C49.6183 146.642 49.6166 146.631 49.6143 146.62C49.6102 146.601 49.6066 146.582 49.6036 146.563C49.5648 146.298 49.5037 146.037 49.4209 145.782C49.1271 144.925 48.3154 144.309 47.192 143.457C44.6509 141.529 41.183 138.898 40.0955 130.792C39.0784 129.388 38.1707 127.908 37.3804 126.364C37.2002 127.858 36.8031 129.179 36.0641 130.053C35.4269 130.806 34.5742 131.204 33.5982 131.204C32.3116 131.204 30.6396 130.626 29.9783 127.866C29.5868 126.233 29.573 124.145 29.5571 121.728C29.5402 119.145 29.5208 116.217 28.9793 113.623C28.012 108.979 24.8737 99.7844 22.7462 93.7837C22.4391 95.4388 21.8654 97.0658 20.8346 98.1646C19.9416 99.1165 18.7726 99.5976 17.4568 99.5541C15.926 99.503 14.6645 98.8919 13.8077 97.7844C11.4924 94.7904 12.4438 88.7681 13.6798 83.2714C15.1906 76.5705 13.1219 64.2476 11.7549 57.4985C10.5374 51.4701 9.79474 43.4698 9.94879 38.0417L9.96568 37.5534C9.97745 37.2315 9.99485 36.9203 10.0169 36.6179L10.0419 36.2463C10.0537 36.0764 10.0685 35.9111 10.0834 35.7488C10.1259 35.2831 10.1765 34.8681 10.2369 34.4786C10.2482 34.3987 10.261 34.3138 10.2758 34.2309C10.306 34.041 10.3424 33.8547 10.3782 33.6797C10.4248 33.4545 10.4805 33.2303 10.5409 33.0143C10.2477 32.871 9.90529 32.696 9.52861 32.4892C9.41806 32.4294 9.2983 32.3623 9.17393 32.2927L9.11763 32.261C8.85508 32.1074 8.59407 31.957 8.32691 31.7896L8.17645 31.6949C8.1094 31.653 8.04184 31.6105 7.97531 31.567L7.90929 31.5245C7.85811 31.4933 7.81102 31.4621 7.76343 31.4293C7.35399 31.1606 6.93739 30.8663 6.54792 30.57L6.35804 30.4252C6.10471 30.2297 5.90306 30.0669 5.71062 29.9016C5.6533 29.854 5.58575 29.7952 5.51768 29.7363C5.37745 29.6171 5.23466 29.4901 5.09187 29.3571C4.90302 29.1841 4.69676 28.985 4.48897 28.7741C4.35693 28.6394 4.22779 28.5044 4.10155 28.3693C3.68403 27.9166 3.29549 27.4379 2.93824 26.9363C2.84049 26.7986 2.74478 26.6568 2.65266 26.5156C2.59739 26.4311 2.5503 26.362 2.50987 26.2914C2.39881 26.1118 2.28826 25.924 2.18386 25.7331C2.12398 25.623 2.06973 25.5176 2.01548 25.4122L1.98631 25.3548C1.95202 25.2863 1.9167 25.2156 1.88395 25.1455C1.84556 25.0652 1.81076 24.992 1.77801 24.9152C1.74935 24.8528 1.72273 24.7908 1.69663 24.7279L1.6649 24.6537C-0.872062 18.5019 1.15311 11.5487 6.36419 8.46105C9.60077 6.54336 16.4977 5.57044 22.5788 4.71216C26.145 4.20855 29.5131 3.7331 31.4907 3.1558C36.4515 1.70486 51.5489 -2.71192 67.8429 2.40551C79.329 6.0157 85.5361 5.83452 91.0123 5.68098C92.974 5.62469 94.8261 5.57197 96.8216 5.68098C97.2597 5.70401 97.7623 5.75468 98.3544 5.83452C98.4901 5.85192 98.64 5.87291 98.7931 5.89747C99.2905 5.97219 99.833 6.06892 100.395 6.18305C100.459 6.19431 100.549 6.21274 100.638 6.23167L100.767 6.25778C101.195 6.34734 101.589 6.43588 101.979 6.53107C102.082 6.5541 102.199 6.58225 102.317 6.61245L102.387 6.62934C102.667 6.69894 102.95 6.77059 103.241 6.84787C103.352 6.87602 103.473 6.90929 103.596 6.94358L103.673 6.96456C104.362 7.15188 105.06 7.35813 105.747 7.57616C105.909 7.62734 106.083 7.68107 106.259 7.74044L106.302 7.75426C106.443 7.7993 106.586 7.84485 106.728 7.89552C107.808 8.25377 108.911 8.65553 109.984 9.08697L110.027 9.10437C110.225 9.18472 110.423 9.26507 110.621 9.34799C110.819 9.4309 111.042 9.52046 111.257 9.61616C111.43 9.68833 111.602 9.76459 111.776 9.84136L111.886 9.89253C112.269 10.0594 112.689 10.2508 113.166 10.4801C113.377 10.5824 113.582 10.6812 113.79 10.7836C113.998 10.8859 114.207 10.9908 114.417 11.0973C114.643 11.2119 114.868 11.3302 115.096 11.4515C115.8 11.824 116.471 12.2028 117.089 12.5774C117.304 12.7043 117.524 12.8394 117.741 12.9771C117.945 13.1025 118.162 13.2432 118.377 13.3865C118.591 13.5298 118.817 13.6757 119.038 13.8267C119.174 13.9193 119.31 14.015 119.444 14.1102L119.593 14.2157C119.824 14.381 120.046 14.5442 120.265 14.7111C120.423 14.8272 120.592 14.9588 120.761 15.0913C120.812 15.1287 120.854 15.1635 120.885 15.1901C121.247 15.4762 121.602 15.7715 121.941 16.0673C121.966 16.0883 121.989 16.1088 122.012 16.1303C122.181 16.2777 122.348 16.4276 122.509 16.5801C122.542 16.6093 122.574 16.6395 122.605 16.6687C122.754 16.8069 122.903 16.9502 123.046 17.094C123.185 17.227 123.321 17.3632 123.452 17.5034C123.539 17.5909 123.625 17.6805 123.708 17.7706C123.811 17.8796 123.913 17.9891 124.015 18.1007L124.038 18.1237C124.046 18.1319 124.054 18.1406 124.062 18.1498C124.142 18.2389 124.219 18.3274 124.296 18.4159C124.45 18.5966 124.603 18.7778 124.752 18.962C125.363 19.7118 125.91 20.5105 126.39 21.3501C126.483 21.5108 126.576 21.6817 126.669 21.8557C127.451 23.3578 127.953 24.9142 128.165 26.4915C128.253 27.1224 128.293 27.759 128.285 28.3959C128.273 29.6914 128.089 30.9795 127.739 32.2267C125.167 41.5587 118.162 42.1094 115.656 41.9932C113.466 46.1818 100.817 70.5221 93.1792 88.5383C92.453 90.2507 91.6827 92.1014 91.0256 93.6859C90.6045 94.6996 90.1727 95.7411 89.7302 96.8104C87.723 101.636 85.4537 107.119 83.0708 112.585C79.523 120.712 76.398 127.245 73.5186 132.555C73.511 132.572 73.5023 132.588 73.4936 132.606C71.232 136.769 69.0706 140.263 67.0695 142.99C67.0547 143.009 67.0399 143.028 67.024 143.047C64.3156 146.727 61.8467 149.115 59.4776 150.347C59.3752 150.401 59.2575 150.46 59.1393 150.518C59.0211 150.575 58.9151 150.62 58.8031 150.671C59.0697 152.419 59.3343 155.874 57.7866 158.075C57.0297 159.149 55.9135 159.806 54.5582 159.968C54.3802 159.99 54.2011 160 54.0219 160ZM53.8765 157.62H53.8827H53.8765ZM53.8023 157.603C53.8274 157.603 53.8535 157.61 53.8724 157.612L53.9236 157.617C54.0404 157.624 54.1576 157.62 54.2737 157.604C54.9702 157.52 55.4677 157.234 55.8408 156.705C57.042 155 56.5742 151.4 56.2927 150.157C56.2247 149.858 56.2749 149.544 56.4327 149.281C56.5905 149.018 56.8438 148.826 57.1397 148.745C57.1709 148.736 57.2037 148.727 57.2349 148.716C57.2492 148.71 57.2636 148.706 57.2779 148.701C57.5625 148.61 57.8407 148.5 58.1106 148.371C58.1884 148.333 58.2769 148.291 58.3665 148.243C60.4055 147.183 62.6824 144.944 65.1524 141.58C65.1662 141.561 65.181 141.542 65.1964 141.523C67.1151 138.901 69.1955 135.535 71.3814 131.515C71.3891 131.499 71.3973 131.482 71.406 131.466C74.2597 126.208 77.3627 119.721 80.8931 111.633C83.2673 106.19 85.5335 100.716 87.5336 95.8871C87.9772 94.8178 88.4091 93.7755 88.8295 92.7601C89.4887 91.1735 90.2625 89.3162 90.9903 87.5961C98.9328 68.8644 112.247 43.3608 113.739 40.5147L113.785 40.4261C113.824 40.3517 113.855 40.2919 113.879 40.2465C114.069 39.6932 114.611 39.444 115.192 39.554C115.499 39.6093 122.899 40.8248 125.447 31.5798C125.742 30.5327 125.897 29.451 125.907 28.3632C125.907 28.3594 125.907 28.3556 125.907 28.3519C125.914 27.8331 125.881 27.3145 125.809 26.8007C125.621 25.4556 125.201 24.1536 124.566 22.953C124.491 22.8138 124.412 22.6659 124.326 22.5185C123.91 21.7887 123.434 21.0945 122.904 20.4426C122.772 20.2799 122.639 20.12 122.503 19.9631C122.449 19.9001 122.394 19.8377 122.34 19.7758C122.321 19.7574 122.303 19.7384 122.285 19.7185C122.186 19.6064 122.084 19.4968 121.978 19.3873L121.955 19.3622C121.893 19.2937 121.827 19.2246 121.76 19.1575C121.751 19.1488 121.742 19.1396 121.734 19.1304C121.626 19.0147 121.512 18.9016 121.396 18.7911L121.378 18.7727C121.25 18.6442 121.115 18.5168 120.982 18.3924C120.97 18.3817 120.959 18.3704 120.948 18.3591L120.913 18.3279L120.889 18.3059C120.743 18.1672 120.591 18.0311 120.437 17.8965C120.423 17.8847 120.409 17.8724 120.396 17.8596L120.379 17.8453C120.064 17.5694 119.732 17.2941 119.393 17.0264C119.377 17.0141 119.361 17.0013 119.347 16.988L119.323 16.9696C119.155 16.8386 119.001 16.7178 118.845 16.6021C118.63 16.4394 118.427 16.29 118.222 16.1415L118.074 16.0392C117.951 15.9522 117.828 15.8647 117.701 15.7782C117.496 15.6369 117.289 15.4992 117.08 15.3651C116.881 15.2346 116.685 15.1092 116.486 14.9849C116.274 14.8503 116.076 14.729 115.872 14.6087C115.283 14.2535 114.65 13.8968 113.984 13.5437C113.769 13.429 113.558 13.3185 113.345 13.2105C113.145 13.1081 112.947 13.0088 112.747 12.9111C112.546 12.8133 112.343 12.7135 112.143 12.6178C111.691 12.4024 111.294 12.2202 110.933 12.0625L110.817 12.0114C110.652 11.9387 110.49 11.8665 110.326 11.7979L110.301 11.7872C110.107 11.7007 109.91 11.6193 109.715 11.5405C109.511 11.4555 109.323 11.3788 109.134 11.302L109.094 11.2861C108.071 10.8767 107.016 10.4888 105.961 10.1397C105.818 10.0885 105.698 10.0512 105.579 10.0133L105.521 9.99489C105.35 9.93808 105.195 9.88793 105.04 9.84136C104.371 9.62913 103.706 9.43311 103.044 9.2533L102.963 9.23078C102.855 9.2011 102.747 9.17142 102.638 9.14327C102.351 9.0665 102.081 8.99843 101.819 8.93343L101.749 8.91603C101.643 8.88993 101.539 8.86485 101.434 8.84028C101.053 8.74765 100.684 8.66423 100.291 8.58439L100.155 8.55624C100.085 8.54191 100.016 8.52707 99.9472 8.51478C99.4 8.40424 98.898 8.31467 98.4297 8.24405C98.292 8.22204 98.1682 8.20464 98.0469 8.18928C97.5156 8.11695 97.0644 8.07106 96.6932 8.05161C94.7954 7.94618 92.9919 8.00043 91.0819 8.05161C85.4178 8.21436 78.9984 8.39912 67.1299 4.66917C51.5243 -0.231766 36.9479 4.03148 32.1581 5.43328C30.0142 6.05971 26.5636 6.54694 22.91 7.06334C17.0474 7.88988 10.4027 8.82749 7.57611 10.5026C3.37429 12.992 1.77493 18.6749 3.85589 23.7212L3.88813 23.7969C3.90604 23.8394 3.92344 23.8814 3.94289 23.9233C3.94903 23.9361 3.95466 23.9495 3.96029 23.9622C3.98281 24.0134 4.00738 24.0646 4.03143 24.1158C4.03604 24.125 4.04474 24.1439 4.04883 24.1537C4.06828 24.1961 4.08977 24.2381 4.11076 24.2801L4.13635 24.3313C4.17576 24.4075 4.22233 24.4976 4.27095 24.5871C4.35386 24.7407 4.44445 24.8912 4.53708 25.0416C4.57086 25.0969 4.60362 25.147 4.63586 25.1952C4.71877 25.3226 4.79656 25.4383 4.87743 25.5534C5.17488 25.9713 5.49811 26.3703 5.84523 26.7479C5.95219 26.8621 6.06888 26.9844 6.18557 27.1062C6.36112 27.2843 6.53666 27.4537 6.70453 27.6072C6.82889 27.7234 6.94354 27.8253 7.05767 27.9225C7.13136 27.9865 7.18715 28.0346 7.24498 28.0827C7.41848 28.2316 7.58993 28.3703 7.79721 28.5305L7.98299 28.6713C8.3351 28.9405 8.70172 29.1998 9.08283 29.4492C9.12838 29.4799 9.15653 29.5004 9.18519 29.5157L9.2722 29.5715C9.32338 29.6063 9.38274 29.6421 9.43904 29.6774L9.59974 29.7798C9.82954 29.9236 10.066 30.0618 10.2917 30.1892L10.3357 30.2138C10.4503 30.2778 10.5609 30.3402 10.6673 30.398C11.2561 30.7261 11.8626 31.021 12.4842 31.2814C12.6404 31.3433 12.7818 31.4375 12.899 31.5579C13.0162 31.6783 13.1067 31.8221 13.1643 31.98C13.222 32.1378 13.2456 32.306 13.2336 32.4736C13.2216 32.6412 13.1743 32.8044 13.0948 32.9524C13.0707 32.9969 13.0467 33.0445 13.0242 33.0962C13.0083 33.1326 12.996 33.1607 12.9853 33.1894C12.9817 33.2001 12.9771 33.2109 12.973 33.2216C12.9597 33.2554 12.9479 33.2892 12.9361 33.324C12.93 33.3434 12.9228 33.3629 12.9151 33.3818C12.9075 33.4007 12.9008 33.4263 12.8936 33.4499C12.8865 33.4734 12.8773 33.5011 12.8681 33.5256C12.8548 33.5609 12.8461 33.5978 12.8358 33.6351C12.7857 33.8105 12.7425 33.9857 12.7063 34.1608C12.6766 34.3041 12.6464 34.4591 12.6214 34.6162C12.6214 34.6265 12.6183 34.6372 12.6163 34.6475C12.6055 34.7043 12.5978 34.7626 12.5891 34.8215C12.5891 34.8271 12.5861 34.8419 12.5855 34.8476C12.5344 35.1859 12.4878 35.5513 12.4494 35.9643C12.4366 36.1081 12.4233 36.256 12.4126 36.4091L12.3875 36.7755C12.3691 37.0555 12.3527 37.3421 12.3419 37.6369L12.3256 38.1154C12.1761 43.3756 12.8998 51.1549 14.0856 57.0251C15.4905 63.9599 17.6073 76.6601 15.9997 83.7919C15.4419 86.2705 13.7478 93.8144 15.6885 96.3268C16.1149 96.8774 16.7009 97.1456 17.531 97.1743C18.1702 97.1932 18.6682 96.9916 19.0971 96.5356C20.8479 94.6711 20.786 89.5752 20.611 87.766C20.5834 87.4785 20.6614 87.1907 20.8304 86.9564C20.9994 86.7222 21.2479 86.5573 21.5294 86.4928C21.811 86.4282 22.1064 86.4682 22.3606 86.6054C22.6148 86.7426 22.8104 86.9675 22.911 87.2383C23.1904 87.9907 29.769 105.755 31.3044 113.135C31.8945 115.962 31.9144 119.016 31.9324 121.711C31.9467 123.887 31.96 125.943 32.2906 127.31C32.653 128.823 33.2211 128.823 33.5967 128.823C33.8721 128.823 34.0604 128.734 34.2462 128.516C35.4151 127.134 35.2621 122.491 34.5916 118.501C34.5426 118.193 34.6166 117.878 34.7976 117.624C34.9785 117.369 35.252 117.197 35.5592 117.142C35.8664 117.088 36.1827 117.156 36.4399 117.333C36.6972 117.509 36.8748 117.779 36.9346 118.086C38.0913 124.297 42.1314 129.545 42.1718 129.597C42.3039 129.766 42.3878 129.968 42.4144 130.181C43.329 137.54 46.2677 139.77 48.6286 141.562C49.9209 142.542 51.141 143.468 51.6702 145.01C51.7943 145.384 51.8869 145.769 51.9471 146.159C51.9624 146.235 51.9742 146.312 51.9829 146.391L52.0141 146.615C52.0249 146.698 52.0346 146.781 52.0417 146.861C52.0796 147.205 52.1032 147.56 52.1211 147.863L52.1344 148.105C52.1344 148.119 52.1344 148.133 52.1344 148.147L52.162 148.893C52.162 148.906 52.162 148.92 52.162 148.934V148.948C52.1671 149.126 52.1702 149.307 52.1738 149.49L52.1845 150.273C52.1902 150.75 52.1958 151.235 52.206 151.717L52.2147 152.053V152.083C52.2147 152.138 52.2147 152.192 52.2193 152.246L51.0315 152.324L52.2204 152.276C52.226 152.417 52.2316 152.556 52.2342 152.693C52.248 153.102 52.2705 153.498 52.3002 153.86C52.3166 154.057 52.3355 154.248 52.3545 154.437C52.3545 154.447 52.3545 154.457 52.3545 154.468C52.3575 154.511 52.3626 154.555 52.3688 154.596C52.3713 154.613 52.3739 154.629 52.3754 154.648C52.4067 154.926 52.444 155.175 52.4896 155.41L52.4957 155.442C52.5039 155.493 52.5146 155.544 52.5254 155.596C52.5361 155.647 52.5469 155.698 52.5597 155.749C52.662 156.206 52.7864 156.568 52.9292 156.852L52.9405 156.876C52.9522 156.9 52.9645 156.927 52.9788 156.948C52.9865 156.961 52.9937 156.974 53.0003 156.986C53.0193 157.02 53.0408 157.053 53.0612 157.085C53.1238 157.184 53.1979 157.275 53.2818 157.356C53.29 157.363 53.2982 157.371 53.3059 157.379C53.3136 157.387 53.3238 157.395 53.3274 157.398C53.4194 157.477 53.5267 157.535 53.6426 157.57L53.6938 157.586L53.7143 157.591L53.7373 157.596C53.7624 157.596 53.7824 157.599 53.8023 157.603ZM53.6703 157.577L53.6897 157.581L53.6703 157.577ZM113.909 40.1835V40.1866V40.1835ZM120.372 17.8386C120.373 17.8397 120.374 17.8409 120.375 17.8422C120.374 17.8413 120.373 17.8404 120.372 17.8397V17.8386ZM119.366 17.0049L119.393 17.0233L119.366 17.0049Z" fill="#000215"/>
<path d="M54.0289 159.999C52.9413 159.999 52.2018 159.568 51.754 159.176C49.8992 157.552 49.8547 153.987 49.8092 150.538C49.7861 148.693 49.7621 146.785 49.4176 145.779C49.1234 144.923 48.3122 144.306 47.1888 143.454C44.6472 141.526 41.1793 138.895 40.0922 130.789C39.0748 129.385 38.167 127.905 37.3767 126.361C37.197 127.856 36.7994 129.176 36.0608 130.05C35.4237 130.803 34.5705 131.201 33.5945 131.201C32.3079 131.201 30.6358 130.623 29.9746 127.863C29.5831 126.23 29.5698 124.142 29.5539 121.725C29.5365 119.142 29.5176 116.214 28.9761 113.62C28.0083 108.976 24.8705 99.7814 22.7424 93.7806C22.4354 95.4357 21.8617 97.0633 20.8309 98.1616C19.9383 99.1135 18.774 99.5905 17.4531 99.5516C15.9228 99.5004 14.6612 98.8863 13.8045 97.7813C11.4886 94.7873 12.44 88.765 13.6765 83.2684C15.1868 76.5675 13.1187 64.2445 11.7512 57.4955C10.2629 50.1333 9.19221 37.8595 10.5392 33.0098C10.246 32.8664 9.9036 32.6914 9.52641 32.4852C9.36468 32.3965 9.22576 32.2715 9.12061 32.12C9.01546 31.9684 8.94696 31.7945 8.92051 31.612C8.89406 31.4295 8.91038 31.2433 8.96819 31.0682C9.026 30.893 9.12371 30.7337 9.25362 30.6028C13.3746 26.4573 22.6053 19.0741 38.1295 16.2214C57.442 12.6721 79.9569 17.2511 105.049 29.8295C105.288 29.9496 105.48 30.1469 105.593 30.3895C105.707 30.632 105.735 30.9057 105.673 31.1663C105.661 31.2174 104.449 36.4557 104.984 40.1979L105.072 40.8028C105.67 44.9177 106.491 50.5535 102.229 52.0311C100.493 52.6324 99.1128 52.3683 98.083 51.7639C97.7969 54.5716 96.9924 59.0426 94.7564 63.8028C93.6023 66.2635 92.4129 68.2887 91.2629 70.2473C88.9342 74.2122 86.9234 77.6361 86.4904 82.9193C86.2882 85.3985 86.5288 88.2466 86.7611 91.0011C87.2888 97.2449 87.8359 103.705 82.7113 105.28C80.4001 105.989 78.9143 105.336 78.075 104.666C77.3902 104.118 76.8979 103.38 76.5483 102.576C76.2412 103.875 75.9746 105.234 75.8528 106.426C75.7504 107.43 75.7228 108.386 75.6992 109.31C75.625 111.986 75.5549 114.513 73.257 115.564C72.2242 116.036 71.1376 115.978 70.1975 115.398C69.8128 115.155 69.4703 114.851 69.1836 114.498C68.942 116.706 68.8253 119.565 69.2036 122.62C70.0782 129.659 70.2973 136.516 66.0197 139.005C63.8671 140.258 62.194 139.374 60.9729 138.728C60.2252 138.333 59.7446 138.095 59.3009 138.175C59.088 138.213 58.7707 138.318 58.4631 138.787C57.265 140.612 57.5623 145.497 58.4759 149.381L58.4846 149.419C58.9421 151.368 59.8935 155.421 58.1048 157.979C57.3136 159.112 56.1206 159.781 54.5596 159.97C54.3835 159.99 54.2062 160 54.0289 159.999ZM35.7671 117.111C36.0446 117.111 36.3132 117.209 36.5265 117.386C36.7398 117.564 36.8843 117.81 36.935 118.083C38.0952 124.315 42.1317 129.542 42.1722 129.593C42.3043 129.763 42.3881 129.965 42.4148 130.179C43.3293 137.539 46.2675 139.771 48.6295 141.563C49.9212 142.543 51.1413 143.469 51.6705 145.011C52.1393 146.376 52.1644 148.385 52.191 150.511C52.2243 153.163 52.2653 156.464 53.3211 157.388C53.4746 157.524 53.7264 157.672 54.273 157.606C55.1431 157.501 55.7608 157.177 56.1533 156.616C57.3305 154.927 56.5157 151.446 56.1667 149.962L56.158 149.924C55.9461 149.024 54.1527 141.016 56.4722 137.482C57.0638 136.58 57.8955 136.011 58.8776 135.834C60.151 135.603 61.1781 136.146 62.084 136.625C63.2499 137.24 63.8533 137.513 64.8221 136.949C67.9144 135.149 67.5781 128.845 66.8416 122.914C65.9506 115.741 67.5745 109.761 67.6441 109.509C67.7197 109.235 67.8908 108.997 68.1266 108.838C68.3624 108.679 68.6472 108.61 68.9295 108.643C69.2118 108.676 69.4729 108.81 69.6655 109.019C69.8581 109.228 69.9695 109.499 69.9794 109.783C70.0368 111.35 70.6668 112.893 71.4447 113.373C71.7083 113.535 71.9565 113.543 72.2661 113.4C73.1725 112.986 73.2539 111.621 73.3199 109.244C73.345 108.323 73.3742 107.276 73.4868 106.183C73.8962 102.191 75.7151 96.7664 75.7924 96.5361C75.8847 96.2609 76.0746 96.0289 76.3261 95.884C76.5777 95.739 76.8735 95.691 77.158 95.7491C77.4424 95.8072 77.6958 95.9673 77.8704 96.1993C78.045 96.4313 78.1287 96.7191 78.1057 97.0085C78.0202 98.1421 78.1057 101.644 79.5648 102.811C79.7772 102.981 80.4231 103.496 82.0143 103.008C85.0743 102.069 84.9422 97.725 84.3915 91.2058C84.1505 88.3546 83.9013 85.4061 84.1198 82.73C84.5978 76.9042 86.7361 73.2618 89.2121 69.0472C90.335 67.1351 91.4958 65.1575 92.6038 62.7966C95.9883 55.5865 95.8578 48.9199 95.8557 48.8533C95.8483 48.5733 95.9399 48.2997 96.1144 48.0806C96.2889 47.8615 96.5351 47.711 96.8096 47.6555C97.0842 47.6 97.3695 47.6432 97.6153 47.7774C97.8612 47.9116 98.0518 48.1282 98.1537 48.3891C98.3026 48.753 99.1773 50.5745 101.451 49.7874C103.674 49.0197 103.34 45.4197 102.718 41.1503L102.63 40.5393C102.169 37.3252 102.816 33.3332 103.164 31.5527C49.0246 4.7347 20.986 23.0027 12.1391 31.1351C12.3571 31.2328 12.4825 31.283 12.4856 31.284C12.6417 31.346 12.783 31.4404 12.9 31.561C13.017 31.6815 13.1072 31.8254 13.1647 31.9833C13.2221 32.1412 13.2454 32.3095 13.2332 32.477C13.221 32.6446 13.1734 32.8076 13.0936 32.9555C13.0701 32.9995 13.046 33.0461 13.0245 33.0968C11.6268 36.2586 12.4406 48.8948 14.085 57.0272C15.4898 63.9625 17.6071 76.6627 15.9991 83.794C15.4417 86.2726 13.7472 93.8169 15.6879 96.3288C16.1142 96.8795 16.7002 97.1477 17.5303 97.1764C18.1691 97.1953 18.667 96.9942 19.0959 96.5376C20.8468 94.6732 20.7848 89.5772 20.6103 87.7681C20.5833 87.4808 20.6615 87.1935 20.8305 86.9596C20.9994 86.7257 21.2476 86.5612 21.5289 86.4967C21.8101 86.4322 22.1052 86.472 22.3592 86.6088C22.6132 86.7456 22.8089 86.9701 22.9098 87.2404C23.1892 87.9933 29.7678 105.757 31.3063 113.137C31.8964 115.964 31.9163 119.018 31.9338 121.713C31.9486 123.889 31.9619 125.945 32.292 127.312C32.6549 128.825 33.2224 128.825 33.5981 128.825C33.874 128.825 34.0623 128.736 34.2481 128.518C35.417 127.136 35.2635 122.493 34.593 118.503C34.5411 118.193 34.6136 117.876 34.7945 117.62C34.9755 117.363 35.2503 117.189 35.5593 117.134C35.6278 117.121 35.6973 117.114 35.7671 117.112V117.111Z" fill="#000215"/>
<path d="M96.0277 50.0233C96.1725 49.3272 96.3015 48.5903 96.4156 47.8661C96.5298 47.1419 96.6311 46.4069 96.715 45.672C96.8768 44.2021 96.9801 42.7241 96.9274 41.2291C97.3492 42.6652 97.623 44.1602 97.8328 45.6582C97.9331 46.4071 98.0196 47.1606 98.0923 47.9188C98.1624 48.6788 98.2212 49.425 98.2545 50.2101C98.261 50.3579 98.2382 50.5056 98.1876 50.6447C98.137 50.7838 98.0595 50.9115 97.9595 51.0206C97.8595 51.1298 97.739 51.2181 97.6048 51.2806C97.4707 51.3432 97.3256 51.3787 97.1777 51.3852C97.0298 51.3916 96.8821 51.3689 96.7431 51.3183C96.604 51.2676 96.4763 51.1901 96.3671 51.0901C96.258 50.9901 96.1697 50.8696 96.1071 50.7355C96.0446 50.6013 96.0091 50.4562 96.0026 50.3083C95.9994 50.2127 96.0078 50.1169 96.0277 50.0233Z" fill="#000215"/>
<path d="M75.7594 96.8605C75.8572 96.6425 75.9642 96.3575 76.0553 96.0929C76.1464 95.8283 76.24 95.5534 76.3265 95.2796C76.4969 94.732 76.6449 94.1757 76.7738 93.6142C77.0336 92.4875 77.1934 91.3401 77.2513 90.1852C77.2989 89.0286 77.2293 87.8632 76.9831 86.7204C76.8581 86.1476 76.6869 85.5859 76.4713 85.0407C76.2459 84.4905 75.9708 83.962 75.6494 83.4618C76.0484 83.9136 76.4067 84.3998 76.7201 84.9148C77.0308 85.4398 77.298 85.9895 77.519 86.5581C77.9607 87.701 78.2288 88.9165 78.3716 90.1407C78.5032 91.3725 78.5246 92.6136 78.4356 93.8491C78.3936 94.4664 78.3266 95.0872 78.237 95.7018C78.1899 96.0089 78.1424 96.3191 78.0835 96.6267C78.0221 96.9424 77.9663 97.2301 77.8742 97.5796L77.8711 97.5934C77.8362 97.7386 77.7727 97.8753 77.6843 97.9956C77.5959 98.1159 77.4844 98.2173 77.3563 98.2939C77.2282 98.3705 77.0861 98.4208 76.9383 98.4417C76.7905 98.4627 76.64 98.454 76.4956 98.416C76.3513 98.378 76.216 98.3117 76.0976 98.2207C75.9792 98.1298 75.8802 98.0161 75.8063 97.8864C75.7325 97.7567 75.6853 97.6135 75.6674 97.4653C75.6496 97.3171 75.6616 97.1668 75.7026 97.0233C75.718 96.9679 75.7369 96.9135 75.7594 96.8605Z" fill="#000215"/>
<path opacity="0.2" d="M21.7962 87.6529C21.7962 87.6529 22.8469 98.5372 17.4931 98.3637C15.2156 98.2885 14.1342 96.7572 13.7539 94.5253C14.4049 94.9444 15.277 95.1123 16.0314 94.8861C17.4762 94.4557 18.4486 93.1112 19.1247 91.7616C19.9751 90.0594 20.5347 88.227 20.7803 86.3401C20.8561 85.77 21.655 85.7306 21.7947 86.289C22.0134 87.1797 22.1777 88.083 22.2865 88.9938C21.9779 88.1417 21.7962 87.6529 21.7962 87.6529Z" fill="#000215"/>
<path opacity="0.2" d="M36.2551 125.571C36.0872 127.976 35.408 130.014 33.5973 130.014C32.3537 130.014 31.6581 129.282 31.2666 128.066C31.4885 128.1 31.7151 128.088 31.9319 128.029C32.7508 127.801 33.3291 127.021 33.5584 126.199C33.7877 125.378 33.7288 124.506 33.6669 123.653C33.511 121.436 33.3545 119.218 33.1976 117C33.1613 116.48 33.128 115.935 33.3511 115.465C33.5743 114.994 34.1475 114.652 34.6224 114.864C34.9607 115.012 35.1342 115.378 35.2678 115.722C35.6338 116.692 35.8323 117.717 35.8548 118.754C35.8577 118.797 35.8577 118.841 35.8548 118.885C35.8579 119.014 35.8548 119.141 35.8548 119.268C35.7883 121.387 36.0539 123.486 36.2551 125.571Z" fill="#000215"/>
<path d="M126.59 31.8955C123.703 42.3694 114.968 40.7235 114.968 40.7235C114.649 40.7046 114.331 40.6644 114.018 40.6032C113.966 40.5945 113.915 40.5863 113.864 40.5751C113.602 40.5239 113.301 40.4578 112.964 40.3627C112.96 40.3606 112.955 40.3597 112.951 40.3601C112.822 40.3238 112.699 40.2874 112.576 40.2511C112.529 40.2401 112.482 40.2261 112.436 40.2091C111.314 39.8534 110.24 39.3625 109.236 38.7474C108.682 38.4105 108.15 38.0382 107.644 37.6327C107.644 37.6327 102.941 34.9888 94.7978 32.2871C86.6546 29.5853 78.8636 26.8375 78.8636 26.8375C78.8636 26.8375 73.5542 24.7903 63.8353 25.4045C54.1163 26.0186 38.4928 27.1957 32.3114 23.2038C32.3114 23.2038 28.2902 27.6277 23.4062 30.2123C16.2922 33.9765 12.03 32.4227 12.0495 32.3864C11.3827 32.109 10.7323 31.7937 10.1016 31.4421C9.97312 31.372 9.83903 31.2967 9.69931 31.2184C9.46184 31.0813 9.21311 30.9359 8.95875 30.7768C8.84974 30.7072 8.73509 30.637 8.62352 30.5644C8.55903 30.5224 8.49506 30.4835 8.43365 30.4415C8.05338 30.1902 7.66237 29.9159 7.27085 29.6227C7.20381 29.5715 7.13983 29.5203 7.07279 29.4691C6.87677 29.3156 6.68127 29.1559 6.48576 28.9942C6.41872 28.9384 6.35423 28.8821 6.29026 28.8263C6.1618 28.7147 6.03027 28.6001 5.90437 28.4829C5.71193 28.3068 5.52154 28.1246 5.3373 27.9348C5.21447 27.8094 5.09112 27.6789 4.97136 27.552C4.59032 27.1379 4.23563 26.7003 3.90939 26.2418C3.81983 26.1159 3.73334 25.9859 3.6494 25.8589C3.60744 25.7945 3.56547 25.73 3.52657 25.666C3.42421 25.4981 3.32185 25.3277 3.22768 25.1542C3.1765 25.0564 3.12532 24.9587 3.07415 24.8604C3.03781 24.7878 2.99891 24.7125 2.96513 24.6373C2.93135 24.5621 2.89809 24.4976 2.86738 24.4249C2.82849 24.341 2.79471 24.257 2.75837 24.1731C1.7747 21.7922 1.52597 19.2271 1.97584 16.8519C2.09955 16.1774 2.28298 15.5153 2.52397 14.8733C3.35103 12.6572 4.84598 10.7375 6.97248 9.47746C11.8545 6.58531 26.3909 5.87802 31.8262 4.29094C37.2614 2.70387 51.7861 -1.39866 67.4885 3.53349C83.1908 8.46564 89.1706 6.43997 96.7574 6.86015C101.966 7.15085 116.223 11.1592 123.176 18.9267C123.179 18.9267 123.179 18.9267 123.181 18.9267C123.922 19.7456 124.583 20.6325 125.157 21.5757L125.291 21.8025C125.674 22.4584 126.003 23.1442 126.275 23.8532C126.548 24.5664 126.756 25.303 126.895 26.0539C127.23 27.8744 127.163 29.8192 126.59 31.8955Z" fill="#DF3E08"/>
<g style="mix-blend-mode:overlay" opacity="0.6">
<path d="M125.289 21.8076C125.244 21.7324 125.199 21.6571 125.155 21.5814C124.581 20.6381 123.919 19.7511 123.179 18.9323C123.176 18.9323 123.176 18.9323 123.173 18.9323C116.221 11.1638 101.964 7.15647 96.7547 6.86577C89.1679 6.44355 83.1876 8.47229 67.4857 3.53912C61.4246 1.63627 55.5425 1.08251 50.2895 1.20278C50.2383 1.20585 50.1805 1.20585 50.1273 1.20841C41.8418 1.42643 35.1409 3.32672 31.824 4.29657C26.3887 5.88313 11.8523 6.59043 6.97027 9.48309C4.84377 10.7431 3.34882 12.6629 2.52176 14.8789C2.28078 15.5209 2.09735 16.183 1.97363 16.8575C4.13391 14.2893 7.18011 12.3276 10.3461 11.1398C15.7839 9.0972 21.6941 8.80957 27.42 7.84535C33.2544 6.86168 39.0556 5.15434 44.8849 4.27968C45.192 5.68507 47.6962 6.78082 50.7368 6.78082C53.9027 6.78082 56.4766 5.59294 56.6076 4.10362C65.2758 5.44503 73.3043 10.1592 82.079 10.718C87.1059 11.0364 92.1388 9.97185 97.1713 10.2011C108.067 10.6955 122.268 17.1175 126.27 23.8604C126 23.1504 125.671 22.4638 125.289 21.8076Z" fill="white"/>
</g>
<path opacity="0.2" d="M126.59 31.8956C123.703 42.3694 114.968 40.7235 114.968 40.7235C114.649 40.7046 114.331 40.6644 114.018 40.6032C113.967 40.5945 113.915 40.5863 113.864 40.5751C113.602 40.5239 113.301 40.4579 112.964 40.3627C112.96 40.3607 112.955 40.3598 112.951 40.3601C112.822 40.3238 112.699 40.2874 112.576 40.2511C112.529 40.2401 112.482 40.2261 112.436 40.2091C111.314 39.8534 110.24 39.3626 109.237 38.7475C108.682 38.4105 108.15 38.0382 107.644 37.6328C107.644 37.6328 102.941 34.9889 94.7978 32.2871C86.6547 29.5853 78.8637 26.8375 78.8637 26.8375C78.8637 26.8375 73.5543 24.7903 63.8354 25.4045C54.1164 26.0187 38.4929 27.1958 32.3114 23.2038C32.3114 23.2038 28.2903 27.6277 23.4062 30.2123C16.2923 33.9765 12.0301 32.4227 12.0495 32.3864C11.3828 32.109 10.7324 31.7938 10.1017 31.4421C9.9732 31.372 9.83911 31.2968 9.69939 31.2185C9.46192 31.0813 9.21319 30.936 8.95883 30.7768C8.84981 30.7072 8.73517 30.6371 8.6236 30.5644C8.55911 30.5224 8.49514 30.4835 8.43373 30.4416C8.05346 30.1903 7.66245 29.916 7.27093 29.6227C7.20388 29.5715 7.13991 29.5203 7.07287 29.4692C6.87685 29.3156 6.68135 29.1559 6.48584 28.9942C6.4188 28.9384 6.35431 28.8821 6.29034 28.8263C6.16187 28.7148 6.03034 28.6001 5.90444 28.4829C5.71201 28.3069 5.52162 28.1247 5.33738 27.9348C5.21455 27.8094 5.0912 27.6789 4.97144 27.552C4.5904 27.1379 4.23571 26.7003 3.90947 26.2418C3.81991 26.1159 3.73342 25.9859 3.64948 25.859C3.60752 25.7945 3.56555 25.73 3.52665 25.666C3.42429 25.4982 3.32193 25.3277 3.22776 25.1542C3.17658 25.0565 3.1254 24.9587 3.07422 24.8605C3.03789 24.7878 2.99899 24.7126 2.96521 24.6373C2.93143 24.5621 2.89817 24.4976 2.86746 24.4249C2.82856 24.341 2.79479 24.2571 2.75845 24.1731C1.49534 21.1131 1.44519 17.746 2.52405 14.8733C3.02407 18.7548 5.06664 22.4601 8.29145 24.6998C13.6141 28.3939 21.5469 27.6682 26.1116 23.0702C23.6273 20.8516 22.3054 17.4031 22.6687 14.0949C26.7068 19.1806 33.7347 20.7231 40.2176 21.0947C48.8539 21.5873 57.511 20.6055 65.8175 18.1913C68.1958 17.5014 69.4753 14.9189 68.5925 12.6025L67.8714 10.7089C75.8354 19.7676 87.2898 25.6532 99.1302 27.1456C101.008 27.3831 102.836 26.5228 103.92 24.969C105.996 21.9873 109.011 19.6565 112.44 18.4523C110.533 20.8306 108.758 23.4454 108.195 26.4409C107.632 29.4364 108.541 32.8823 111.082 34.5646C113.342 36.0595 116.623 35.7688 118.582 33.8936C120.541 32.0184 120.982 28.7578 119.66 26.4409C121.158 27.3043 123.226 27.0085 124.42 25.7617C125.328 24.8144 125.666 23.3865 125.37 22.1152C125.907 23.4172 126.429 24.731 126.89 26.0611C127.23 27.8744 127.163 29.8192 126.59 31.8956Z" fill="#000215"/>
<path d="M116.179 41.9922C115.734 41.9951 115.289 41.9671 114.848 41.9083C114.497 41.8837 114.148 41.8388 113.802 41.7737C113.743 41.764 113.682 41.7532 113.623 41.7409C113.296 41.678 112.984 41.6048 112.673 41.5178L112.625 41.505C112.501 41.4702 112.382 41.4349 112.263 41.4026C112.191 41.3842 112.12 41.3627 112.051 41.3387C110.846 40.9546 109.692 40.4263 108.614 39.7654C108.047 39.4205 107.501 39.0412 106.981 38.6297C106.339 38.2807 101.784 35.8619 94.4181 33.4186C86.3522 30.7466 78.5402 27.9895 78.4624 27.9619L78.4312 27.9507C78.38 27.9317 73.1976 26.0058 63.905 26.5944L62.667 26.6722C53.2372 27.2715 39.1951 28.1636 32.5223 24.7038C31.1553 26.0857 27.8466 29.2076 23.9585 31.2676C17.5928 34.6352 13.0573 34.1091 11.6156 33.4816L11.6094 33.497C10.8958 33.2014 10.2 32.8645 9.5254 32.4882C9.41229 32.4268 9.29049 32.3587 9.16458 32.2881L9.11341 32.2599C8.85137 32.1064 8.58984 31.9559 8.3232 31.7886L8.17375 31.6949C8.1062 31.6525 8.03813 31.6095 7.96904 31.5654L7.90557 31.5245C7.85439 31.4928 7.80628 31.4615 7.75766 31.4283C7.34311 31.154 6.93112 30.8653 6.54676 30.5721L6.35228 30.4241L6.3313 30.4078C6.12658 30.2481 5.92186 30.0823 5.72073 29.9134C5.64805 29.853 5.57998 29.7941 5.51243 29.7353C5.36401 29.6068 5.22224 29.4824 5.08661 29.356C4.89725 29.183 4.691 28.984 4.48321 28.7731C4.35168 28.6385 4.2222 28.5034 4.0963 28.3683C3.67871 27.9155 3.29001 27.4368 2.93248 26.9353C2.83524 26.7981 2.73953 26.6563 2.64741 26.5146C2.59623 26.4357 2.54812 26.361 2.50359 26.2889C2.39356 26.1113 2.28301 25.9229 2.17809 25.732C2.11821 25.622 2.06396 25.516 2.0092 25.4101L1.9831 25.3589C1.94778 25.2888 1.91196 25.2167 1.88074 25.145C1.84952 25.0733 1.80858 24.9915 1.77531 24.9152C1.74665 24.8528 1.72004 24.7903 1.69342 24.7274L1.66221 24.6537C-0.875266 18.5019 1.15041 11.5487 6.36098 8.46105C9.59756 6.54336 16.4945 5.57044 22.5761 4.71216C26.1423 4.20855 29.5104 3.7331 31.4875 3.1558C36.4483 1.70486 51.5457 -2.71192 67.8402 2.40551C79.3258 6.0157 85.5323 5.83452 91.0096 5.68098C92.9708 5.6252 94.8234 5.57146 96.8184 5.68098C101.791 5.95838 116.655 9.92324 124.012 18.0915C124.02 18.0991 124.028 18.1073 124.036 18.116C124.044 18.1247 124.054 18.135 124.063 18.1447C127.895 22.4258 129.129 27.161 127.735 32.219C125.327 40.9558 119.027 41.9922 116.179 41.9922ZM113.287 39.2183C113.548 39.292 113.809 39.3534 114.087 39.4066L114.123 39.4143C114.146 39.4189 114.169 39.4225 114.192 39.4261L114.23 39.4327C114.488 39.4825 114.749 39.5166 115.011 39.5351C115.07 39.5372 115.129 39.5437 115.187 39.5545C115.494 39.6098 122.894 40.8253 125.442 31.5803C126.603 27.3728 125.557 23.4008 122.333 19.7748C122.316 19.7584 122.301 19.7415 122.282 19.7236C115.411 12.0436 101.381 8.31314 96.6874 8.0511C94.7938 7.94567 92.9892 7.99992 91.0792 8.0511C85.4152 8.21385 78.9957 8.39861 67.1272 4.66866C51.5216 -0.232275 36.9452 4.03148 32.1554 5.43277C30.014 6.05971 26.5635 6.54694 22.9098 7.06334C17.0472 7.88988 10.4026 8.82749 7.57598 10.5026C3.37364 12.992 1.77429 18.6749 3.85524 23.7212L3.88697 23.7954C3.90488 23.8379 3.9228 23.8809 3.94276 23.9233C3.9489 23.9361 3.95453 23.9494 3.96016 23.9622C3.98319 24.017 4.00878 24.0692 4.03385 24.1219C4.03846 24.1316 4.0446 24.1444 4.0487 24.1542C4.06815 24.1972 4.09015 24.2407 4.11165 24.2826L4.13519 24.3302C4.17562 24.4085 4.22168 24.4981 4.27082 24.5861C4.35321 24.7397 4.4438 24.8901 4.53644 25.0401C4.57226 25.0994 4.60604 25.1506 4.63879 25.2023C4.71761 25.3226 4.79233 25.4383 4.87524 25.5514C5.1729 25.9694 5.4963 26.3685 5.84356 26.7464C5.95052 26.8605 6.06772 26.9829 6.18441 27.1047C6.35945 27.2828 6.53499 27.4522 6.70337 27.6057C6.82876 27.7224 6.94954 27.8278 7.06777 27.9307C7.13021 27.9849 7.18548 28.033 7.24331 28.0812C7.42705 28.2347 7.61283 28.3847 7.7981 28.5305L7.98132 28.6702C8.32985 28.9338 8.70039 29.1953 9.08628 29.4507C9.12722 29.4784 9.15588 29.4963 9.18454 29.5147L9.27001 29.5695C9.32478 29.6053 9.38261 29.6411 9.43942 29.6769L9.59807 29.7793C9.82787 29.9231 10.0643 30.0613 10.29 30.1887L10.3279 30.2097C10.4451 30.2752 10.5577 30.3387 10.6667 30.3975C11.2552 30.7256 11.8616 31.0205 12.4831 31.2809C12.5061 31.2901 12.5286 31.2998 12.5506 31.3106C12.9119 31.4201 16.6813 32.4237 22.8458 29.161C27.4806 26.7085 31.3892 22.4463 31.4281 22.4054C31.6177 22.197 31.8751 22.0627 32.1545 22.0262C32.4338 21.9898 32.717 22.0536 32.9538 22.2063C38.5492 25.819 52.9736 24.9024 62.5185 24.2964L63.7576 24.2176C73.4361 23.6086 78.8555 25.5647 79.2701 25.7218C79.6355 25.8503 87.2806 28.5454 95.1684 31.1586C103.329 33.866 108.03 36.4863 108.226 36.5964C108.282 36.6276 108.335 36.6633 108.384 36.7033C108.851 37.0765 109.341 37.4196 109.851 37.7305C110.774 38.2964 111.762 38.748 112.794 39.0755C112.814 39.0816 112.834 39.0888 112.854 39.0965C112.874 39.1042 112.891 39.1047 112.913 39.1113L113.246 39.2086C113.26 39.2116 113.274 39.2157 113.288 39.2193L113.287 39.2183ZM13.0906 31.8183C13.1169 31.8668 13.1399 31.9171 13.1596 31.9687C13.1403 31.917 13.1172 31.8667 13.0906 31.8183Z" fill="#000215"/>
<path d="M116.178 41.9922C115.823 41.9932 115.467 41.9761 115.114 41.9411C115.004 41.9562 114.893 41.9562 114.783 41.9411C114.446 41.894 114.118 41.8387 113.799 41.7732C113.726 41.7609 113.665 41.7502 113.606 41.7368C113.321 41.6785 113.009 41.6048 112.69 41.5214C112.669 41.5163 112.647 41.5111 112.625 41.5045C112.501 41.4697 112.383 41.4349 112.267 41.4021C112.196 41.3842 112.127 41.3637 112.062 41.3402C110.837 40.9725 109.669 40.4365 108.591 39.7475C107.268 38.8908 106.649 38.1098 106.583 38.0248C106.561 37.9972 106.541 37.968 106.522 37.9383C106.364 37.6906 102.716 31.7738 107.632 23.1623C109.857 19.2635 113.066 16.7716 116.667 16.1456C119.332 15.685 121.967 16.355 123.905 17.9917C123.946 18.0233 123.985 18.0575 124.021 18.094C124.036 18.1099 124.052 18.1258 124.066 18.1421C127.898 22.4233 129.133 27.1584 127.739 32.2165C125.326 40.9558 119.026 41.9922 116.178 41.9922ZM114.921 39.529C115.01 39.5291 115.099 39.5375 115.187 39.554C115.494 39.6093 122.893 40.8248 125.442 31.5798C126.6 27.38 125.56 23.4152 122.35 19.7942C120.933 18.6063 119.062 18.1421 117.072 18.4881C114.182 18.9881 111.564 21.0686 109.697 24.34C105.718 31.3091 108.156 36.015 108.497 36.6082C108.613 36.7397 109.06 37.2146 109.883 37.749C110.783 38.3228 111.759 38.7679 112.783 39.0714C112.806 39.0786 112.83 39.0863 112.853 39.095C112.876 39.1037 112.891 39.1037 112.912 39.1103L113.245 39.2071L113.268 39.2132C113.554 39.2889 113.835 39.3555 114.103 39.4102C114.143 39.4194 114.168 39.4225 114.192 39.4266L114.256 39.4384C114.429 39.4737 114.607 39.5065 114.789 39.5361C114.833 39.5314 114.877 39.529 114.922 39.529H114.921Z" fill="#000215"/>
<path d="M108.296 36.4914C108.795 36.9886 109.351 37.4239 109.954 37.7878C110.553 38.1321 111.204 38.3775 111.882 38.5146C113.232 38.7853 114.693 38.5816 115.992 37.9444C117.315 37.2962 118.443 36.3099 119.262 35.0855C120.097 33.8488 120.564 32.3998 120.606 30.9078C120.626 30.1575 120.528 29.4088 120.315 28.6891C120.136 27.9655 119.773 27.3227 119.292 26.7612C118.806 26.2105 118.185 25.7719 117.492 25.5457C116.792 25.3164 116.034 25.3361 115.346 25.6015C114.644 25.8775 114.046 26.3685 113.639 27.0043C113.245 27.6384 113.076 28.4373 113.295 29.1672C113.514 29.897 114.066 30.5224 114.757 30.8939C115.447 31.2655 116.308 31.3663 117.037 31.0117C116.33 31.4109 115.43 31.3663 114.692 31.0198C113.931 30.6682 113.335 30.0368 113.027 29.2567C112.731 28.4517 112.87 27.5381 113.273 26.7945C113.695 26.045 114.343 25.4484 115.125 25.0902C115.928 24.727 116.832 24.652 117.684 24.8778C118.531 25.101 119.291 25.579 119.903 26.1936C120.516 26.8145 120.975 27.5693 121.244 28.3984C121.533 29.2029 121.695 30.0477 121.722 30.9021C121.771 32.6333 121.327 34.3427 120.443 35.8317C119.555 37.3386 118.283 38.5834 116.758 39.4394C115.23 40.3058 113.374 40.705 111.561 40.4512C110.656 40.324 109.779 40.0513 108.962 39.6436C108.164 39.2266 107.421 38.7132 106.748 38.1148C106.638 38.018 106.548 37.9003 106.483 37.7685C106.418 37.6367 106.379 37.4934 106.37 37.3468C106.36 37.2002 106.379 37.0531 106.427 36.914C106.474 36.7749 106.548 36.6464 106.645 36.536C106.742 36.4255 106.859 36.3352 106.991 36.2702C107.123 36.2053 107.266 36.1669 107.413 36.1573C107.56 36.1477 107.707 36.167 107.846 36.2143C107.985 36.2615 108.113 36.3357 108.224 36.4326C108.238 36.4464 108.252 36.4577 108.266 36.4715L108.296 36.4914Z" fill="#000215"/>
<path d="M82.0931 29.2101C79.0914 27.7403 77.0601 24.9459 76.5068 22.02C77.7699 24.7197 80.2711 26.5918 82.8387 27.1031C82.9844 27.1317 83.1231 27.1887 83.2467 27.271C83.3703 27.3532 83.4765 27.459 83.5592 27.5823C83.6419 27.7056 83.6995 27.844 83.7287 27.9896C83.7578 28.1352 83.758 28.2851 83.7292 28.4308C83.7004 28.5764 83.6431 28.715 83.5607 28.8385C83.4783 28.962 83.3723 29.068 83.2489 29.1505C83.1254 29.233 82.9869 29.2904 82.8413 29.3193C82.6956 29.3483 82.5457 29.3482 82.4001 29.3192C82.3065 29.3001 82.2155 29.27 82.1289 29.2296L82.0931 29.2101Z" fill="#000215"/>
<path d="M32.2803 24.5298L29.3047 21.4755L33.418 22.6045C33.5646 22.6448 33.7018 22.7136 33.8218 22.807C33.9418 22.9003 34.0422 23.0164 34.1173 23.1486C34.1925 23.2807 34.2408 23.4264 34.2597 23.5772C34.2785 23.7281 34.2674 23.8812 34.2271 24.0278C34.1868 24.1744 34.118 24.3116 34.0246 24.4316C33.9313 24.5516 33.8152 24.652 33.6831 24.7271C33.5509 24.8023 33.4052 24.8506 33.2544 24.8695C33.1035 24.8883 32.9504 24.8773 32.8038 24.8369C32.6055 24.7819 32.4251 24.676 32.2803 24.5298Z" fill="#000215"/>
<path d="M66.7389 113.574C66.7389 119.322 62.684 123.983 57.6802 123.983C54.6289 123.983 51.9297 122.248 50.2894 119.59C50.1804 119.414 50.077 119.236 49.9823 119.051C49.1215 117.464 48.624 115.586 48.624 113.575C48.624 109.282 50.8851 105.596 54.1125 104.004C55.1108 103.506 56.2025 103.222 57.3172 103.172C58.4319 103.121 59.5448 103.305 60.5841 103.711C64.1651 105.104 66.7389 108.994 66.7389 113.574Z" fill="#DF3E08"/>
<g opacity="0.61">
<path d="M61.3148 107.781C59.6074 107.2 57.7798 106.736 56.0136 107.1C53.9849 107.516 52.2857 109.014 51.2913 110.83C50.2969 112.646 49.9417 114.753 49.9054 116.824C49.8916 117.567 49.9186 118.311 49.9862 119.051C49.1254 117.464 48.6279 115.586 48.6279 113.575C48.6279 109.282 50.889 105.596 54.1164 104.004C55.187 104.048 56.2408 104.286 57.2266 104.706C58.8161 105.389 60.2182 106.443 61.3148 107.781Z" fill="white"/>
</g>
<path d="M57.6807 125.173C52.031 125.173 47.4346 119.97 47.4346 113.574C47.4346 107.179 52.031 101.975 57.6807 101.975C63.3304 101.975 67.9273 107.178 67.9273 113.574C67.9273 119.97 63.3324 125.173 57.6807 125.173ZM57.6807 104.354C53.3432 104.354 49.8139 108.491 49.8139 113.574C49.8139 118.658 53.3453 122.794 57.6807 122.794C62.0161 122.794 65.548 118.657 65.548 113.574C65.548 108.491 62.0202 104.355 57.6807 104.355V104.354Z" fill="#000215"/>
<path d="M56.0147 123.776C51.2847 123.776 47.4365 119.262 47.4365 113.714C47.4365 108.166 51.2847 103.652 56.0147 103.652C60.7447 103.652 64.5929 108.166 64.5929 113.714C64.5929 119.262 60.7447 123.776 56.0147 123.776ZM56.0147 106.031C52.5964 106.031 49.8159 109.477 49.8159 113.714C49.8159 117.951 52.5964 121.398 56.0147 121.398C59.433 121.398 62.2135 117.952 62.2135 113.716C62.2135 109.479 59.4324 106.031 56.0147 106.031Z" fill="#000215"/>
<path d="M54.8074 111.367C54.8068 111.419 54.7891 111.47 54.7569 111.512C54.7248 111.553 54.68 111.583 54.6293 111.597C54.5786 111.61 54.5249 111.607 54.4763 111.587C54.4277 111.567 54.3869 111.532 54.3601 111.487C53.6784 110.358 52.5048 108.137 53.6144 107.796C54.7239 107.455 54.8299 110.025 54.8074 111.367Z" fill="#000215"/>
<path d="M57.7077 115.024C57.6694 114.988 57.6441 114.94 57.6358 114.888C57.6275 114.835 57.6366 114.782 57.6617 114.735C57.6867 114.689 57.7264 114.652 57.7746 114.63C57.8227 114.608 57.8767 114.603 57.9282 114.615C59.2164 114.897 61.6336 115.579 61.1193 116.616C60.5978 117.662 58.6632 115.963 57.7077 115.024Z" fill="#000215"/>
<path d="M53.96 114.694C53.9986 114.658 54.0477 114.637 54.0997 114.632C54.1518 114.627 54.204 114.639 54.2485 114.667C54.293 114.694 54.3273 114.735 54.3462 114.784C54.3652 114.833 54.3678 114.886 54.3536 114.937C53.9953 116.205 53.1718 118.578 52.1656 118.002C51.1595 117.427 52.9651 115.594 53.96 114.694Z" fill="#000215"/>
<path opacity="0.2" d="M66.7396 113.574C66.7396 119.322 62.6847 123.983 57.6808 123.983C54.6295 123.983 51.9303 122.248 50.29 119.59C52.0734 119.905 53.9098 119.685 55.5687 118.959C58.7766 117.545 61.0623 114.353 61.6268 110.897C62.0234 108.471 61.6099 105.954 60.5843 103.713C64.1658 105.104 66.7396 108.994 66.7396 113.574Z" fill="#000215"/>
<path d="M25.6576 108.658L24.8643 105.9L24.0966 103.231L20.0949 89.3012L19.4102 86.9235C19.4102 86.9235 30.1066 83.4944 35.3019 88.5382C36.1719 89.3852 36.8884 90.4666 37.3751 91.8413C42.0529 105.059 25.6576 108.658 25.6576 108.658Z" fill="#DF3E08"/>
<path opacity="0.6" d="M36.0864 102.519C37.3188 100.174 37.7016 97.1844 36.3658 93.4089C35.8796 92.0342 35.1641 90.9523 34.2926 90.1063C30.2269 86.1573 22.7961 87.3984 19.7576 88.1246L19.4111 86.9235C19.4111 86.9235 30.1076 83.4944 35.3028 88.5382C36.1729 89.3852 36.8894 90.4666 37.3761 91.8413C39.0292 96.5134 38.0481 99.9844 36.0864 102.519Z" fill="white"/>
<path d="M25.657 109.848C25.399 109.848 25.1481 109.764 24.9421 109.609C24.736 109.453 24.586 109.235 24.5147 108.987L18.2662 87.2525C18.1806 86.9553 18.2141 86.6364 18.3596 86.3635C18.5051 86.0905 18.7512 85.885 19.0457 85.7903C19.1992 85.7392 22.9123 84.5707 27.1279 84.5943C32.9946 84.6373 36.9262 87.0064 38.4964 91.4446C39.8516 95.2759 39.6904 98.7433 38.0184 101.752C34.6318 107.845 26.2671 109.742 25.9129 109.82C25.8289 109.839 25.7431 109.848 25.657 109.848ZM20.8856 87.7531L26.4743 107.197C28.6879 106.511 33.7336 104.568 35.9425 100.585C37.2645 98.2013 37.3684 95.3921 36.2496 92.2359C33.7915 85.2842 24.1825 86.9557 20.8871 87.7551L20.8856 87.7531Z" fill="#000215"/>
<path d="M24.8643 107.09C24.6061 107.09 24.3549 107.006 24.1487 106.85C23.9424 106.695 23.7923 106.477 23.721 106.229L18.9495 89.6299C18.8733 89.3644 18.8918 89.0806 19.0019 88.8273C19.112 88.5739 19.3068 88.3668 19.5529 88.2414C22.0674 86.9619 27.4187 86.0964 31.4455 88.1845C33.9195 89.4676 35.4456 91.6678 35.8602 94.5477C36.309 97.6696 35.5705 100.37 33.6646 102.577C30.5555 106.179 25.4805 107.088 24.8674 107.09H24.8643ZM21.5284 89.9861L25.7098 104.535C27.2267 104.147 30.2197 103.074 32.0376 100.815C33.3442 99.1912 33.8381 97.1967 33.5059 94.8865C33.1989 92.7687 32.14 91.2246 30.3512 90.2967C27.6403 88.8913 23.8341 89.1825 21.5284 89.9861Z" fill="#000215"/>
<path d="M25.8 94.7672C25.7623 94.8036 25.7137 94.8268 25.6617 94.8332C25.6097 94.8396 25.557 94.8289 25.5116 94.8027C25.4662 94.7765 25.4305 94.7363 25.4099 94.6881C25.3894 94.6399 25.3851 94.5863 25.3977 94.5354C25.716 93.2559 26.4622 90.8551 27.4848 91.4001C28.5161 91.9503 26.7668 93.8368 25.8 94.7672Z" fill="#000215"/>
<path d="M27.0135 98.1875C26.9677 98.1622 26.9314 98.1226 26.9102 98.0747C26.889 98.0269 26.884 97.9734 26.896 97.9224C26.908 97.8715 26.9364 97.8259 26.9767 97.7925C27.017 97.7591 27.0672 97.7399 27.1195 97.7376C28.4384 97.6762 30.9477 97.7039 30.7215 98.8416C30.4953 99.9793 28.1814 98.8441 27.0135 98.1875Z" fill="#000215"/>
<path opacity="0.2" d="M25.6576 108.658L24.8644 105.9L24.0967 103.231C27.5057 102.583 30.728 100.862 32.877 98.1512C34.9953 95.4827 35.9089 91.8561 35.3024 88.5381C36.1724 89.3852 36.889 90.4666 37.3757 91.8413C42.053 105.059 25.6576 108.658 25.6576 108.658Z" fill="#000215"/>
<path d="M82.8698 59.2417C82.8698 64.9897 78.8149 69.6506 73.8111 69.6506C70.7598 69.6506 68.0606 67.9156 66.4203 65.2578C66.3112 65.0818 66.2079 64.9032 66.1132 64.7184C65.2523 63.1318 64.7549 61.2536 64.7549 59.2422C64.7549 54.9498 67.016 51.2639 70.2434 49.6717C71.2417 49.1733 72.3334 48.8897 73.4481 48.8392C74.5628 48.7887 75.6757 48.9724 76.715 49.3784C80.296 50.7715 82.8698 54.6612 82.8698 59.2417Z" fill="#DF3E08"/>
<g opacity="0.61">
<path d="M77.4447 53.4487C75.7373 52.8673 73.9097 52.4037 72.1435 52.767C70.1148 53.1831 68.4156 54.6811 67.4212 56.4975C66.4268 58.3138 66.0716 60.4209 66.0352 62.4916C66.0215 63.2348 66.0485 63.9782 66.1161 64.7184C65.2553 63.1319 64.7578 61.2536 64.7578 59.2422C64.7578 54.9498 67.0189 51.2639 70.2463 49.6717C71.3169 49.7155 72.3707 49.9533 73.3565 50.3734C74.946 51.056 76.3481 52.1108 77.4447 53.4487Z" fill="white"/>
</g>
<path d="M73.8106 70.8405C68.1609 70.8405 63.5645 65.6371 63.5645 59.2417C63.5645 52.8464 68.1609 47.6425 73.8106 47.6425C79.4602 47.6425 84.0572 52.8459 84.0572 59.2417C84.0572 65.6376 79.4623 70.8405 73.8106 70.8405ZM73.8106 50.0218C69.4731 50.0218 65.9438 54.1581 65.9438 59.2417C65.9438 64.3254 69.4752 68.4612 73.8106 68.4612C78.146 68.4612 81.6778 64.3249 81.6778 59.2417C81.6778 54.1586 78.1501 50.0228 73.8106 50.0228V50.0218Z" fill="#000215"/>
<path d="M72.1446 69.4433C67.4146 69.4433 63.5664 64.9292 63.5664 59.3814C63.5664 53.8336 67.4146 49.319 72.1446 49.319C76.8746 49.319 80.7227 53.8331 80.7227 59.3814C80.7227 64.9298 76.8746 69.4433 72.1446 69.4433ZM72.1446 51.6984C68.7263 51.6984 65.9457 55.1448 65.9457 59.3814C65.9457 63.618 68.7263 67.0655 72.1446 67.0655C75.5628 67.0655 78.3434 63.619 78.3434 59.3829C78.3434 55.1468 75.5623 51.6984 72.1446 51.6984Z" fill="#000215"/>
<path d="M70.9372 57.0343C70.9367 57.0868 70.919 57.1376 70.8868 57.1791C70.8547 57.2205 70.8098 57.2504 70.7592 57.264C70.7085 57.2776 70.6548 57.2743 70.6062 57.2545C70.5576 57.2348 70.5167 57.1997 70.4899 57.1546C69.8082 56.0256 68.6347 53.8039 69.7443 53.463C70.8538 53.1222 70.9598 55.6924 70.9372 57.0343Z" fill="#000215"/>
<path d="M73.8375 60.6916C73.7993 60.6551 73.774 60.6071 73.7657 60.5549C73.7574 60.5027 73.7665 60.4492 73.7915 60.4027C73.8166 60.3561 73.8563 60.3191 73.9045 60.2973C73.9526 60.2756 74.0066 60.2702 74.0581 60.2822C75.3463 60.5647 77.7635 61.2464 77.2492 62.2833C76.7276 63.3294 74.7931 61.6307 73.8375 60.6916Z" fill="#000215"/>
<path d="M70.0909 60.361C70.1295 60.3258 70.1785 60.3041 70.2306 60.2993C70.2826 60.2944 70.3349 60.3066 70.3793 60.3341C70.4238 60.3616 70.4581 60.4028 70.4771 60.4515C70.4961 60.5002 70.4986 60.5538 70.4844 60.6041C70.1262 61.8729 69.3027 64.2455 68.2965 63.6698C67.2903 63.094 69.0959 61.2618 70.0909 60.361Z" fill="#000215"/>
<path opacity="0.2" d="M82.8695 59.2417C82.8695 64.9896 78.8145 69.6505 73.8107 69.6505C70.7594 69.6505 68.0602 67.9156 66.4199 65.2578C68.2033 65.5719 70.0396 65.3522 71.6986 64.6263C74.9065 63.2122 77.1922 60.0201 77.7567 56.5645C78.1533 54.1386 77.7398 51.6211 76.7141 49.3799C80.2957 50.7715 82.8695 54.6611 82.8695 59.2417Z" fill="#000215"/>
<path d="M38.8552 51.3602C38.8552 57.1081 34.8002 61.769 29.7964 61.769C26.7451 61.769 24.0459 60.0341 22.4056 57.3763C22.2966 57.2003 22.1932 57.0216 22.0985 56.8369C21.2377 55.2503 20.7402 53.372 20.7402 51.3607C20.7402 47.0683 23.0013 43.3823 26.2287 41.7901C27.227 41.2918 28.3188 41.0082 29.4334 40.9576C30.5481 40.9071 31.661 41.0908 32.7003 41.4969C36.2814 42.89 38.8552 46.7796 38.8552 51.3602Z" fill="#DF3E08"/>
<g opacity="0.61">
<path d="M33.431 45.5672C31.7236 44.9858 29.896 44.5221 28.1298 44.8855C26.1011 45.3016 24.4019 46.7996 23.4075 48.616C22.4131 50.4323 22.0579 52.5394 22.0216 54.6101C22.0078 55.3533 22.0348 56.0967 22.1024 56.8369C21.2416 55.2503 20.7441 53.372 20.7441 51.3607C20.7441 47.0683 23.0052 43.3824 26.2326 41.7902C27.3032 41.834 28.357 42.0717 29.3428 42.4918C30.9323 43.1745 32.3344 44.2292 33.431 45.5672Z" fill="white"/>
</g>
<path d="M29.7969 62.9589C24.1472 62.9589 19.5508 57.7555 19.5508 51.3601C19.5508 44.9648 24.1472 39.7609 29.7969 39.7609C35.4466 39.7609 40.0435 44.9643 40.0435 51.3601C40.0435 57.756 35.4486 62.9589 29.7969 62.9589ZM29.7969 42.1402C25.4594 42.1402 21.9301 46.2765 21.9301 51.3601C21.9301 56.4438 25.4615 60.5796 29.7969 60.5796C34.1323 60.5796 37.6642 56.4433 37.6642 51.3601C37.6642 46.277 34.1364 42.1412 29.7969 42.1412V42.1402Z" fill="#000215"/>
<path d="M28.1309 61.5618C23.4009 61.5618 19.5527 57.0478 19.5527 51.4999C19.5527 45.9521 23.4009 41.4376 28.1309 41.4376C32.8609 41.4376 36.7091 45.9516 36.7091 51.4999C36.7091 57.0483 32.8609 61.5618 28.1309 61.5618ZM28.1309 43.8169C24.7126 43.8169 21.9321 47.2633 21.9321 51.4999C21.9321 55.7366 24.7126 59.184 28.1309 59.184C31.5492 59.184 34.3298 55.7376 34.3298 51.5015C34.3298 47.2653 31.5487 43.8169 28.1309 43.8169Z" fill="#000215"/>
<path d="M26.9236 49.1528C26.923 49.2053 26.9053 49.2561 26.8731 49.2976C26.841 49.3391 26.7962 49.3689 26.7455 49.3825C26.6948 49.3961 26.6411 49.3928 26.5925 49.3731C26.5439 49.3533 26.5031 49.3182 26.4763 49.2731C25.7946 48.1441 24.621 45.9224 25.7306 45.5815C26.8402 45.2407 26.9461 47.8109 26.9236 49.1528Z" fill="#000215"/>
<path d="M29.8239 52.8101C29.7856 52.7737 29.7603 52.7256 29.752 52.6734C29.7437 52.6212 29.7528 52.5677 29.7779 52.5212C29.8029 52.4747 29.8426 52.4377 29.8908 52.4159C29.939 52.3941 29.993 52.3888 30.0445 52.4007C31.3326 52.6832 33.7498 53.3649 33.2355 54.4018C32.714 55.4479 30.7794 53.7493 29.8239 52.8101Z" fill="#000215"/>
<path d="M26.0762 52.4795C26.1148 52.4443 26.1639 52.4226 26.2159 52.4177C26.268 52.4129 26.3202 52.4251 26.3647 52.4526C26.4092 52.48 26.4435 52.5213 26.4624 52.57C26.4814 52.6187 26.484 52.6723 26.4698 52.7226C26.1115 53.9913 25.288 56.364 24.2819 55.7882C23.2757 55.2125 25.0813 53.3802 26.0762 52.4795Z" fill="#000215"/>
<path opacity="0.2" d="M38.8558 51.3602C38.8558 57.1082 34.8009 61.7691 29.7971 61.7691C26.7457 61.7691 24.0465 60.0341 22.4062 57.3764C24.1896 57.6904 26.026 57.4707 27.6849 56.7448C30.8928 55.3307 33.1785 52.1387 33.743 48.683C34.1396 46.2571 33.7261 43.7396 32.7005 41.4985C36.282 42.89 38.8558 46.7797 38.8558 51.3602Z" fill="#000215"/>
<path d="M38.7341 118.236C38.6931 118.552 38.5319 118.84 38.2841 119.04C38.0363 119.241 37.7209 119.338 37.4035 119.311L34.8184 118.621C34.8184 118.621 36.364 123.545 35.344 124.109C33.6505 125.042 29.6994 124.344 29.2803 123.014C29.1851 122.709 29.1989 122.276 29.2803 121.785C29.5484 120.173 30.529 117.98 30.529 117.98L28.3887 117.675L28.3606 117.672C28.1753 117.646 27.9985 117.578 27.8431 117.474C27.6878 117.369 27.558 117.231 27.4634 117.07C27.3688 116.908 27.3119 116.728 27.297 116.541C27.282 116.355 27.3093 116.167 27.3769 115.993C28.1902 113.886 30.2133 110.326 34.4862 110.929C35.4075 111.058 36.1373 111.346 36.7187 111.74C38.2919 112.807 38.7587 114.657 38.8257 116.269C38.8502 116.926 38.8195 117.584 38.7341 118.236Z" fill="#00AA54"/>
<path opacity="0.6" d="M38.8258 116.269C37.9399 114.85 36.579 113.729 35.0001 113.17C34.1342 112.863 33.1781 112.723 32.3009 112.994C31.5071 113.237 30.8479 113.796 30.3049 114.422C29.4692 115.381 28.8683 116.496 28.3877 117.675L28.3596 117.672C28.1744 117.646 27.9975 117.578 27.8421 117.474C27.6868 117.369 27.557 117.231 27.4624 117.07C27.3679 116.908 27.311 116.728 27.296 116.541C27.281 116.355 27.3083 116.167 27.3759 115.993C28.1892 113.886 30.2123 110.326 34.4853 110.929C35.4065 111.058 36.1368 111.346 36.7177 111.74C38.292 112.807 38.7587 114.657 38.8258 116.269Z" fill="white"/>
<path d="M33.2444 125.73C32.1257 125.73 30.9828 125.506 30.1138 125.158C29.0477 124.732 28.3855 124.13 28.146 123.372C27.7908 122.252 28.3159 120.377 28.8481 118.941L28.1941 118.849C27.8316 118.798 27.4852 118.665 27.1809 118.462C26.8767 118.258 26.6223 117.989 26.4368 117.673C26.2513 117.358 26.1395 117.004 26.1096 116.639C26.0798 116.274 26.1328 115.907 26.2646 115.566C27.8921 111.349 30.947 109.228 34.6493 109.749C38.5702 110.303 40.5349 113.533 39.9111 118.39C39.8314 119.009 39.5161 119.574 39.0308 119.966C38.5455 120.358 37.9275 120.549 37.3055 120.497C37.234 120.491 37.1631 120.479 37.0936 120.46L36.5189 120.307C37.4504 124.308 36.3654 124.906 35.9181 125.151C35.177 125.561 34.2199 125.73 33.2444 125.73ZM30.4071 122.616C30.8313 123.098 33.2363 123.627 34.505 123.184C34.5562 122.473 34.2051 120.641 33.6836 118.977C33.6199 118.773 33.612 118.557 33.6606 118.349C33.7093 118.142 33.8127 117.951 33.9601 117.798C34.1075 117.644 34.2934 117.532 34.4986 117.475C34.7037 117.418 34.9205 117.416 35.1263 117.471L37.5343 118.115C37.5389 118.112 37.5428 118.108 37.5457 118.103C37.5486 118.098 37.5505 118.093 37.5512 118.087C37.87 115.61 37.5681 112.564 34.3177 112.106C31.0509 111.645 29.3425 114.199 28.4832 116.422C28.4798 116.429 28.4783 116.437 28.4789 116.445C28.4794 116.453 28.482 116.461 28.4863 116.467C28.4904 116.474 28.496 116.48 28.5029 116.485C28.5098 116.489 28.5176 116.492 28.5257 116.493L30.6921 116.8C30.8747 116.826 31.0487 116.893 31.2006 116.998C31.3525 117.102 31.4781 117.24 31.5674 117.402C31.6567 117.563 31.7074 117.743 31.7153 117.927C31.7233 118.111 31.6884 118.294 31.6134 118.463C30.8748 120.119 30.3144 122.06 30.4071 122.618V122.616Z" fill="#000215"/>
<path opacity="0.2" d="M38.734 118.236C38.693 118.552 38.5318 118.84 38.284 119.04C38.0362 119.241 37.7208 119.338 37.4034 119.311L34.8183 118.621C34.8183 118.621 36.3639 123.545 35.3439 124.109C33.6504 125.042 29.6993 124.344 29.2802 123.014C29.185 122.709 29.1988 122.276 29.2802 121.785C30.2608 121.959 31.2419 121.945 32.0633 121.427C32.8986 120.899 33.3766 119.932 33.5414 118.957C33.6005 118.594 33.6275 118.226 33.6222 117.859C33.6204 117.681 33.6584 117.504 33.7334 117.343C33.8085 117.181 33.9187 117.038 34.0561 116.925C34.1935 116.811 34.3545 116.73 34.5273 116.686C34.7002 116.643 34.8806 116.639 35.0553 116.674C35.0947 116.682 35.1366 116.688 35.1755 116.696C35.7794 116.791 36.4612 116.645 36.8552 116.173C37.1818 115.782 37.2575 115.24 37.2647 114.729C37.284 113.707 37.0978 112.692 36.7171 111.744C39.0078 113.296 38.9546 116.507 38.734 118.236Z" fill="#000215"/>
<path d="M75.1726 92.5627C75.1316 92.8786 74.9704 93.1665 74.7226 93.3666C74.4748 93.5668 74.1594 93.6638 73.8419 93.6374L71.2569 92.947C71.2569 92.947 72.8025 97.871 71.7825 98.4355C70.0889 99.3685 66.1379 98.6699 65.7187 97.3397C65.6236 97.0352 65.6374 96.6022 65.7187 96.1114C65.9869 94.4993 66.9675 92.3057 66.9675 92.3057L64.8272 92.0012L64.7991 91.9982C64.6138 91.9718 64.4369 91.904 64.2816 91.7997C64.1262 91.6954 63.9964 91.5574 63.9019 91.396C63.8073 91.2346 63.7504 91.0539 63.7354 90.8674C63.7205 90.6809 63.7478 90.4934 63.8154 90.319C64.6286 88.2119 66.6517 84.6519 70.9247 85.2553C71.8459 85.3837 72.5757 85.6719 73.1571 86.066C74.7304 87.133 75.1972 88.9832 75.2642 90.5953C75.2886 91.2525 75.258 91.9106 75.1726 92.5627Z" fill="#00AA54"/>
<path opacity="0.6" d="M75.2643 90.5953C74.3783 89.1761 73.0175 88.0553 71.4386 87.4964C70.5726 87.1893 69.6166 87.0496 68.7394 87.3204C67.9456 87.5635 67.2864 88.1223 66.7434 88.7483C65.9076 89.7069 65.3068 90.8221 64.8262 92.0012L64.7981 91.9982C64.6128 91.9718 64.436 91.904 64.2806 91.7997C64.1253 91.6954 63.9955 91.5574 63.9009 91.396C63.8063 91.2346 63.7494 91.0539 63.7345 90.8674C63.7195 90.6809 63.7468 90.4934 63.8144 90.319C64.6277 88.2119 66.6508 84.6519 70.9237 85.2553C71.845 85.3837 72.5753 85.6719 73.1562 86.066C74.7304 87.133 75.1972 88.9832 75.2643 90.5953Z" fill="white"/>
<path d="M69.6829 100.056C68.5641 100.056 67.4213 99.8321 66.5523 99.4841C65.4862 99.0578 64.8239 98.4564 64.5844 97.6979C64.2292 96.5776 64.7544 94.7034 65.2866 93.2673L64.6325 93.1747C64.27 93.1237 63.9237 92.9915 63.6194 92.788C63.3151 92.5845 63.0608 92.3148 62.8753 91.9992C62.6898 91.6836 62.5779 91.3302 62.5481 90.9654C62.5183 90.6005 62.5713 90.2336 62.7031 89.8921C64.3306 85.6749 67.3855 83.5545 71.0878 84.0755C75.0086 84.6288 76.9734 87.8587 76.3495 92.7161C76.2699 93.3352 75.9546 93.8997 75.4693 94.2921C74.984 94.6846 74.366 94.8748 73.744 94.8232C73.6724 94.8171 73.6015 94.8047 73.5321 94.7863L72.9574 94.6328C73.8888 98.634 72.8038 99.2318 72.3565 99.4774C71.6155 99.8869 70.6584 100.056 69.6829 100.056ZM66.8455 96.9425C67.2698 97.4241 69.6747 97.9528 70.9435 97.5101C70.9946 96.7992 70.6436 94.9675 70.122 93.3027C70.0584 93.0994 70.0505 92.8827 70.0991 92.6753C70.1477 92.468 70.2512 92.2774 70.3986 92.1237C70.546 91.9699 70.7319 91.8585 70.9371 91.8011C71.1422 91.7437 71.359 91.7425 71.5648 91.7975L73.9728 92.4413C73.9774 92.438 73.9813 92.4338 73.9842 92.429C73.9871 92.4242 73.9889 92.4188 73.9897 92.4132C74.3085 89.9366 74.0066 86.8904 70.7562 86.4318C67.4894 85.9712 65.781 88.5256 64.9217 90.7483C64.9183 90.7554 64.9168 90.7633 64.9173 90.7712C64.9179 90.7791 64.9204 90.7867 64.9248 90.7933C64.9288 90.8004 64.9345 90.8065 64.9414 90.8109C64.9482 90.8154 64.9561 90.8181 64.9642 90.8189L67.1306 91.126C67.3131 91.1516 67.4872 91.2194 67.6391 91.3238C67.791 91.4282 67.9165 91.5665 68.0059 91.7277C68.0952 91.8889 68.1458 92.0687 68.1538 92.2528C68.1618 92.437 68.1269 92.6205 68.0518 92.7888C67.3133 94.4455 66.7529 96.3862 66.8455 96.9441V96.9425Z" fill="#000215"/>
<path opacity="0.2" d="M75.1725 92.5627C75.1315 92.8786 74.9703 93.1665 74.7225 93.3666C74.4747 93.5668 74.1593 93.6638 73.8418 93.6374L71.2568 92.947C71.2568 92.947 72.8024 97.871 71.7824 98.4355C70.0889 99.3685 66.1378 98.6699 65.7187 97.3397C65.6235 97.0352 65.6373 96.6022 65.7187 96.1114C66.6993 96.2849 67.6804 96.2711 68.5018 95.7532C69.337 95.225 69.8151 94.2582 69.9799 93.2827C70.0389 92.9199 70.066 92.5525 70.0607 92.185C70.0588 92.0067 70.0968 91.8304 70.1719 91.6687C70.247 91.5071 70.3572 91.3643 70.4946 91.2507C70.6319 91.1371 70.7929 91.0557 70.9658 91.0123C71.1387 90.969 71.319 90.9648 71.4937 91.0002C71.5331 91.0083 71.5751 91.014 71.614 91.0222C72.2179 91.1174 72.8996 90.971 73.2937 90.4996C73.6202 90.1086 73.696 89.5666 73.7031 89.0548C73.7225 88.0334 73.5363 87.0185 73.1555 86.0706C75.4463 87.6223 75.3931 90.8328 75.1725 92.5627Z" fill="#000215"/>
<path d="M40.1406 78.3148C40.1406 78.3148 43.2365 78.865 44.1418 78.3117C45.0585 77.7488 44.8461 74.6621 43.8317 73.57C43.2201 72.9103 39.8218 74.9835 39.8218 74.9835L39.8581 72.9215C39.8186 72.6794 39.6874 72.4616 39.4919 72.3134C39.2963 72.1652 39.0513 72.0978 38.8074 72.1252C37.1308 72.3207 33.758 73.1488 34.1265 76.6658C34.473 79.9776 37.5136 80.8298 39.2445 81.0447C39.3879 81.0629 39.5335 81.0485 39.6705 81.0025C39.8075 80.9565 39.9324 80.8801 40.0358 80.7791C40.1391 80.678 40.2183 80.5549 40.2674 80.419C40.3165 80.283 40.3342 80.1378 40.3192 79.994L40.1406 78.3148Z" fill="#00AA54"/>
<path d="M39.3645 82.2422C39.2751 82.2421 39.1857 82.2367 39.0969 82.2259C35.5 81.778 33.2573 79.7969 32.9426 76.7896C32.6068 73.5868 34.7477 71.4009 38.6685 70.9434C39.216 70.8798 39.767 71.0296 40.2069 71.3617C40.6468 71.6937 40.942 72.1825 41.0309 72.7265C41.0429 72.798 41.0482 72.8705 41.0468 72.943V72.9568C43.7122 71.6932 44.3857 72.4184 44.7031 72.7608C45.7128 73.8483 46.0537 75.9236 45.8618 77.3239C45.697 78.5235 45.1734 79.0753 44.7629 79.3266C44.005 79.7872 42.6738 79.8082 41.4808 79.6986L41.4992 79.8706C41.5304 80.1698 41.4984 80.4721 41.4054 80.7582C41.3123 81.0442 41.1603 81.3075 40.9591 81.5311C40.7579 81.7547 40.512 81.9335 40.2373 82.0561C39.9627 82.1787 39.6653 82.2423 39.3645 82.2428V82.2422ZM38.6603 73.3437C36.2508 73.6922 35.1233 74.7675 35.3091 76.5419C35.5425 78.7692 37.4381 79.5615 39.1015 79.824L38.9566 78.4386C38.9374 78.2553 38.961 78.07 39.0256 77.8973C39.0902 77.7247 39.1941 77.5695 39.329 77.4438C39.4639 77.3182 39.6261 77.2257 39.8029 77.1735C39.9797 77.1213 40.1662 77.111 40.3477 77.1432C41.5535 77.3567 42.945 77.4299 43.4415 77.3152C43.6334 76.8167 43.5357 75.4277 43.161 74.6825C42.5735 74.8514 41.4168 75.4047 40.4403 75.9994C40.2585 76.1103 40.0502 76.1704 39.8372 76.1733C39.6242 76.1762 39.4144 76.1219 39.2295 76.016C39.0447 75.9101 38.8917 75.7565 38.7866 75.5713C38.6814 75.3861 38.6279 75.176 38.6317 74.963L38.6603 73.3437Z" fill="#000215"/>
<path d="M58.8698 40.9769C58.6407 41.1982 58.3351 41.3227 58.0165 41.3246C57.698 41.3265 57.391 41.2056 57.1593 40.987L55.5694 38.8349C55.5694 38.8349 53.7062 43.6477 52.5568 43.4527C50.6511 43.1256 47.9986 40.1151 48.5007 38.814C48.6162 38.5166 48.8971 38.1868 49.2668 37.8539C50.482 36.7611 52.6167 35.6582 52.6167 35.6582L51.1337 34.0852L51.1136 34.0652C50.9853 33.9291 50.8893 33.7657 50.8329 33.5873C50.7766 33.4089 50.7612 33.2201 50.788 33.035C50.8147 32.8498 50.883 32.673 50.9876 32.5179C51.0922 32.3628 51.2305 32.2333 51.3922 32.1391C53.3421 30.9995 57.1439 29.4788 60.1074 32.6156C60.7474 33.2907 61.1381 33.9711 61.3467 34.6418C61.9108 36.4571 61.1217 38.1944 60.1685 39.4963C59.7777 40.0252 59.3432 40.5205 58.8698 40.9769Z" fill="#00AA54"/>
<path opacity="0.6" d="M60.1683 39.4966C60.3611 37.8348 59.9965 36.1099 59.111 34.6882C58.6257 33.9081 57.9656 33.2025 57.111 32.867C56.339 32.5619 55.4751 32.5876 54.6603 32.7381C53.4091 32.9661 52.2439 33.4629 51.1327 34.0849L51.1126 34.0649C50.9843 33.9288 50.8884 33.7654 50.832 33.587C50.7756 33.4086 50.7602 33.2198 50.787 33.0346C50.8138 32.8495 50.882 32.6727 50.9866 32.5176C51.0912 32.3625 51.2295 32.233 51.3912 32.1388C53.3411 30.9992 57.143 29.4785 60.1065 32.6153C60.7464 33.2904 61.1375 33.9711 61.3457 34.6415C61.9107 36.4575 61.1215 38.1947 60.1683 39.4966Z" fill="white"/>
<path d="M49.9046 43.4101C49.0302 42.7122 48.2767 41.8242 47.8145 41.0101C47.2472 40.0119 47.1046 39.1288 47.3905 38.3866C47.8117 37.2893 49.3911 36.152 50.7029 35.3615L50.2495 34.8811C49.9979 34.6151 49.8097 34.2958 49.6988 33.9469C49.5879 33.598 49.5573 33.2286 49.6091 32.8662C49.661 32.5038 49.794 32.1578 49.9983 31.854C50.2026 31.5503 50.4728 31.2965 50.7889 31.1118C54.6914 28.8307 58.4018 29.0788 60.9706 31.7954C63.6902 34.6734 63.2113 38.4235 59.6938 41.8311C59.2454 42.2653 58.6469 42.5098 58.0228 42.5139C57.3987 42.5179 56.797 42.2811 56.343 41.8528C56.2909 41.8034 56.2432 41.7495 56.2004 41.6919L55.8469 41.2134C54.0792 44.9218 52.8583 44.7123 52.3555 44.6253C51.5208 44.4831 50.6671 44.0185 49.9046 43.4101ZM49.6291 39.2065C49.6603 39.8475 51.2103 41.7608 52.4781 42.2062C52.9615 41.6824 53.8296 40.0318 54.4604 38.4052C54.5375 38.2066 54.6664 38.0323 54.8338 37.9005C55.0011 37.7688 55.2008 37.6843 55.4119 37.6561C55.6231 37.6278 55.8379 37.6568 56.034 37.7399C56.2302 37.823 56.4004 37.9572 56.527 38.1286L58.0075 40.1338C58.0132 40.1341 58.0188 40.1332 58.0241 40.1313C58.0294 40.1293 58.0342 40.1262 58.0383 40.1223C59.8322 38.3854 61.4963 35.8161 59.2417 33.4302C56.9756 31.0326 54.047 31.9635 51.989 33.1649C51.9819 33.1684 51.9758 33.1736 51.9713 33.1801C51.9668 33.1866 51.964 33.1942 51.9633 33.202C51.962 33.2101 51.9627 33.2184 51.9653 33.2261C51.9679 33.2339 51.9723 33.2409 51.9781 33.2466L53.4799 34.8379C53.6066 34.9718 53.7004 35.1333 53.754 35.3097C53.8076 35.486 53.8195 35.6724 53.7887 35.8541C53.758 36.0359 53.6854 36.208 53.5768 36.3569C53.4682 36.5058 53.3264 36.6275 53.1628 36.7122C51.5522 37.5465 49.9037 38.7139 49.6281 39.2077L49.6291 39.2065Z" fill="#000215"/>
<path opacity="0.2" d="M58.8693 40.9769C58.6402 41.1982 58.3347 41.3227 58.0161 41.3246C57.6976 41.3265 57.3906 41.2055 57.1589 40.9869L55.569 38.8349C55.569 38.8349 53.7058 43.6476 52.5564 43.4527C50.6507 43.1256 47.9982 40.1151 48.5003 38.814C48.6158 38.5166 48.8967 38.1868 49.2664 37.8539C49.9247 38.6011 50.7001 39.2023 51.6653 39.3098C52.6476 39.418 53.6242 38.9605 54.3615 38.3008C54.634 38.054 54.8843 37.7838 55.1094 37.4932C55.2191 37.3527 55.3588 37.2386 55.5183 37.159C55.6778 37.0795 55.8531 37.0366 56.0313 37.0336C56.2095 37.0305 56.3861 37.0672 56.5483 37.1412C56.7104 37.2151 56.854 37.3244 56.9685 37.4609C56.9942 37.4919 57.0235 37.5225 57.0488 37.5532C57.4615 38.0043 58.0856 38.3151 58.6876 38.1924C59.1867 38.0905 59.584 37.7141 59.9088 37.3185C60.5611 36.5323 61.0486 35.6228 61.3422 34.6444C62.1649 37.2861 60.1207 39.7623 58.8693 40.9769Z" fill="#000215"/>
<path d="M53.9644 57.2313C52.9408 57.4801 52.0754 58.2176 51.5109 59.1091C50.9464 60.0006 50.6562 61.0432 50.4873 62.0852C50.3419 62.9685 50.2826 63.8846 50.5231 64.7465C50.7636 65.6084 51.3532 66.4062 52.1916 66.7169C53.0299 67.0276 54.1031 66.7251 54.5166 65.9313C55.2685 64.4783 53.5555 62.6589 54.2096 61.1614C54.6036 60.256 55.7552 59.7918 55.9732 58.8281C56.0275 58.5694 56.0074 58.3007 55.9154 58.0529C55.8234 57.8051 55.6632 57.5884 55.4532 57.4279C55.0289 57.1141 54.4255 57.1198 53.9644 57.2313Z" fill="#DF3E08"/>
<path d="M26.2459 67.0729C24.7453 66.8523 23.2263 67.7439 22.4038 69.0177C21.5814 70.2916 21.3669 71.8797 21.4672 73.3941C21.5184 74.171 21.6546 74.9561 22.0179 75.646C22.3813 76.3359 22.999 76.9173 23.758 77.099C24.517 77.2807 25.4014 76.9818 25.7842 76.3026C26.1977 75.5733 25.9628 74.6592 25.6819 73.8685C25.4009 73.0778 25.081 72.217 25.3548 71.4237C25.5641 70.8172 26.0816 70.3812 26.5396 69.9313C26.9977 69.4814 27.4394 68.9251 27.4255 68.2854C27.4117 67.6456 26.6706 67.031 26.2459 67.0729Z" fill="#DF3E08"/>
<path d="M71.8571 33.3741C71.8182 34.8071 72.4748 36.2074 73.4693 37.2412C74.4637 38.2751 75.7693 38.9655 77.1332 39.4097C77.8538 39.6446 78.6338 39.8125 79.3687 39.6195C80.1036 39.4266 80.7603 38.7674 80.7239 38.0099C80.682 37.1547 79.838 36.5677 79.0248 36.2995C78.2115 36.0314 77.3144 35.928 76.6357 35.4085C76.06 34.9668 75.7247 34.2877 75.3562 33.6592C74.9878 33.0307 74.5149 32.4017 73.8209 32.1781C73.1269 31.9544 71.8832 32.3121 71.8571 33.3741Z" fill="#DF3E08"/>
<path d="M49.5207 96.4609C48.2883 96.9021 47.0137 97.215 45.717 97.3944C45.2088 97.464 44.6694 97.5254 44.2559 97.833C43.5936 98.3248 43.4928 99.3561 43.9207 100.063C44.3485 100.77 45.1781 101.158 45.9996 101.223C46.821 101.287 47.6373 101.063 48.4137 100.778C49.3655 100.429 50.2771 99.9784 51.1328 99.4344C51.6216 99.1237 52.1109 98.7522 52.3289 98.2158C52.594 97.5592 52.3458 96.7347 51.7613 96.3324C51.1769 95.9301 50.3867 96.1507 49.5207 96.4609Z" fill="#DF3E08"/>
<path d="M48.7156 129.024C48.5984 128.283 48.4597 127.534 48.1454 126.853C47.8312 126.171 47.3296 125.548 46.6505 125.229C45.9713 124.91 45.1023 124.944 44.5265 125.425C43.9508 125.906 43.7834 126.858 44.2614 127.437C44.5265 127.758 44.9319 127.931 45.2338 128.216C46.0445 128.968 45.9606 130.248 46.282 131.307C46.4719 131.93 46.8322 132.517 47.3747 132.874C47.9172 133.232 48.6485 133.335 49.2274 133.034C49.8062 132.732 50.1522 132.005 49.9341 131.393C49.7862 130.984 49.4341 130.687 49.1491 130.357C48.864 130.027 48.8021 129.572 48.7156 129.024Z" fill="#DF3E08"/>
<path d="M34.4806 29.7747C32.4124 29.6544 30.4645 30.7835 28.4557 31.2866C27.8186 31.4457 27.1281 31.6412 26.7341 32.1694C26.1557 32.9494 26.5524 34.1592 27.3656 34.6843C28.1789 35.2094 29.2434 35.1849 30.1743 34.9167C31.1053 34.6485 31.96 34.1674 32.8679 33.8266C33.4913 33.5947 34.1423 33.4243 34.7206 33.0916C35.2989 32.759 35.8046 32.2216 35.8941 31.566C35.9837 30.9104 35.5814 29.8382 34.4806 29.7747Z" fill="#DF3E08"/>
<path d="M88.7619 36.1542C88.1949 36.3415 87.5408 36.7525 87.3033 37.3001C87.1385 37.6829 87.225 38.1384 87.4292 38.5044C88.027 39.5832 89.525 39.9215 90.6817 39.4967C91.8383 39.0719 92.691 38.0545 93.2806 36.9705C93.5518 36.4731 93.7836 35.8804 93.5794 35.3522C93.3312 34.7012 92.498 34.4356 91.8194 34.5953C91.1407 34.755 90.6622 35.5283 88.7619 36.1542Z" fill="#DF3E08"/>
</svg>
