<svg width="58" height="72" viewBox="0 0 58 72" fill="none" xmlns="http://www.w3.org/2000/svg">
<path d="M27.165 64.1707C42.1678 64.1707 54.3299 52.0123 54.3299 37.0141C54.3299 22.0159 42.1678 9.85742 27.165 9.85742C12.1622 9.85742 0 22.0159 0 37.0141C0 52.0123 12.1622 64.1707 27.165 64.1707Z" fill="#FFEFC8"/>
<path d="M57.2095 12.7662C57.2049 13.3028 57.1287 13.8364 56.983 14.353C55.6837 19.0662 51.7516 18.3255 51.7516 18.3255C51.749 18.3315 51.7459 18.3374 51.7426 18.343C51.7302 18.3661 51.7062 18.4121 51.671 18.4812C51.5164 18.7767 51.1464 19.4847 50.6269 20.4932C48.5917 24.443 44.2547 33.0154 41.4496 39.6285C41.1439 40.3491 40.8193 41.1275 40.4785 41.9486C39.4206 44.4951 38.2068 47.4601 36.9024 50.4504C35.5432 53.5595 34.0897 56.6951 32.6116 59.4176C31.6631 61.1631 30.7059 62.7386 29.7588 64.0288C28.6569 65.5279 27.5689 66.6393 26.5262 67.1815C26.3402 67.2804 26.1456 67.3624 25.9449 67.4265C25.9173 67.4367 25.8883 67.4454 25.8606 67.453C25.8606 67.453 26.7149 71.1865 24.4945 71.4544C23.4983 71.5751 23.1583 70.6985 23.0355 69.5504C22.8832 68.1409 23.0585 66.3213 22.7524 65.4279C22.1965 63.8084 19.2202 63.9491 18.5611 58.6475C18.5611 58.6475 16.6517 56.2018 16.0995 53.2366C16.2608 54.2023 16.8895 58.5067 15.1234 58.5067C13.1334 58.5067 14.2618 54.3407 13.5686 51.0218C12.8754 47.7028 9.81137 39.4454 9.81137 39.4454C9.81137 39.4454 10.2843 44.3433 7.87413 44.2653C5.46392 44.1872 6.0288 40.4815 6.67916 37.5905C7.32952 34.6994 6.5824 29.5551 5.81501 25.7688C5.23654 22.9105 4.86655 18.8062 5.0527 16.3493C5.10683 15.6261 5.21119 15.0453 5.37108 14.6819C5.38743 14.6441 5.40494 14.6088 5.42268 14.5761C5.12254 14.4513 4.82979 14.3095 4.54586 14.1512C4.48804 14.1197 4.42768 14.0858 4.36479 14.0506C4.25789 13.9889 4.14593 13.9235 4.03143 13.8518C3.98236 13.8203 3.93076 13.789 3.88053 13.7562C3.85151 13.7374 3.82271 13.7199 3.79483 13.701C3.62389 13.589 3.44765 13.4658 3.27165 13.3325C3.24147 13.3095 3.21244 13.2864 3.18226 13.2634C3.09425 13.1943 3.00625 13.1252 2.91825 13.0497C2.88807 13.0243 2.85904 12.9992 2.83024 12.9741C2.77219 12.9251 2.71429 12.8736 2.65654 12.8194C2.56969 12.7401 2.48422 12.6581 2.40128 12.5729C2.34576 12.5165 2.29047 12.4578 2.23633 12.4007C2.06475 12.2143 1.90509 12.0173 1.7583 11.8108C1.71821 11.7544 1.67928 11.6957 1.64149 11.6386C1.6226 11.6098 1.60371 11.5808 1.58597 11.552C1.5399 11.4764 1.49382 11.3997 1.45143 11.3217C1.42839 11.2775 1.40536 11.2335 1.38232 11.1895C1.36596 11.1568 1.34845 11.1229 1.33325 11.0888C1.31805 11.0547 1.30307 11.026 1.28925 10.9933C1.27151 10.9557 1.25653 10.9179 1.24018 10.8802C0.233888 8.44053 0.940686 5.5686 3.13711 4.26714C5.33352 2.96567 11.8781 2.64739 14.3247 1.93321C16.7713 1.21903 23.3094 -0.627115 30.3776 1.59235C37.4458 3.81182 40.1376 2.90004 43.5527 3.08935C45.0759 3.17479 48.3187 3.9659 51.262 5.46842C52.8493 6.27749 54.3468 7.29337 55.4445 8.51838C55.4459 8.51838 55.4459 8.51838 55.4471 8.51838C56.5315 9.73048 57.2221 11.1471 57.2095 12.7662Z" fill="#DF3E08"/>
<path opacity="0.2" d="M57.2097 12.7662C56.8437 13.5861 56.2991 14.3093 55.5669 14.8498C53.3857 16.4606 49.7782 16.4456 48.6273 18.4426C48.6448 19.8408 48.6625 21.2523 48.3833 22.6236C48.1041 23.9948 47.5028 25.3412 46.4612 26.2742C45.5628 27.0777 44.3353 27.5945 43.8082 28.6786C43.2599 29.8039 43.6511 31.2048 43.153 32.3541C42.7077 33.3814 41.6535 33.9938 40.9631 34.8755C40.1107 35.9618 39.8549 37.4169 39.9328 38.795C39.9932 39.8614 40.2346 40.904 40.4788 41.9463C39.4209 44.4928 38.207 47.4578 36.9026 50.4481C36.1302 50.3136 35.4234 49.8887 35.0596 49.1971C35.4181 51.2127 34.013 53.3832 31.7954 53.8574C32.2822 55.6745 32.7704 57.5568 32.6119 59.4142C32.5895 59.6769 32.5533 59.9383 32.5036 60.1973C32.1979 61.7894 31.169 63.3373 29.7589 64.0263H29.7577C29.2985 64.254 28.7957 64.3806 28.2833 64.3974C27.9513 64.4075 27.609 64.3723 27.2927 64.4715C26.3076 64.7797 26.1408 66.1491 26.5027 67.1148C26.5101 67.1362 26.5191 67.1576 26.5278 67.179C26.4817 67.2041 26.4357 67.2267 26.3882 67.2493C26.2451 67.3174 26.0976 67.3758 25.9466 67.4241C25.9189 67.4342 25.8901 67.4429 25.8623 67.4505C25.8623 67.4505 26.7165 71.184 24.4964 71.4519C24.4375 71.4593 24.3783 71.463 24.319 71.4632C24.2874 71.4632 24.2572 71.462 24.2284 71.4595C24.2056 71.4582 24.183 71.4557 24.1605 71.4519C24.146 71.4511 24.1317 71.4489 24.1176 71.4454C24.0987 71.4431 24.0812 71.4392 24.0635 71.4355C24.0598 71.4342 24.0573 71.4342 24.0536 71.433C24.0343 71.4289 24.0154 71.4235 23.9969 71.4167C23.8745 71.38 23.761 71.3184 23.6635 71.2356C23.6486 71.223 23.6347 71.2105 23.6209 71.1965C23.5506 71.1296 23.4887 71.0545 23.4366 70.9726C23.4216 70.9496 23.4064 70.925 23.3926 70.8998C23.3788 70.8747 23.3638 70.8483 23.3512 70.8218C23.2581 70.6283 23.1884 70.4244 23.1438 70.2145C23.1362 70.1843 23.13 70.1541 23.1238 70.1239C23.1175 70.0938 23.1111 70.0636 23.106 70.0334C23.083 69.9088 23.0646 69.7801 23.0482 69.6486C23.0431 69.6159 23.0395 69.582 23.0369 69.5479C23.0282 69.46 23.0194 69.3706 23.0118 69.279C22.998 69.0979 22.9888 68.9105 22.9802 68.7207C22.9791 68.6601 22.9766 68.5986 22.974 68.5364C22.9729 68.5026 22.9715 68.4699 22.9715 68.4358C22.9715 68.3856 22.969 68.334 22.9678 68.2824C22.9614 67.9869 22.959 67.6889 22.9551 67.3996C22.9526 67.275 22.9514 67.1532 22.9475 67.0337V67.0196C22.945 66.9452 22.9425 66.8711 22.9402 66.7983C22.9388 66.7592 22.9376 66.7202 22.9351 66.6832C22.9326 66.6461 22.9312 66.6065 22.9286 66.5701C22.9199 66.4204 22.91 66.2757 22.8948 66.1399C22.8922 66.1097 22.8886 66.0784 22.8846 66.0494C22.8796 66.013 22.8745 65.9766 22.8697 65.9413C22.8672 65.9168 22.8633 65.8924 22.8581 65.8683C22.8358 65.719 22.8009 65.5717 22.7538 65.4282C22.1979 63.8087 19.2216 63.9494 18.5625 58.6477C18.5625 58.6477 16.6532 56.2021 16.1009 53.2369C16.2622 54.2026 16.8909 58.507 15.1248 58.507C13.1348 58.507 14.2632 54.341 13.57 51.022C12.8768 47.7031 9.81278 39.4457 9.81278 39.4457C9.81278 39.4457 10.2857 44.3436 7.87554 44.2655C5.46533 44.1875 6.03021 40.4818 6.68057 37.5908C7.33092 34.6997 6.58381 29.5554 5.81642 25.7691C5.29692 23.1975 4.94352 19.6162 5.01402 17.1351C5.01655 17.0624 5.01909 16.9893 5.02139 16.9189C5.02646 16.7807 5.03406 16.646 5.04282 16.5151C5.04681 16.4586 5.05057 16.4034 5.0541 16.3493C5.05917 16.2763 5.06562 16.2058 5.07184 16.1367C5.08935 15.9456 5.11078 15.7683 5.13727 15.5999C5.14234 15.5647 5.14718 15.5294 5.15363 15.4953C5.16607 15.4161 5.18127 15.3383 5.19625 15.265C5.21767 15.1683 5.2391 15.0778 5.26306 14.9935C5.27181 14.962 5.28057 14.9306 5.29185 14.9014C5.29946 14.8763 5.30706 14.8523 5.31489 14.8298C5.32365 14.8033 5.33263 14.7782 5.34254 14.7531C5.35244 14.728 5.36143 14.7052 5.37156 14.6826C5.38792 14.6448 5.40543 14.6096 5.42317 14.5769C5.12303 14.4521 4.83028 14.3102 4.54635 14.152C4.48853 14.1204 4.42817 14.0866 4.36528 14.0513C4.25838 13.9896 4.14642 13.9242 4.03192 13.8526C3.98285 13.8212 3.93124 13.7897 3.88102 13.757C3.85199 13.7381 3.8232 13.7206 3.79532 13.7017C3.62438 13.5898 3.44814 13.4666 3.27213 13.3332C3.24195 13.3102 3.21293 13.2872 3.18275 13.2641C3.09474 13.195 3.00674 13.1259 2.91874 13.0504C2.88856 13.0253 2.85953 13 2.83073 12.9749C2.77268 12.9259 2.71477 12.8744 2.65703 12.8203C2.57017 12.7411 2.4847 12.6591 2.40177 12.5737C2.34625 12.5172 2.29096 12.4585 2.23682 12.4014C2.06529 12.2151 1.90564 12.0181 1.75878 11.8118C1.7187 11.7552 1.67976 11.6967 1.64198 11.6395C1.62309 11.6105 1.6042 11.5815 1.58646 11.5527C1.54039 11.4772 1.49431 11.4005 1.45192 11.3224C1.42888 11.2784 1.40585 11.2344 1.38281 11.1902C1.36645 11.1575 1.34894 11.1237 1.33374 11.0898C1.31853 11.0559 1.30356 11.0269 1.28974 10.9942C1.272 10.9564 1.25702 10.9187 1.24066 10.8809C0.234376 8.4415 0.941175 5.56934 3.13759 4.26787C5.33401 2.96641 11.8786 2.64812 14.3252 1.93394C16.7718 1.21976 23.3099 -0.626383 30.3781 1.59309C37.4463 3.81256 40.1381 2.901 43.5532 3.09008C43.743 3.10022 43.9607 3.12279 44.201 3.15549C44.2614 3.16317 44.3228 3.172 44.3853 3.18198C44.603 3.21468 44.8368 3.25613 45.0847 3.30634C45.14 3.31647 45.1967 3.32937 45.2534 3.34043C45.4223 3.37543 45.5971 3.41481 45.7777 3.45857C45.8383 3.47239 45.8987 3.48736 45.9602 3.50256C46.0823 3.53273 46.2067 3.56405 46.3338 3.59814C46.3979 3.61449 46.4608 3.632 46.5251 3.64973C46.8206 3.73018 47.125 3.81985 47.4383 3.91873C47.5125 3.94176 47.5866 3.96479 47.6622 3.99035C47.7288 4.01177 47.7967 4.03319 47.8647 4.05714C48.3363 4.21306 48.8205 4.38901 49.3087 4.58524C49.4009 4.62301 49.4949 4.66078 49.5879 4.70039C49.681 4.74 49.7755 4.77708 49.8685 4.81854C49.9616 4.85999 50.0547 4.89914 50.1489 4.9406C50.3364 5.02236 50.5237 5.10895 50.7112 5.19831C50.8034 5.2423 50.8937 5.28629 50.9854 5.33166C51.0771 5.37703 51.1697 5.42378 51.2619 5.46985C51.3614 5.52028 51.4595 5.57187 51.5588 5.62461C51.8532 5.78053 52.1449 5.94405 52.4306 6.11632C52.5262 6.17297 52.6205 6.23078 52.7135 6.28974C52.8079 6.34778 52.901 6.40812 52.9927 6.46846C53.0897 6.53133 53.1864 6.59536 53.282 6.66076C53.3652 6.71742 53.4456 6.77592 53.526 6.83188C53.6231 6.90097 53.7187 6.97137 53.8128 7.04307C53.8895 7.09973 53.9651 7.15823 54.0407 7.21788C54.0521 7.22599 54.0631 7.23483 54.0734 7.24436C54.2331 7.37011 54.3882 7.49877 54.5387 7.63036C54.5475 7.63796 54.5551 7.64417 54.5618 7.65177C54.6373 7.71718 54.7115 7.78374 54.7832 7.85168C54.7958 7.86297 54.8085 7.87471 54.8198 7.88554C54.8852 7.94588 54.9507 8.00875 55.0135 8.07162C55.0725 8.12828 55.1303 8.18678 55.1859 8.24528C55.2223 8.28166 55.2589 8.31943 55.2928 8.3572C55.3444 8.41133 55.3946 8.46522 55.4437 8.52072C55.445 8.52072 55.445 8.52072 55.4462 8.52072C55.4803 8.55849 55.5128 8.59626 55.5455 8.63403C55.6109 8.70927 55.6751 8.78604 55.7381 8.86434C55.9942 9.1789 56.2239 9.51406 56.4248 9.86641C56.4663 9.93826 56.5066 10.0099 56.5444 10.0827C56.8587 10.6771 57.0669 11.3218 57.1595 11.9878C57.1947 12.2457 57.2114 12.5059 57.2097 12.7662Z" fill="#000215"/>
<path d="M46.7277 18.1658C46.9883 19.9852 47.4209 22.3619 45.8422 22.9101C44.2634 23.4582 43.6838 21.9695 43.6838 21.9695C43.6838 21.9695 43.7706 25.0757 42.1693 28.4858C40.5679 31.896 38.7 33.6065 38.3994 37.272C38.0987 40.9376 39.8447 46.0154 37.0749 46.8655C34.3051 47.7155 34.6246 43.6124 34.6246 43.6124C34.6246 43.6124 33.7918 46.0808 33.611 47.8374C33.4301 49.5939 33.7506 51.0603 32.7519 51.517C31.7532 51.9737 31.0109 50.6932 30.9644 49.4212C30.9644 49.4212 30.226 52.0858 30.6188 55.2447C31.0116 58.4036 31.0439 61.1625 29.4476 62.0892C28.2337 62.7958 27.5444 61.4819 26.5973 61.6516C25.0186 61.937 25.3432 65.399 25.7998 67.343C25.85 67.5542 25.9168 67.8358 25.9733 68.1553C26.1986 69.4153 26.2651 71.24 24.494 71.4537C24.4352 71.4611 24.3761 71.4649 24.3168 71.465C24.2853 71.465 24.2551 71.4639 24.2263 71.4613C24.2035 71.4601 24.1808 71.4576 24.1583 71.4537C24.1439 71.4529 24.1295 71.4508 24.1155 71.4473C24.0966 71.445 24.0791 71.4411 24.0614 71.4374C24.0577 71.436 24.0537 71.436 24.0514 71.4348C24.0322 71.4308 24.0132 71.4253 23.9948 71.4185C23.8723 71.3819 23.7588 71.3202 23.6614 71.2375C23.6465 71.2252 23.6322 71.2121 23.6186 71.1983C23.5482 71.1315 23.4864 71.0563 23.4343 70.9745C23.4193 70.9514 23.4041 70.9268 23.3903 70.9017C23.3751 70.8764 23.3612 70.8503 23.3488 70.8236C23.2557 70.6302 23.1861 70.4263 23.1415 70.2163C23.1339 70.1861 23.1276 70.156 23.1214 70.1258C23.1152 70.0956 23.1099 70.0654 23.1037 70.0353C23.0806 69.9121 23.0608 69.7838 23.0458 69.6504C23.0422 69.6166 23.0382 69.5839 23.0346 69.5498C22.8823 68.1403 23.0576 66.3207 22.7514 65.4273C22.1955 63.8078 19.2193 63.9485 18.5602 58.6468C18.5602 58.6468 16.7377 56.3117 16.1389 53.4396C16.1251 53.3716 16.1113 53.3039 16.0986 53.236C16.1099 53.3065 16.1251 53.3956 16.1401 53.4988C16.2407 54.1565 16.3967 55.4152 16.3186 56.5066C16.2433 57.589 15.9376 58.5061 15.1225 58.5061C14.5627 58.5061 14.2496 58.1765 14.0733 57.6296C13.6229 56.23 14.0657 53.4069 13.5665 51.0197C12.988 48.242 10.7465 42.006 10.0307 40.0456C9.89106 39.6633 9.80928 39.4434 9.80928 39.4434C9.80928 39.4434 10.2822 44.3413 7.87203 44.2632C6.84685 44.2294 6.36007 43.5403 6.19028 42.5359C5.9599 41.1803 6.30547 39.2501 6.67822 37.5889C7.32995 34.6993 6.58146 29.5535 5.81407 25.7673C5.0658 22.0665 4.66449 16.2756 5.37014 14.6801C5.38649 14.6423 5.404 14.6071 5.42174 14.5743C5.12172 14.4493 4.82899 14.3074 4.54492 14.1494C7.85683 10.8194 20.2051 1.31534 44.9893 12.9055C45.6662 13.2224 46.3521 13.5549 47.0473 13.9028C47.0473 13.9028 46.4681 16.3461 46.7277 18.1658Z" fill="#FFD91F"/>
<path opacity="0.2" d="M56.9834 14.3529C55.684 19.0662 51.7519 18.3255 51.7519 18.3255C51.7493 18.3315 51.7463 18.3374 51.743 18.343C51.7305 18.366 51.7066 18.4121 51.6713 18.4812C51.5167 18.7767 51.1467 19.4846 50.6272 20.4932C49.5417 20.3713 48.4324 20.0832 47.387 19.6896C47.2273 19.6293 47.0688 19.5664 46.9103 19.5024C47.0801 20.9962 47.0525 22.4913 45.8423 22.9109C44.2638 23.4581 43.6839 21.9703 43.6839 21.9703C43.6839 21.9703 43.7707 25.0765 42.1694 28.4867C40.568 31.8968 38.7001 33.6073 38.3995 37.2729C38.0989 40.9384 39.8449 46.0163 37.0751 46.8663C34.3052 47.7164 34.6245 43.6112 34.6245 43.6112C34.6245 43.6112 33.7919 46.0796 33.6109 47.8361C33.4298 49.5927 33.7505 51.0591 32.7518 51.5158C31.7531 51.9725 31.0108 50.6919 30.9643 49.42C30.9643 49.42 30.2259 52.0846 30.6187 55.2435C31.0115 58.4024 31.044 61.1612 29.4477 62.088C28.2339 62.7946 27.5446 61.4807 26.5975 61.6504C25.0187 61.9358 25.3433 65.3977 25.7999 67.3418C25.8501 67.553 25.917 67.8346 25.9734 68.1541C26.098 69.2494 26.1006 71.2588 24.4941 71.4525C24.4354 71.4599 24.3762 71.4637 24.317 71.4638C24.2854 71.4638 24.2552 71.4626 24.2262 71.4601C24.2035 71.4589 24.1809 71.4563 24.1585 71.4525C24.144 71.4517 24.1297 71.4496 24.1156 71.4461C24.0967 71.4438 24.079 71.4398 24.0615 71.4362C24.0578 71.4348 24.0539 71.4348 24.0514 71.4336C24.0322 71.4295 24.0133 71.424 23.9949 71.4173C23.8725 71.3807 23.7589 71.319 23.6616 71.2363C23.6466 71.2239 23.6323 71.2109 23.6187 71.1971C23.5484 71.1303 23.4865 71.0551 23.4344 70.9732C23.4192 70.9502 23.4042 70.9256 23.3904 70.9005C23.3752 70.8752 23.3614 70.8491 23.3489 70.8224C23.2557 70.629 23.1861 70.4251 23.1416 70.2151C23.134 70.1849 23.1278 70.1547 23.1213 70.1246C23.1149 70.0944 23.11 70.0642 23.1038 70.0341C23.0748 69.8781 23.0536 69.7171 23.0347 69.5504V69.549C23.583 69.3648 24.0534 69.0246 24.3303 68.5771C24.8761 67.6955 24.8473 66.5765 24.6775 65.5527C24.5077 64.529 24.2168 63.5081 24.3002 62.4733C24.3836 61.4385 24.9604 60.3531 25.9566 60.0627C26.821 59.8093 27.944 60.1394 28.5115 59.4408C28.7504 59.1479 28.8045 58.7499 28.8499 58.3745C29.2157 55.3312 29.4719 51.6532 30.1416 48.3159C30.1643 48.2038 30.2145 48.0991 30.2878 48.0113C30.3611 47.9235 30.4551 47.8553 30.5613 47.8128C30.6675 47.7704 30.7826 47.7551 30.8963 47.7682C31.0099 47.7814 31.1185 47.8226 31.2122 47.8882C33.0091 49.1394 33.0285 46.7489 33.231 45.2827C33.4095 43.99 33.9316 42.7724 34.2776 41.5128C34.4688 40.8161 34.6022 40.0805 34.592 39.3599C34.8335 40.5408 35.0745 41.7216 35.3152 42.9023C35.3719 43.1786 35.4435 43.4794 35.6714 43.6469C36.2374 44.0614 36.9078 43.253 37.0877 42.5741C37.9468 39.321 37.0877 35.7975 37.9657 32.5493C39.1079 28.3254 43.0146 25.1854 43.8046 20.8824C44.006 21.1767 44.4978 21.1201 44.7432 20.8559C44.9885 20.5917 45.045 20.2083 45.074 19.8488C45.074 19.8423 45.074 19.8361 45.074 19.8285C45.1281 19.1394 44.7545 18.4893 44.147 18.1574C43.0437 17.5563 41.9607 16.9137 40.8551 16.3188C38.64 15.1282 36.289 14.1146 33.7984 13.7661C30.6385 13.3249 27.4448 13.9734 24.2674 14.2617C21.0901 14.5501 17.6761 14.4202 15.0259 12.6445C13.6206 14.4729 11.7137 15.6864 9.62834 16.2233C8.13096 16.606 6.56678 16.6481 5.05097 16.3465C5.10488 15.6235 5.20947 15.0425 5.36912 14.6791C5.38548 14.6413 5.40299 14.6063 5.42073 14.5736C5.12056 14.4487 4.82781 14.3068 4.54391 14.1484C4.48608 14.1171 4.42573 14.083 4.36283 14.0478C4.25594 13.9863 4.14397 13.9209 4.02948 13.8493C3.98041 13.8177 3.9288 13.7864 3.87858 13.7537C3.84955 13.7348 3.82075 13.7171 3.79311 13.6982C3.62194 13.5865 3.44593 13.463 3.26969 13.3297C3.23951 13.3067 3.21072 13.2836 3.18054 13.2606C3.0923 13.1929 3.0043 13.1224 2.91629 13.0469C2.88611 13.0218 2.85709 12.9967 2.82829 12.9716C2.77039 12.9226 2.71249 12.871 2.65458 12.8168C2.56796 12.7376 2.48226 12.6556 2.39933 12.5704C2.34403 12.5137 2.28851 12.4552 2.23461 12.3981C2.06301 12.2117 1.90335 12.0147 1.75657 11.8083C1.71626 11.7516 1.67732 11.6931 1.63954 11.636C1.62065 11.6072 1.60176 11.5782 1.58425 11.5492C1.53817 11.4739 1.4921 11.3972 1.44948 11.3189C1.42644 11.2749 1.4034 11.2309 1.38037 11.1869C1.36401 11.1542 1.3465 11.1201 1.3313 11.0863C1.31609 11.0524 1.30112 11.0234 1.28729 10.9907C1.26979 10.9529 1.25458 10.9152 1.23822 10.8776C0.231935 8.43797 0.938732 5.56581 3.13515 4.26435C5.33157 2.96288 11.8761 2.64483 14.3227 1.93041C16.7694 1.216 23.3075 -0.62968 30.3757 1.58979C37.4439 3.80926 40.1356 2.89747 43.5507 3.08679C45.8953 3.21737 52.3131 5.02137 55.4426 8.5165C55.444 8.5165 55.444 8.5165 55.4451 8.51789C56.8728 10.1107 57.6185 12.0556 56.9834 14.3529Z" fill="#000215"/>
<path d="M24.3172 72C24.2729 72 24.2303 71.9982 24.1893 71.9949C24.1564 71.9929 24.1232 71.9894 24.0909 71.9846C24.0713 71.9825 24.0448 71.9793 24.0163 71.9733C23.9932 71.9694 23.9702 71.9648 23.9472 71.9599L23.9308 71.9562C23.8961 71.9484 23.8619 71.9387 23.8283 71.9272C23.6401 71.869 23.4656 71.7733 23.3152 71.646C23.2922 71.6278 23.2692 71.6059 23.2461 71.5822C23.1467 71.4867 23.059 71.3796 22.9849 71.2633C22.9642 71.2308 22.9453 71.2001 22.9275 71.1686C22.9063 71.1329 22.887 71.096 22.869 71.0587C22.7576 70.8281 22.6741 70.585 22.6202 70.3347C22.6137 70.3086 22.6057 70.2715 22.5972 70.2342C22.5886 70.1969 22.5826 70.1651 22.5767 70.1297C22.552 70.0012 22.5306 69.8669 22.5149 69.7204C22.5092 69.6801 22.5043 69.6384 22.5011 69.5967C22.4921 69.5076 22.4834 69.4171 22.4757 69.3241C22.4608 69.1444 22.4497 68.9477 22.4428 68.7398C22.4414 68.6785 22.4391 68.623 22.437 68.5666C22.437 68.5666 22.437 68.55 22.437 68.5493C22.4357 68.5138 22.4345 68.4802 22.4343 68.4438L22.4308 68.296C22.426 68.0744 22.4235 67.8529 22.4209 67.6348L22.4159 67.2881C22.4145 67.208 22.4131 67.129 22.4108 67.0512C22.4108 67.0456 22.4108 67.0401 22.4108 67.0343V67.0284L22.4013 66.7679C22.4013 66.7469 22.3993 66.7262 22.3986 66.705L22.3933 66.6051C22.3857 66.4761 22.376 66.331 22.3613 66.1986L22.3599 66.1841C22.358 66.161 22.3553 66.1392 22.3525 66.118L22.3382 66.0166C22.337 66.0088 22.3361 66.0011 22.3354 65.9936C22.3349 65.9887 22.3342 65.9839 22.3331 65.9791C22.3313 65.9706 22.3297 65.9621 22.3283 65.9535C22.3108 65.8342 22.2833 65.7165 22.2461 65.6018C22.1138 65.2163 21.7484 64.9392 21.2428 64.5558C20.0989 63.6882 18.5379 62.5042 18.0484 58.8566C17.5905 58.2247 17.182 57.5585 16.8262 56.864C16.7451 57.5363 16.5663 58.1307 16.2337 58.5238C15.9469 58.8628 15.563 59.042 15.1237 59.042C14.5445 59.042 13.7919 58.7815 13.4943 57.5397C13.318 56.805 13.3118 55.8654 13.3047 54.7776C13.297 53.6153 13.2883 52.2975 13.0446 51.1303C12.6091 49.0407 11.1965 44.903 10.2388 42.2026C10.1006 42.9475 9.84231 43.6796 9.37833 44.1741C8.97632 44.6024 8.45014 44.8189 7.85784 44.7994C7.16878 44.7763 6.60089 44.5013 6.21524 44.003C5.17301 42.6557 5.60129 39.9456 6.15765 37.4721C6.83772 34.4567 5.90654 28.9114 5.2912 25.8743C4.74313 23.1616 4.40885 19.5614 4.4782 17.1188L4.4858 16.899C4.4911 16.7542 4.49893 16.6142 4.50884 16.478L4.52012 16.3108C4.52542 16.2344 4.5321 16.16 4.53879 16.087C4.55791 15.8774 4.58071 15.6906 4.6079 15.5154C4.61297 15.4794 4.61873 15.4412 4.62541 15.4039C4.639 15.3184 4.65536 15.2346 4.67148 15.1559C4.69245 15.0545 4.71756 14.9536 4.74474 14.8565C4.61274 14.792 4.45861 14.7132 4.28906 14.6202C4.2393 14.5932 4.18539 14.563 4.1294 14.5317L4.10406 14.5174C3.98588 14.4483 3.86839 14.3806 3.74813 14.3053L3.6804 14.2627C3.65022 14.2438 3.61981 14.2247 3.58986 14.2051L3.56014 14.186C3.5371 14.172 3.51591 14.1579 3.49448 14.1432C3.31018 14.0223 3.12265 13.8899 2.94734 13.7565L2.86187 13.6913C2.74783 13.6034 2.65706 13.5301 2.57044 13.4557C2.54464 13.4343 2.51423 13.4078 2.48359 13.3813C2.42046 13.3277 2.35619 13.2706 2.29191 13.2107C2.2069 13.1328 2.11406 13.0432 2.02053 12.9484C1.96109 12.8877 1.90296 12.827 1.84613 12.7662C1.65819 12.5625 1.4833 12.3471 1.32248 12.1213C1.27848 12.0594 1.2354 11.9956 1.19393 11.932C1.16905 11.894 1.14786 11.8629 1.12966 11.8311C1.07967 11.7503 1.02991 11.6658 0.982909 11.5799C0.955954 11.5304 0.931534 11.4829 0.907114 11.4355L0.893983 11.4097C0.878548 11.3788 0.862652 11.347 0.847908 11.3155C0.830629 11.2793 0.814964 11.2464 0.800219 11.2118C0.787318 11.1837 0.775338 11.1559 0.763589 11.1276L0.749305 11.0942C-0.392676 8.32587 0.518928 5.19691 2.86463 3.80747C4.32154 2.94451 7.42611 2.5067 10.1635 2.12047C11.7687 1.89385 13.2848 1.6799 14.175 1.42011C16.4081 0.767188 23.204 -1.22036 30.5385 1.08248C35.7089 2.70706 38.5029 2.62554 40.9679 2.55644C41.851 2.53111 42.6847 2.50739 43.5829 2.55644C43.7801 2.56681 44.0064 2.58961 44.2729 2.62554C44.334 2.63337 44.4015 2.64281 44.4704 2.65386C44.6943 2.68749 44.9385 2.73102 45.1917 2.78237C45.2205 2.78744 45.2608 2.79573 45.3009 2.80425L45.3587 2.816C45.5517 2.8563 45.7289 2.89615 45.9047 2.93898C45.9508 2.94935 46.0033 2.96201 46.0567 2.9756L46.0883 2.9832C46.2143 3.01452 46.3417 3.04677 46.4723 3.08154C46.5223 3.09421 46.5772 3.10918 46.6324 3.12461L46.667 3.13405C46.9771 3.21835 47.2916 3.31116 47.6005 3.40927C47.6733 3.4323 47.7518 3.45648 47.8309 3.4832L47.8504 3.48942C47.9138 3.50968 47.9781 3.53018 48.0424 3.55298C48.5285 3.7142 49.0249 3.89499 49.508 4.08914L49.5274 4.09697C49.6165 4.13313 49.7054 4.16928 49.7946 4.20659C49.8838 4.2439 49.984 4.28421 50.081 4.32727C50.1586 4.35975 50.2362 4.39406 50.3146 4.42861L50.3641 4.45164C50.5362 4.52672 50.7256 4.61285 50.94 4.71603C51.0352 4.76209 51.1273 4.80654 51.2211 4.8526C51.3149 4.89867 51.4086 4.94588 51.5031 4.99378C51.6051 5.04537 51.7065 5.09857 51.809 5.15315C52.1258 5.32082 52.4278 5.49125 52.7061 5.65983C52.8026 5.71695 52.9017 5.77775 52.9994 5.8397C53.0915 5.89613 53.1892 5.95946 53.2857 6.02395C53.3823 6.08843 53.4841 6.15407 53.5834 6.22201C53.6447 6.2637 53.7057 6.30676 53.7661 6.3496L53.8331 6.39704C53.9373 6.47143 54.0372 6.5449 54.1358 6.61998C54.207 6.67226 54.2828 6.73145 54.3588 6.7911C54.3819 6.80791 54.401 6.82357 54.4148 6.83555C54.5779 6.96429 54.7374 7.09718 54.8901 7.23029C54.9012 7.23974 54.9117 7.24895 54.9221 7.25862C54.9984 7.32495 55.0732 7.39243 55.1458 7.46106C55.1606 7.47419 55.1751 7.48778 55.1889 7.50091C55.2559 7.56309 55.323 7.62757 55.3877 7.69229C55.4501 7.75217 55.5114 7.81343 55.5704 7.87654C55.6093 7.91592 55.6483 7.95622 55.6856 7.99676C55.7317 8.04581 55.7777 8.0951 55.8238 8.1453L55.834 8.15567C55.8376 8.15935 55.8413 8.16327 55.845 8.16741C55.8809 8.20749 55.9155 8.24733 55.9503 8.28717C56.0194 8.36847 56.0885 8.45 56.1556 8.53291C56.4303 8.8703 56.6769 9.22972 56.8928 9.60752C56.9345 9.67984 56.9764 9.75676 57.0183 9.83507C57.3706 10.511 57.5963 11.2114 57.6917 11.9212C57.7314 12.2051 57.7494 12.4915 57.7456 12.7782C57.7402 13.3611 57.6576 13.9408 57.4998 14.502C56.3422 18.7014 53.1892 18.9492 52.0611 18.897C51.0753 20.7818 45.3815 31.735 41.9433 39.8422C41.6164 40.6128 41.2697 41.4456 40.9739 42.1587C40.7844 42.6148 40.59 43.0835 40.3908 43.5647C39.4873 45.7363 38.4658 48.2035 37.3932 50.6632C35.7962 54.3205 34.3895 57.2604 33.0934 59.6498C33.0899 59.6574 33.086 59.6648 33.0821 59.6728C32.0641 61.5461 31.0912 63.1182 30.1904 64.3453C30.1837 64.3543 30.177 64.3628 30.1699 64.3713C28.9507 66.0272 27.8394 67.1018 26.773 67.6559C26.7269 67.6806 26.6739 67.7068 26.6207 67.7329C26.5675 67.7589 26.5198 67.7789 26.4693 67.802C26.5894 68.5887 26.7085 70.1433 26.0118 71.1336C25.6711 71.6172 25.1686 71.9127 24.5586 71.9857C24.4785 71.9953 24.3978 72.0001 24.3172 72V72ZM24.2517 70.9291H24.2545H24.2517ZM24.2183 70.9215C24.2296 70.9215 24.2414 70.9245 24.2499 70.9256L24.2729 70.9275C24.3255 70.9306 24.3783 70.9288 24.4305 70.9219C24.744 70.8839 24.968 70.7554 25.1359 70.5171C25.6766 69.7499 25.466 68.1302 25.3393 67.5707C25.3087 67.4361 25.3313 67.2949 25.4024 67.1765C25.4734 67.0581 25.5874 66.9717 25.7206 66.9353C25.7347 66.9314 25.7494 66.9273 25.7635 66.9222C25.7699 66.9197 25.7764 66.9176 25.7828 66.9155C25.9109 66.8744 26.0362 66.8248 26.1576 66.767C26.1927 66.7499 26.2325 66.7308 26.2728 66.7094C27.1907 66.2322 28.2156 65.2248 29.3274 63.711C29.3336 63.7023 29.3403 63.6937 29.3472 63.6855C30.2109 62.5056 31.1474 60.9909 32.1313 59.1816C32.1348 59.1744 32.1385 59.1671 32.1424 59.1599C33.427 56.7937 34.8238 53.8746 36.4129 50.2351C37.4816 47.7853 38.5017 45.3222 39.402 43.1492C39.6017 42.668 39.7961 42.199 39.9854 41.742C40.2821 41.0281 40.6304 40.1923 40.958 39.4182C44.5332 30.989 50.5265 19.5123 51.1981 18.2316L51.2188 18.1918C51.2362 18.1583 51.2502 18.1313 51.261 18.1109C51.3467 17.862 51.5904 17.7498 51.8521 17.7993C51.9903 17.8242 55.3211 18.3712 56.4682 14.2109C56.601 13.7397 56.6708 13.253 56.6755 12.7634C56.6754 12.7617 56.6754 12.76 56.6755 12.7584C56.6784 12.5249 56.6636 12.2915 56.6313 12.0603C56.5468 11.455 56.3575 10.8691 56.0717 10.3288C56.0381 10.2662 56.0026 10.1996 55.9637 10.1333C55.7763 9.80493 55.5622 9.49251 55.3237 9.19919C55.2644 9.12595 55.2043 9.05402 55.1433 8.98339C55.1186 8.95506 55.0942 8.92697 55.0696 8.8991C55.061 8.89081 55.053 8.88229 55.0451 8.87331C55.0004 8.82287 54.9544 8.77358 54.9069 8.7243L54.8965 8.71301C54.8687 8.68215 54.8387 8.65106 54.8088 8.62089C54.8046 8.61697 54.8007 8.61283 54.797 8.60868C54.7482 8.55663 54.697 8.50574 54.645 8.45599L54.6367 8.4477C54.5789 8.38989 54.5185 8.33254 54.4584 8.27658C54.4531 8.27174 54.448 8.26668 54.4429 8.26161L54.4275 8.24756L54.4167 8.23766C54.3508 8.17524 54.2824 8.11398 54.213 8.05341C54.2068 8.04811 54.2006 8.04259 54.1946 8.03683L54.1872 8.03038C54.0451 7.90625 53.8956 7.78234 53.743 7.66189C53.7358 7.65636 53.7289 7.6506 53.7223 7.64462L53.7115 7.63633C53.6361 7.57737 53.5668 7.52301 53.4963 7.47097C53.3998 7.39773 53.3086 7.33048 53.2159 7.26369L53.1496 7.21763C53.0941 7.17848 53.0385 7.13909 52.9814 7.10017C52.8893 7.03661 52.7962 6.97465 52.7022 6.91431C52.6126 6.85559 52.5241 6.79916 52.4345 6.7432C52.3391 6.68263 52.2502 6.62804 52.158 6.57392C51.8931 6.41409 51.6084 6.25356 51.3084 6.09465C51.2117 6.04306 51.1167 5.99332 51.0207 5.94472C50.9308 5.89866 50.8417 5.85398 50.7514 5.80999C50.6611 5.766 50.5698 5.72109 50.4797 5.67803C50.2763 5.58107 50.0976 5.49908 49.9349 5.42814L49.8828 5.40511C49.8087 5.37241 49.7354 5.33993 49.6617 5.30907L49.6506 5.30424C49.5631 5.26531 49.4744 5.2287 49.3868 5.19323C49.2947 5.155 49.2104 5.12045 49.1251 5.08591L49.1074 5.07877C48.6466 4.89452 48.1716 4.71995 47.6968 4.56288C47.6325 4.53985 47.5784 4.52304 47.5249 4.50599L47.4989 4.4977C47.4219 4.47214 47.3521 4.44957 47.2823 4.42861C46.9812 4.33311 46.6817 4.2449 46.3839 4.16399L46.3475 4.15385C46.2986 4.14049 46.2502 4.12714 46.2012 4.11447C46.0717 4.07992 45.9503 4.04929 45.8326 4.02004L45.801 4.01221C45.7533 4.00047 45.7063 3.98918 45.6591 3.97813C45.4877 3.93644 45.3216 3.8989 45.1447 3.86297L45.0834 3.85031C45.0518 3.84386 45.0207 3.83718 44.9899 3.83165C44.7436 3.78191 44.5176 3.7416 44.3068 3.70982C44.2448 3.69992 44.1891 3.69209 44.1345 3.68518C43.8953 3.65263 43.6922 3.63198 43.5251 3.62323C42.6709 3.57578 41.859 3.60019 40.9993 3.62323C38.4497 3.69646 35.56 3.7796 30.2176 2.10113C23.1929 -0.104295 16.6315 1.81416 14.4754 2.44498C13.5104 2.72687 11.9572 2.94612 10.3125 3.1785C7.67353 3.55045 4.68254 3.97237 3.41017 4.72617C1.51877 5.84638 0.798837 8.40371 1.73555 10.6745L1.75007 10.7086C1.75813 10.7277 1.76596 10.7466 1.77472 10.7655C1.77748 10.7713 1.78001 10.7773 1.78255 10.783C1.79268 10.806 1.80374 10.8291 1.81457 10.8521C1.81664 10.8562 1.82056 10.8648 1.8224 10.8691C1.83116 10.8883 1.84083 10.9071 1.85028 10.926L1.8618 10.9491C1.87954 10.9834 1.9005 11.0239 1.92239 11.0642C1.95971 11.1333 2.00049 11.201 2.04218 11.2687C2.05739 11.2936 2.07213 11.3162 2.08665 11.3378C2.12397 11.3952 2.15899 11.4472 2.19539 11.499C2.32928 11.6871 2.47478 11.8666 2.63103 12.0366C2.67918 12.0879 2.7317 12.143 2.78423 12.1978C2.86325 12.2779 2.94227 12.3542 3.01783 12.4233C3.07381 12.4755 3.12542 12.5214 3.17679 12.5651C3.20997 12.5939 3.23508 12.6156 3.26111 12.6372C3.33921 12.7042 3.41639 12.7666 3.50969 12.8387L3.59332 12.9021C3.75182 13.0232 3.91684 13.1399 4.0884 13.2521C4.1089 13.266 4.12157 13.2752 4.13447 13.2821L4.17364 13.3072C4.19668 13.3228 4.2234 13.339 4.24874 13.3548L4.32108 13.4009C4.42452 13.4656 4.53095 13.5278 4.63255 13.5852L4.65236 13.5962C4.70397 13.625 4.75373 13.6531 4.80165 13.6791C5.06665 13.8267 5.33969 13.9594 5.61949 14.0766C5.68981 14.1045 5.75344 14.1469 5.80621 14.2011C5.85897 14.2552 5.89967 14.32 5.92563 14.391C5.95159 14.462 5.96222 14.5377 5.95682 14.6131C5.95143 14.6886 5.93013 14.762 5.89433 14.8286C5.8835 14.8486 5.87267 14.87 5.86253 14.8933C5.85539 14.9097 5.84986 14.9223 5.84502 14.9352C5.84341 14.9401 5.84134 14.9449 5.8395 14.9497C5.83351 14.9649 5.82821 14.9801 5.82291 14.9958C5.82014 15.0045 5.81692 15.0133 5.81346 15.0218C5.81001 15.0303 5.80701 15.0418 5.80379 15.0524C5.80056 15.063 5.79642 15.0755 5.79227 15.0865C5.78628 15.1024 5.78236 15.119 5.77776 15.1358C5.75518 15.2147 5.73575 15.2936 5.71947 15.3723C5.70611 15.4368 5.69252 15.5066 5.68123 15.5773C5.68123 15.5819 5.67984 15.5868 5.67892 15.5914C5.67409 15.6169 5.67063 15.6432 5.66671 15.6697C5.66671 15.6722 5.66533 15.6789 5.6651 15.6814C5.64206 15.8336 5.6211 15.9981 5.60382 16.1839C5.59806 16.2487 5.59207 16.3152 5.58723 16.3841L5.57595 16.549C5.56765 16.675 5.56028 16.8039 5.55544 16.9366L5.54807 17.1519C5.4808 19.519 5.80655 23.0197 6.34034 25.6613C6.97272 28.782 7.92556 34.497 7.20195 37.7064C6.95084 38.8217 6.18829 42.2165 7.06188 43.347C7.25378 43.5949 7.51757 43.7155 7.89124 43.7284C8.17898 43.737 8.40314 43.6462 8.59619 43.441C9.38432 42.602 9.35644 40.3088 9.27765 39.4947C9.26525 39.3653 9.30036 39.2358 9.37643 39.1304C9.4525 39.025 9.56433 38.9508 9.69107 38.9217C9.8178 38.8927 9.95079 38.9107 10.0652 38.9724C10.1796 39.0342 10.2677 39.1354 10.313 39.2573C10.4388 39.5958 13.4 47.5898 14.0912 50.9108C14.3568 52.1828 14.3658 53.557 14.3738 54.7698C14.3803 55.7491 14.3863 56.6742 14.5351 57.2894C14.6982 57.9704 14.9539 57.9704 15.123 57.9704C15.247 57.9704 15.3317 57.9301 15.4154 57.8322C15.9416 57.2104 15.8727 55.1208 15.5709 53.3253C15.5488 53.1867 15.5821 53.0449 15.6636 52.9306C15.745 52.8162 15.8681 52.7384 16.0064 52.714C16.1447 52.6895 16.2871 52.7202 16.4029 52.7997C16.5186 52.8791 16.5986 53.0008 16.6255 53.1385C17.1462 55.9338 18.9648 58.2951 18.983 58.3186C19.0425 58.3948 19.0802 58.4857 19.0922 58.5816C19.5039 61.8932 20.8267 62.8964 21.8894 63.7027C22.4711 64.144 23.0204 64.5606 23.2586 65.2543C23.3144 65.4229 23.3561 65.5958 23.3832 65.7713C23.3901 65.8057 23.3954 65.8404 23.3993 65.8761L23.4134 65.9766C23.4182 66.0141 23.4226 66.0514 23.4258 66.0873C23.4429 66.2421 23.4535 66.4019 23.4615 66.5383L23.4675 66.6472C23.4675 66.6534 23.4675 66.6596 23.4675 66.6661L23.48 67.0016C23.48 67.0079 23.48 67.0139 23.48 67.0201V67.0268C23.4823 67.1069 23.4837 67.188 23.4853 67.2706L23.4901 67.6228C23.4926 67.8377 23.4952 68.0558 23.4998 68.2725L23.5037 68.424V68.4372C23.5037 68.462 23.5037 68.4862 23.5058 68.5109L22.9711 68.5456L23.5062 68.5242C23.5088 68.5878 23.5113 68.6504 23.5124 68.7117C23.5187 68.8959 23.5288 69.0742 23.5422 69.2368C23.5495 69.3257 23.5581 69.4118 23.5666 69.4966C23.5666 69.5012 23.5666 69.5058 23.5666 69.5104C23.568 69.53 23.5703 69.5495 23.573 69.5684C23.5742 69.5758 23.5753 69.5832 23.576 69.5914C23.5901 69.7165 23.6069 69.8287 23.6274 69.9346L23.6302 69.9489C23.6339 69.9719 23.6387 69.9949 23.6435 70.018C23.6484 70.041 23.6532 70.064 23.659 70.0871C23.705 70.2927 23.761 70.4556 23.8253 70.5834L23.8304 70.594C23.8357 70.605 23.8412 70.617 23.8476 70.6267C23.8511 70.6324 23.8543 70.6382 23.8573 70.6437C23.8658 70.6592 23.8755 70.6737 23.8847 70.6884C23.9129 70.7328 23.9462 70.7737 23.984 70.8102C23.9877 70.8135 23.9914 70.8169 23.9949 70.8206C23.9983 70.8243 24.0029 70.8277 24.0045 70.8291C24.0459 70.8645 24.0943 70.8909 24.1464 70.9065L24.1695 70.9136L24.1787 70.9159L24.1891 70.918C24.2004 70.9183 24.2093 70.9196 24.2183 70.9215ZM24.1589 70.9097L24.1676 70.9116L24.1589 70.9097ZM51.2745 18.0826V18.084V18.0826ZM54.1838 8.02739C54.1843 8.02786 54.1849 8.02841 54.1854 8.029C54.1849 8.02857 54.1843 8.02818 54.1838 8.02785V8.02739ZM53.7311 7.65222L53.7433 7.66051L53.7311 7.65222Z" fill="#000215"/>
<path d="M24.3208 71.9996C23.8312 71.9996 23.4983 71.8054 23.2967 71.629C22.4619 70.8985 22.4418 69.2942 22.4213 67.7424C22.4109 66.9119 22.4001 66.0533 22.2451 65.6005C22.1126 65.2152 21.7475 64.9379 21.2418 64.5545C20.0977 63.6869 18.5367 62.5029 18.0474 58.8553C17.5894 58.2234 17.1807 57.5572 16.825 56.8627C16.7441 57.5352 16.5651 58.1294 16.2327 58.5225C15.9459 58.8615 15.5618 59.0407 15.1225 59.0407C14.5433 59.0407 13.7907 58.7802 13.493 57.5384C13.3168 56.8037 13.3108 55.8641 13.3037 54.7763C13.2958 53.614 13.2873 52.2964 13.0436 51.1289C12.6079 49.0394 11.1955 44.9017 10.2376 42.2013C10.0993 42.9461 9.84109 43.6785 9.37711 44.1728C8.97533 44.6011 8.45122 44.8158 7.85662 44.7983C7.16779 44.7752 6.59991 44.4989 6.21425 44.0016C5.1718 42.6543 5.60007 39.9443 6.15666 37.4708C6.8365 34.4554 5.90555 28.9101 5.28998 25.873C4.62004 22.56 4.13809 17.0368 4.74445 14.8544C4.61244 14.7899 4.45832 14.7112 4.28853 14.6184C4.21573 14.5785 4.1532 14.5222 4.10587 14.454C4.05854 14.3858 4.0277 14.3076 4.01579 14.2255C4.00389 14.1433 4.01123 14.0595 4.03726 13.9807C4.06328 13.9019 4.10726 13.8302 4.16574 13.7713C6.02074 11.9058 10.1758 8.5834 17.1639 7.29967C25.8572 5.70249 35.9919 7.76305 47.2869 13.4233C47.3946 13.4774 47.4809 13.5662 47.5319 13.6753C47.5829 13.7845 47.5956 13.9076 47.5679 14.0249C47.5624 14.0479 47.0166 16.4051 47.2574 18.0891L47.297 18.3613C47.5666 20.213 47.9361 22.7491 46.0173 23.414C45.2358 23.6846 44.6147 23.5658 44.1512 23.2938C44.0224 24.5573 43.6603 26.5692 42.6538 28.7113C42.1342 29.8186 41.5989 30.73 41.0812 31.6113C40.033 33.3955 39.1278 34.9363 38.9329 37.3137C38.8419 38.4294 38.9502 39.711 39.0548 40.9505C39.2923 43.7603 39.5386 46.6674 37.2318 47.3761C36.1914 47.6953 35.5226 47.4014 35.1448 47.0997C34.8366 46.8531 34.615 46.5212 34.4576 46.1594C34.3194 46.7437 34.1994 47.3554 34.1445 47.8917C34.0985 48.3436 34.086 48.7736 34.0754 49.1895C34.042 50.3936 34.0105 51.5308 32.9761 52.0037C32.5112 52.2162 32.0221 52.19 31.5989 51.929C31.4257 51.8198 31.2715 51.6831 31.1425 51.5241C31.0337 52.5177 30.9812 53.8042 31.1515 55.1791C31.5452 58.3465 31.6438 61.4322 29.7183 62.5524C28.7493 63.1162 27.9962 62.7185 27.4465 62.4278C27.11 62.25 26.8936 62.1427 26.6939 62.1788C26.5981 62.1961 26.4552 62.2433 26.3168 62.4541C25.7775 63.2756 25.9113 65.4738 26.3225 67.2214L26.3264 67.2387C26.5324 68.1155 26.9607 69.9395 26.1555 71.0908C25.7993 71.6002 25.2623 71.9017 24.5597 71.9865C24.4804 71.9957 24.4006 72.0001 24.3208 71.9996V71.9996ZM16.1004 52.6999C16.2254 52.7001 16.3463 52.7439 16.4423 52.8238C16.5383 52.9037 16.6033 53.0147 16.6262 53.1375C17.1484 55.9419 18.9654 58.2938 18.9836 58.3171C19.0431 58.3935 19.0808 58.4845 19.0928 58.5805C19.5045 61.8926 20.8271 62.8972 21.8903 63.7032C22.4718 64.1445 23.021 64.5611 23.2592 65.2548C23.4702 65.8693 23.4815 66.7732 23.4935 67.7302C23.5085 68.9236 23.5269 70.4086 24.0022 70.8246C24.0713 70.8861 24.1846 70.9524 24.4307 70.9229C24.8223 70.8755 25.1004 70.7297 25.2771 70.477C25.8069 69.717 25.4402 68.1509 25.2831 67.483L25.2791 67.466C25.1838 67.0607 24.3765 63.457 25.4206 61.8668C25.6869 61.4612 26.0613 61.2049 26.5034 61.1254C27.0766 61.0216 27.5389 61.2659 27.9467 61.4815C28.4715 61.7578 28.7431 61.8808 29.1792 61.6273C30.5711 60.8173 30.4198 57.9801 30.0883 55.3113C29.6872 52.0836 30.4182 49.3924 30.4495 49.2789C30.4835 49.1556 30.5606 49.0485 30.6667 48.9771C30.7728 48.9057 30.901 48.8746 31.0281 48.8895C31.1552 48.9045 31.2727 48.9644 31.3594 49.0585C31.4461 49.1525 31.4962 49.2745 31.5007 49.4023C31.5265 50.1075 31.8101 50.8019 32.1603 51.0179C32.2789 51.0909 32.3907 51.0944 32.53 51.0301C32.938 50.8436 32.9747 50.2296 33.0044 49.1601C33.0157 48.7455 33.0288 48.2741 33.0795 47.7826C33.2638 45.9862 34.0826 43.5449 34.1173 43.4413C34.1589 43.3174 34.2444 43.2131 34.3576 43.1478C34.4708 43.0826 34.604 43.061 34.7321 43.0872C34.8601 43.1133 34.9741 43.1853 35.0527 43.2897C35.1313 43.3941 35.169 43.5236 35.1587 43.6539C35.1202 44.164 35.1587 45.7398 35.8155 46.2649C35.9111 46.3413 36.2018 46.5735 36.918 46.3535C38.2955 45.9309 38.236 43.9763 37.9881 41.0426C37.8796 39.7596 37.7674 38.4328 37.8658 37.2285C38.081 34.6069 39.0435 32.9679 40.1581 31.0713C40.6635 30.2108 41.186 29.3209 41.6848 28.2585C43.2083 25.014 43.1495 22.014 43.1486 21.9841C43.1453 21.8581 43.1865 21.7349 43.265 21.6363C43.3436 21.5377 43.4544 21.47 43.578 21.445C43.7016 21.4201 43.83 21.4395 43.9407 21.4999C44.0513 21.5603 44.1371 21.6577 44.183 21.7752C44.25 21.9389 44.6438 22.7586 45.6671 22.4044C46.6678 22.0589 46.5176 20.4389 46.2377 18.5177L46.1979 18.2427C45.9905 16.7964 46.2815 15 46.4382 14.1988C22.0681 2.13066 9.44691 10.3512 5.46461 14.0108C5.56275 14.0548 5.61919 14.0774 5.62057 14.0778C5.69085 14.1058 5.75442 14.1482 5.80711 14.2025C5.85979 14.2567 5.90039 14.3215 5.92624 14.3925C5.9521 14.4636 5.96261 14.5393 5.9571 14.6147C5.95158 14.6901 5.93017 14.7635 5.89426 14.83C5.88367 14.8498 5.87284 14.8708 5.86316 14.8936C5.234 16.3164 5.6003 22.0027 6.3405 25.6623C6.97289 28.7832 7.92596 34.4982 7.20211 37.7073C6.95123 38.8227 6.18845 42.2177 7.06205 43.348C7.25395 43.5958 7.51773 43.7165 7.8914 43.7294C8.17892 43.7379 8.40307 43.6474 8.59613 43.442C9.38425 42.603 9.35638 40.3098 9.27782 39.4957C9.26564 39.3664 9.30085 39.2371 9.37691 39.1319C9.45297 39.0266 9.5647 38.9526 9.69129 38.9236C9.81788 38.8945 9.95071 38.9124 10.0651 38.974C10.1794 39.0356 10.2675 39.1366 10.3129 39.2582C10.4387 39.597 13.4 47.5907 14.0925 50.9118C14.3581 52.1838 14.3671 53.558 14.3749 54.7708C14.3816 55.7501 14.3876 56.6752 14.5362 57.2903C14.6995 57.9714 14.955 57.9714 15.1241 57.9714C15.2483 57.9714 15.3331 57.9311 15.4167 57.8332C15.9429 57.2114 15.8738 55.1218 15.572 53.3263C15.5486 53.1871 15.5812 53.0442 15.6627 52.9289C15.7441 52.8136 15.8678 52.7351 16.0069 52.7105C16.0377 52.7045 16.069 52.7012 16.1004 52.7006V52.6999Z" fill="#000215"/>
<path d="M43.2259 22.5105C43.2911 22.1973 43.3492 21.8656 43.4005 21.5397C43.4519 21.2138 43.4975 20.8831 43.5352 20.5524C43.608 19.891 43.6545 19.2258 43.6308 18.5531C43.8206 19.1993 43.9438 19.8721 44.0382 20.5462C44.0834 20.8832 44.1223 21.2223 44.155 21.5634C44.1866 21.9055 44.213 22.2412 44.228 22.5945C44.2309 22.6611 44.2207 22.7275 44.1979 22.7901C44.1751 22.8527 44.1402 22.9102 44.0952 22.9593C44.0502 23.0084 43.996 23.0481 43.9357 23.0763C43.8753 23.1044 43.81 23.1204 43.7434 23.1233C43.6769 23.1262 43.6104 23.116 43.5479 23.0932C43.4853 23.0704 43.4278 23.0355 43.3787 22.9905C43.3296 22.9455 43.2898 22.8913 43.2617 22.831C43.2335 22.7706 43.2176 22.7053 43.2147 22.6387C43.2132 22.5957 43.217 22.5526 43.2259 22.5105V22.5105Z" fill="#000215"/>
<path d="M34.1022 43.5872C34.1462 43.4891 34.1944 43.3608 34.2354 43.2418C34.2764 43.1227 34.3185 42.999 34.3574 42.8758C34.4341 42.6294 34.5007 42.379 34.5587 42.1264C34.6756 41.6194 34.7475 41.103 34.7736 40.5833C34.795 40.0628 34.7637 39.5384 34.6529 39.0242C34.5966 38.7664 34.5196 38.5136 34.4226 38.2683C34.3211 38.0207 34.1973 37.7829 34.0527 37.5578C34.2323 37.7611 34.3935 37.9799 34.5345 38.2116C34.6743 38.4479 34.7946 38.6953 34.894 38.9512C35.0928 39.4654 35.2135 40.0124 35.2777 40.5633C35.337 41.1176 35.3466 41.6761 35.3065 42.2321C35.2876 42.5099 35.2575 42.7892 35.2172 43.0658C35.196 43.204 35.1746 43.3436 35.1481 43.482C35.1204 43.6241 35.0953 43.7535 35.0539 43.9108L35.0525 43.917C35.0368 43.9823 35.0082 44.0439 34.9685 44.098C34.9287 44.1521 34.8785 44.1978 34.8208 44.2322C34.7632 44.2667 34.6992 44.2893 34.6327 44.2988C34.5662 44.3082 34.4985 44.3043 34.4335 44.2872C34.3686 44.2701 34.3077 44.2402 34.2544 44.1993C34.2011 44.1584 34.1566 44.1072 34.1234 44.0489C34.0901 43.9905 34.0689 43.9261 34.0608 43.8594C34.0528 43.7927 34.0582 43.7251 34.0767 43.6605C34.0836 43.6355 34.0921 43.6111 34.1022 43.5872Z" fill="#000215"/>
<path opacity="0.2" d="M9.81156 39.4438C9.81156 39.4438 10.2845 44.3418 7.87455 44.2637C6.84937 44.2298 6.36258 43.5407 6.19141 42.5364C6.48445 42.725 6.87701 42.8005 7.21659 42.6987C7.86694 42.5051 8.30466 41.9 8.60899 41.2927C8.99178 40.5267 9.24368 39.7022 9.35426 38.8531C9.38836 38.5965 9.74797 38.5788 9.81087 38.83C9.90934 39.2309 9.98327 39.6374 10.0323 40.0472C9.89335 39.6638 9.81156 39.4438 9.81156 39.4438Z" fill="#000215"/>
<path opacity="0.2" d="M16.319 56.5068C16.2435 57.5893 15.9379 58.5061 15.123 58.5061C14.5634 58.5061 14.2504 58.1768 14.0742 57.6296C14.1741 57.645 14.276 57.6394 14.3736 57.6132C14.7421 57.5103 15.0024 57.1593 15.1055 56.7896C15.2087 56.42 15.1822 56.0275 15.1544 55.6441C15.0842 54.6461 15.0138 53.6481 14.9432 52.6501C14.9268 52.4161 14.9118 52.1708 15.0123 51.9592C15.1127 51.7475 15.3706 51.5932 15.5843 51.6888C15.7366 51.7553 15.8146 51.9202 15.8748 52.0748C16.0395 52.5113 16.1288 52.9727 16.1389 53.4391C16.1402 53.4588 16.1402 53.4786 16.1389 53.4983C16.1403 53.5561 16.1389 53.6135 16.1389 53.6706C16.109 54.6243 16.2285 55.5685 16.319 56.5068Z" fill="#000215"/>
<path d="M56.9832 14.353C55.6839 19.0663 51.7518 18.3256 51.7518 18.3256C51.6082 18.3171 51.4652 18.299 51.324 18.2715C51.301 18.2675 51.2779 18.2639 51.2549 18.2588C51.1367 18.2358 51.0015 18.2061 50.8499 18.1632C50.8479 18.1623 50.8458 18.1619 50.8437 18.1621C50.7856 18.1457 50.7303 18.1294 50.675 18.113C50.6537 18.1081 50.6327 18.1018 50.6121 18.0941C50.1071 17.934 49.6235 17.7132 49.1718 17.4364C48.9223 17.2847 48.6828 17.1172 48.4549 16.9348C48.4549 16.9348 46.3379 15.745 42.6724 14.5292C39.0069 13.3134 35.4998 12.0769 35.4998 12.0769C35.4998 12.0769 33.1099 11.1557 28.735 11.432C24.3601 11.7084 17.3274 12.2381 14.5449 10.4417C14.5449 10.4417 12.7348 12.4325 10.5363 13.5955C7.33409 15.2894 5.41551 14.5902 5.42426 14.5739C5.12413 14.4491 4.83137 14.3072 4.54745 14.149C4.48962 14.1174 4.42926 14.0836 4.36637 14.0483C4.25947 13.9866 4.14751 13.9212 4.03301 13.8496C3.98394 13.8182 3.93234 13.7867 3.88212 13.754C3.85309 13.7351 3.82429 13.7176 3.79665 13.6987C3.62548 13.5856 3.44947 13.4622 3.27323 13.3302C3.24305 13.3072 3.21425 13.2842 3.18407 13.2611C3.09584 13.192 3.00783 13.1202 2.91983 13.0474C2.88965 13.0223 2.86062 12.997 2.83183 12.9719C2.774 12.9217 2.71479 12.8701 2.65812 12.8173C2.5715 12.7381 2.4858 12.6561 2.40286 12.5707C2.34757 12.5142 2.29205 12.4555 2.23814 12.3984C2.06662 12.2121 1.90696 12.0151 1.76011 11.8088C1.71979 11.7522 1.68086 11.6937 1.64308 11.6365C1.62419 11.6075 1.6053 11.5785 1.58779 11.5497C1.54171 11.4742 1.49564 11.3975 1.45325 11.3194C1.43021 11.2754 1.40717 11.2314 1.38413 11.1872C1.36778 11.1545 1.35027 11.1207 1.33506 11.0868C1.31986 11.0529 1.30488 11.0239 1.29106 10.9912C1.27355 10.9535 1.25835 10.9157 1.24199 10.8779C0.799204 9.80653 0.687241 8.65223 0.889743 7.58337C0.945431 7.27986 1.028 6.9819 1.13648 6.69301C1.50877 5.69578 2.1817 4.8319 3.13892 4.26488C5.33649 2.96342 11.8799 2.64513 14.3265 1.93095C16.7731 1.21677 23.3112 -0.629373 30.3794 1.5901C37.4477 3.80956 40.1394 2.89801 43.5545 3.08709C45.8991 3.21791 52.3169 5.02167 55.4464 8.51704C55.4477 8.51704 55.4477 8.51704 55.4489 8.51704C55.7822 8.88554 56.0801 9.28466 56.3384 9.70911L56.3987 9.81113C56.571 10.1063 56.7191 10.4149 56.8415 10.734C56.9645 11.0549 57.058 11.3864 57.1207 11.7243C57.2714 12.5435 57.2412 13.4187 56.9832 14.353Z" fill="#DF3E08"/>
<g style="mix-blend-mode:overlay" opacity="0.6">
<path d="M56.397 9.81338C56.3769 9.77953 56.3566 9.74567 56.3366 9.71159C56.0783 9.2871 55.7805 8.88797 55.4471 8.51952C55.446 8.51952 55.446 8.51952 55.4448 8.51952C52.3151 5.02369 45.8975 3.22038 43.5527 3.08957C40.1376 2.89957 37.4456 3.8125 30.3777 1.59257C27.6493 0.736291 25.0016 0.487098 22.637 0.54122C22.6139 0.542602 22.5879 0.542602 22.5639 0.543754C18.8344 0.641865 15.818 1.49699 14.325 1.93343C11.8783 2.64738 5.33493 2.96566 3.13736 4.26736C2.18014 4.83438 1.50721 5.69826 1.13492 6.69549C1.02644 6.98438 0.943872 7.28234 0.888184 7.58585C1.86061 6.43017 3.23181 5.54741 4.65693 5.01286C7.10469 4.09371 9.76509 3.96428 12.3426 3.53038C14.9689 3.08773 17.5802 2.31942 20.2042 1.92583C20.3424 2.55825 21.4696 3.05134 22.8383 3.05134C24.2634 3.05134 25.422 2.51679 25.481 1.8466C29.3829 2.45024 32.9968 4.57159 36.9466 4.82309C39.2094 4.96634 41.4749 4.4873 43.7402 4.59048C48.6448 4.81296 55.0373 7.70285 56.8386 10.7371C56.7169 10.4176 56.5692 10.1087 56.397 9.81338V9.81338Z" fill="white"/>
</g>
<path opacity="0.2" d="M56.9832 14.353C55.6839 19.0662 51.7518 18.3256 51.7518 18.3256C51.6082 18.3171 51.4653 18.299 51.324 18.2714C51.301 18.2675 51.278 18.2638 51.2549 18.2588C51.1367 18.2357 51.0015 18.206 50.8499 18.1632C50.848 18.1623 50.8458 18.1619 50.8437 18.162C50.7856 18.1457 50.7303 18.1293 50.6751 18.113C50.6537 18.108 50.6327 18.1017 50.6122 18.0941C50.1072 17.934 49.6235 17.7131 49.1718 17.4363C48.9223 17.2847 48.6829 17.1172 48.4549 16.9347C48.4549 16.9347 46.338 15.745 42.6724 14.5292C39.0069 13.3134 35.4999 12.0769 35.4999 12.0769C35.4999 12.0769 33.1099 11.1556 28.7351 11.432C24.3602 11.7084 17.3274 12.2381 14.5449 10.4417C14.5449 10.4417 12.7349 12.4325 10.5364 13.5955C7.33413 15.2894 5.41555 14.5902 5.4243 14.5739C5.12416 14.449 4.83141 14.3072 4.54748 14.1489C4.48966 14.1174 4.4293 14.0835 4.36641 14.0483C4.25951 13.9866 4.14755 13.9212 4.03305 13.8495C3.98398 13.8182 3.93237 13.7867 3.88215 13.754C3.85312 13.7351 3.82433 13.7176 3.79668 13.6987C3.62551 13.5856 3.4495 13.4622 3.27326 13.3302C3.24308 13.3072 3.21429 13.2841 3.18411 13.2611C3.09587 13.192 3.00787 13.1202 2.91987 13.0474C2.88969 13.0223 2.86066 12.9969 2.83186 12.9718C2.77404 12.9216 2.71483 12.87 2.65816 12.8173C2.57153 12.7381 2.48583 12.6561 2.4029 12.5706C2.34761 12.5142 2.29209 12.4555 2.23818 12.3984C2.06665 12.212 1.907 12.0151 1.76014 11.8088C1.71983 11.7521 1.6809 11.6936 1.64311 11.6365C1.62422 11.6075 1.60533 11.5785 1.58782 11.5497C1.54175 11.4742 1.49567 11.3975 1.45328 11.3194C1.43024 11.2754 1.40721 11.2314 1.38417 11.1872C1.36781 11.1545 1.3503 11.1206 1.3351 11.0868C1.31989 11.0529 1.30492 11.0239 1.2911 10.9912C1.27359 10.9534 1.25838 10.9157 1.24203 10.8779C0.673453 9.50088 0.650876 7.98569 1.13651 6.69298C1.36159 8.43963 2.28103 10.107 3.73264 11.1149C6.12856 12.7772 9.69942 12.4507 11.7542 10.3816C10.6359 9.38319 10.0408 7.83139 10.2044 6.34268C12.0221 8.63124 15.1856 9.32539 18.1038 9.49259C21.9913 9.71427 25.8882 9.27244 29.6273 8.18606C30.6979 7.8756 31.2738 6.71348 30.8764 5.67111L30.5518 4.81897C34.1367 8.8954 39.2928 11.5439 44.6226 12.2155C45.4678 12.3224 46.2905 11.9352 46.7785 11.236C47.7131 9.89425 49.0702 8.84543 50.6138 8.30352C49.7554 9.37375 48.9562 10.5504 48.7028 11.8984C48.4494 13.2464 48.8588 14.797 50.0023 15.554C51.0199 16.2268 52.4966 16.096 53.3785 15.2521C54.2604 14.4083 54.459 12.941 53.8639 11.8984C54.5383 12.2869 55.469 12.1538 56.0065 11.5928C56.4154 11.1665 56.5674 10.5239 56.4343 9.95182C56.6757 10.5377 56.9109 11.1289 57.1185 11.7275C57.2715 12.5435 57.2413 13.4186 56.9832 14.353Z" fill="#000215"/>
<path d="M52.2966 18.8965C52.0963 18.8978 51.8961 18.8852 51.6976 18.8587C51.5396 18.8477 51.3825 18.8275 51.2269 18.7982C51.2002 18.7938 51.1728 18.7889 51.1463 18.7834C50.9988 18.7551 50.8588 18.7222 50.7187 18.683L50.6971 18.6772C50.6413 18.6616 50.5876 18.6457 50.5342 18.6312C50.5015 18.6229 50.4694 18.6132 50.4388 18.6024C49.8963 18.4296 49.3768 18.1919 48.8913 17.8944C48.6361 17.7392 48.3906 17.5685 48.1562 17.3834C47.8676 17.2263 45.817 16.1379 42.5014 15.0384C38.8706 13.836 35.3541 12.5953 35.3191 12.5829L35.3051 12.5778C35.282 12.5693 32.9492 11.7026 28.7663 11.9675L28.209 12.0025C23.9643 12.2722 17.6434 12.6736 14.6397 11.1167C14.0244 11.7386 12.535 13.1434 10.7848 14.0704C7.9194 15.5858 5.87779 15.3491 5.22882 15.0667L5.22605 15.0736C4.90483 14.9406 4.5916 14.789 4.28796 14.6197C4.23704 14.5921 4.18221 14.5614 4.12554 14.5296L4.1025 14.517C3.98455 14.4479 3.86683 14.3802 3.7468 14.3049L3.67953 14.2627C3.64912 14.2436 3.61848 14.2243 3.58738 14.2045L3.55881 14.186C3.53577 14.1717 3.51412 14.1577 3.49223 14.1427C3.30563 14.0193 3.12017 13.8894 2.94716 13.7574L2.85962 13.6909L2.85017 13.6835C2.75802 13.6116 2.66587 13.537 2.57533 13.461C2.54262 13.4338 2.51198 13.4074 2.48157 13.3809C2.41476 13.3231 2.35094 13.2671 2.28989 13.2102C2.20465 13.1324 2.11181 13.0428 2.01828 12.9479C1.95907 12.8873 1.90078 12.8265 1.84411 12.7657C1.65614 12.562 1.48117 12.3466 1.32023 12.1209C1.27646 12.0591 1.23338 11.9953 1.19191 11.9316C1.16887 11.8961 1.14722 11.8625 1.12718 11.83C1.07765 11.7501 1.02788 11.6653 0.980657 11.5794C0.953703 11.5299 0.929281 11.4822 0.904631 11.4345L0.892882 11.4115C0.876986 11.38 0.860859 11.3475 0.846806 11.3152C0.832753 11.283 0.814323 11.2462 0.799348 11.2118C0.786447 11.1837 0.774468 11.1556 0.762488 11.1273L0.748436 11.0942C-0.393776 8.32586 0.518058 5.19691 2.86353 3.80747C4.32044 2.94451 7.42501 2.5067 10.1626 2.12047C11.7679 1.89385 13.284 1.6799 14.1739 1.42011C16.407 0.767188 23.2029 -1.22036 30.5376 1.08248C35.7078 2.70706 38.5016 2.62553 40.9671 2.55644C41.8499 2.53134 42.6838 2.50716 43.5818 2.55644C45.8202 2.68127 52.511 4.46546 55.8227 8.14116C55.8264 8.14461 55.8301 8.1483 55.8335 8.15221C55.837 8.15613 55.8416 8.16073 55.8455 8.16511C57.5704 10.0916 58.1263 12.2224 57.4987 14.4986C56.4146 18.4301 53.5786 18.8965 52.2966 18.8965ZM50.9952 17.6482C51.1127 17.6814 51.2301 17.709 51.355 17.733L51.3714 17.7364C51.3815 17.7385 51.3919 17.7401 51.4022 17.7417L51.4195 17.7447C51.5356 17.7671 51.6529 17.7825 51.7708 17.7908C51.7975 17.7917 51.8241 17.7947 51.8503 17.7995C51.9885 17.8244 55.3193 18.3714 56.4664 14.2111C56.9889 12.3178 56.518 10.5304 55.0671 8.89864C55.0595 8.89127 55.0523 8.88367 55.044 8.87561C51.951 5.41962 45.6357 3.74091 43.5229 3.62299C42.6705 3.57555 41.8582 3.59996 40.9984 3.62299C38.4488 3.69623 35.5592 3.77937 30.2167 2.1009C23.192 -0.104524 16.6307 1.81416 14.4746 2.44474C13.5107 2.72687 11.9575 2.94612 10.3128 3.1785C7.67381 3.55045 4.68282 3.97237 3.41045 4.72617C1.51882 5.84638 0.798888 8.40371 1.7356 10.6745L1.74989 10.7079C1.75795 10.727 1.76601 10.7464 1.775 10.7655C1.77776 10.7713 1.7803 10.7773 1.78283 10.783C1.7932 10.8077 1.80472 10.8311 1.816 10.8549C1.81808 10.8592 1.82084 10.865 1.82269 10.8694C1.83144 10.8887 1.84135 10.9083 1.85102 10.9272L1.86162 10.9486C1.87982 10.9838 1.90055 11.0241 1.92267 11.0638C1.95976 11.1328 2.00054 11.2006 2.04224 11.268C2.05836 11.2948 2.07357 11.3178 2.08831 11.341C2.12379 11.3952 2.15742 11.4472 2.19475 11.4981C2.32873 11.6862 2.47431 11.8658 2.63062 12.0359C2.67877 12.0872 2.73153 12.1423 2.78405 12.1971C2.86284 12.2772 2.94186 12.3535 3.01765 12.4226C3.0741 12.4751 3.12847 12.5225 3.18168 12.5688C3.20979 12.5932 3.23467 12.6149 3.2607 12.6365C3.34341 12.7056 3.42704 12.7731 3.51043 12.8387L3.59291 12.9016C3.74979 13.0202 3.91659 13.1379 4.09029 13.2528C4.10872 13.2653 4.12162 13.2733 4.13452 13.2816L4.173 13.3063C4.19765 13.3224 4.22368 13.3385 4.24925 13.3546L4.32067 13.4007C4.42411 13.4654 4.53054 13.5276 4.63214 13.5849L4.64919 13.5944C4.70195 13.6238 4.75263 13.6524 4.8017 13.6789C5.06661 13.8265 5.33958 13.9592 5.61931 14.0764C5.62968 14.0805 5.63981 14.0849 5.64972 14.0898C5.81236 14.139 7.50909 14.5907 10.284 13.1225C12.3703 12.0188 14.1297 10.1008 14.1472 10.0824C14.2326 9.98866 14.3484 9.92821 14.4741 9.9118C14.5999 9.8954 14.7274 9.92411 14.8339 9.99283C17.3527 11.6186 23.8456 11.2061 28.1422 10.9334L28.6999 10.8979C33.0566 10.6239 35.4961 11.5041 35.6827 11.5748C35.8471 11.6326 39.2885 12.8454 42.8391 14.0214C46.5127 15.2397 48.6287 16.4189 48.717 16.4684C48.742 16.4824 48.7658 16.4985 48.7881 16.5165C48.9982 16.6844 49.2187 16.8388 49.4484 16.9787C49.8637 17.2334 50.3085 17.4366 50.7728 17.584C50.7818 17.5867 50.791 17.59 50.8 17.5934C50.809 17.5969 50.8166 17.5971 50.8265 17.6001L50.9765 17.6439C50.9829 17.6452 50.9892 17.6471 50.9954 17.6487L50.9952 17.6482ZM5.89277 14.3182C5.90461 14.3401 5.915 14.3627 5.92387 14.3859V14.3859C5.91518 14.3626 5.90478 14.34 5.89277 14.3182Z" fill="#000215"/>
<path d="M52.2965 18.8965C52.1365 18.8969 51.9766 18.8892 51.8173 18.8734C51.768 18.8802 51.7179 18.8802 51.6685 18.8734C51.5169 18.8523 51.369 18.8274 51.2257 18.7979C51.1928 18.7924 51.1654 18.7875 51.1389 18.7816C51.0106 18.7553 50.8698 18.7221 50.7265 18.6846C50.7168 18.6823 50.7069 18.68 50.697 18.677C50.6415 18.6613 50.5881 18.6457 50.5358 18.6309C50.5042 18.6229 50.4731 18.6137 50.4436 18.6031C49.8921 18.4376 49.3663 18.1964 48.8812 17.8864C48.2857 17.5008 48.0069 17.1494 47.9772 17.1111C47.9675 17.0987 47.9583 17.0856 47.9498 17.0722C47.8788 16.9607 46.2369 14.2982 48.4497 10.423C49.4514 8.66854 50.8958 7.54718 52.5168 7.26551C53.7161 7.05824 54.9021 7.35971 55.7748 8.09623C55.7931 8.11046 55.8105 8.12584 55.8268 8.14229C55.8338 8.14943 55.8407 8.15657 55.8471 8.16394C57.572 10.0905 58.1278 12.2213 57.5003 14.4974C56.4145 18.4301 53.5786 18.8965 52.2965 18.8965ZM51.7305 17.788C51.7707 17.7881 51.8108 17.7918 51.8503 17.7993C51.9885 17.8242 55.3193 18.3711 56.4664 14.2109C56.9879 12.321 56.5198 10.5368 55.0749 8.90737C54.437 8.37283 53.5945 8.16394 52.699 8.31963C51.3981 8.54464 50.2195 9.48084 49.379 10.953C47.5881 14.089 48.6856 16.2067 48.839 16.4736C48.8913 16.5328 49.0924 16.7466 49.4629 16.987C49.8681 17.2452 50.3075 17.4455 50.7682 17.5821C50.7788 17.5853 50.7894 17.5888 50.7998 17.5927C50.8101 17.5966 50.8168 17.5966 50.8265 17.5996L50.976 17.6431L50.9866 17.6459C51.1154 17.68 51.2416 17.7099 51.3624 17.7346C51.3806 17.7387 51.3916 17.7401 51.4024 17.7419L51.4315 17.7472C51.5091 17.7631 51.5893 17.7779 51.6713 17.7912C51.6911 17.7891 51.711 17.788 51.731 17.788H51.7305Z" fill="#000215"/>
<path d="M48.7488 16.4212C48.9731 16.645 49.2235 16.8408 49.4948 17.0046C49.7646 17.1595 50.0576 17.27 50.3626 17.3316C50.9703 17.4535 51.6281 17.3618 52.213 17.0751C52.8084 16.7833 53.316 16.3395 53.6846 15.7886C54.0608 15.232 54.2707 14.58 54.2898 13.9086C54.299 13.571 54.2548 13.234 54.159 12.9102C54.0784 12.5845 53.915 12.2953 53.6982 12.0426C53.4794 11.7948 53.2002 11.5974 52.8882 11.4956C52.573 11.3925 52.2317 11.4013 51.9223 11.5207C51.6059 11.645 51.337 11.8659 51.1537 12.152C50.9763 12.4374 50.9003 12.7969 50.9989 13.1253C51.0975 13.4537 51.3461 13.7351 51.6569 13.9023C51.9676 14.0696 52.3549 14.1149 52.6832 13.9553C52.365 14.135 51.96 14.1149 51.6278 13.959C51.2852 13.8008 51.0167 13.5166 50.8782 13.1656C50.7448 12.8033 50.8077 12.3922 50.9888 12.0576C51.1788 11.7203 51.4707 11.4519 51.8227 11.2907C52.1842 11.1272 52.5911 11.0935 52.9746 11.1951C53.3559 11.2955 53.698 11.5106 53.9735 11.7872C54.2491 12.0666 54.4557 12.4063 54.5771 12.7794C54.7073 13.1414 54.7799 13.5215 54.7923 13.906C54.8142 14.6851 54.6145 15.4543 54.2164 16.1244C53.8166 16.8025 53.2443 17.3626 52.5576 17.7478C51.8697 18.1377 51.0344 18.3173 50.2181 18.2031C49.8111 18.1459 49.4161 18.0232 49.0483 17.8397C48.6892 17.652 48.3546 17.421 48.0519 17.1518C48.0022 17.1082 47.9615 17.0552 47.9323 16.9959C47.903 16.9366 47.8858 16.8721 47.8814 16.8061C47.8771 16.7402 47.8858 16.674 47.9071 16.6114C47.9284 16.5488 47.9618 16.491 48.0054 16.4413C48.049 16.3915 48.102 16.3509 48.1613 16.3217C48.2206 16.2924 48.2851 16.2752 48.3511 16.2708C48.4171 16.2665 48.4833 16.2752 48.5459 16.2965C48.6085 16.3178 48.6664 16.3511 48.7161 16.3947C48.7225 16.4009 48.7288 16.406 48.735 16.4122L48.7488 16.4212Z" fill="#000215"/>
<path d="M36.9535 13.1445C35.6024 12.4831 34.688 11.2256 34.439 9.90894C35.0075 11.1238 36.1334 11.9663 37.2892 12.1963C37.3548 12.2092 37.4172 12.2349 37.4728 12.2719C37.5285 12.3089 37.5763 12.3565 37.6135 12.412C37.6507 12.4675 37.6767 12.5298 37.6898 12.5953C37.7029 12.6608 37.703 12.7283 37.69 12.7938C37.677 12.8593 37.6513 12.9217 37.6142 12.9773C37.5771 13.0328 37.5294 13.0806 37.4738 13.1177C37.4182 13.1548 37.3559 13.1806 37.2903 13.1937C37.2248 13.2067 37.1573 13.2066 37.0918 13.1936C37.0496 13.185 37.0086 13.1715 36.9697 13.1533L36.9535 13.1445Z" fill="#000215"/>
<path d="M14.5304 11.0384L13.1914 9.66394L15.0424 10.172C15.1083 10.1901 15.1701 10.2211 15.2241 10.2631C15.2781 10.3051 15.3233 10.3574 15.3571 10.4168C15.3909 10.4763 15.4127 10.5419 15.4211 10.6097C15.4296 10.6776 15.4246 10.7465 15.4065 10.8125C15.3884 10.8784 15.3574 10.9402 15.3154 10.9942C15.2734 11.0482 15.2211 11.0934 15.1617 11.1272C15.1022 11.161 15.0366 11.1828 14.9688 11.1912C14.9009 11.1997 14.832 11.1947 14.766 11.1766C14.6768 11.1518 14.5956 11.1042 14.5304 11.0384V11.0384Z" fill="#000215"/>
<path d="M30.0419 51.1085C30.0419 53.695 28.2166 55.7925 25.9642 55.7925C24.5907 55.7925 23.3757 55.0117 22.6373 53.8157C22.5883 53.7365 22.5417 53.6561 22.4991 53.573C22.1116 52.859 21.8877 52.0138 21.8877 51.1087C21.8877 49.1771 22.9055 47.5184 24.3583 46.802C24.8077 46.5777 25.2991 46.4501 25.8008 46.4273C26.3026 46.4046 26.8036 46.4873 27.2714 46.67C28.8833 47.2969 30.0419 49.0472 30.0419 51.1085Z" fill="#DF3E08"/>
<g opacity="0.61">
<path d="M27.6 48.5016C26.8314 48.24 26.0088 48.0313 25.2137 48.1948C24.3005 48.3821 23.5357 49.0562 23.088 49.8735C22.6404 50.6909 22.4805 51.6391 22.4642 52.5709C22.458 52.9053 22.4701 53.2399 22.5006 53.573C22.1131 52.859 21.8892 52.0138 21.8892 51.1087C21.8892 49.1771 22.907 47.5184 24.3597 46.8019C24.8417 46.8217 25.316 46.9286 25.7597 47.1177C26.4752 47.4249 27.1064 47.8995 27.6 48.5016V48.5016Z" fill="white"/>
</g>
<path d="M25.9642 56.3279C23.4211 56.3279 21.3521 53.9863 21.3521 51.1084C21.3521 48.2305 23.4211 45.8887 25.9642 45.8887C28.5073 45.8887 30.5766 48.2303 30.5766 51.1084C30.5766 53.9866 28.5083 56.3279 25.9642 56.3279ZM25.9642 46.9594C24.0118 46.9594 22.4231 48.8208 22.4231 51.1084C22.4231 53.396 24.0127 55.2572 25.9642 55.2572C27.9157 55.2572 29.5056 53.3958 29.5056 51.1084C29.5056 48.821 27.9176 46.9599 25.9642 46.9599V46.9594Z" fill="#000215"/>
<path d="M25.2139 55.6992C23.0847 55.6992 21.3525 53.6678 21.3525 51.1713C21.3525 48.6748 23.0847 46.6432 25.2139 46.6432C27.343 46.6432 29.0753 48.6746 29.0753 51.1713C29.0753 53.6681 27.343 55.6992 25.2139 55.6992ZM25.2139 47.7139C23.6752 47.7139 22.4236 49.2648 22.4236 51.1713C22.4236 53.0778 23.6752 54.6291 25.2139 54.6291C26.7526 54.6291 28.0042 53.0783 28.0042 51.172C28.0042 49.2658 26.7524 47.7139 25.2139 47.7139Z" fill="#000215"/>
<path d="M24.6703 50.1152C24.67 50.1388 24.6621 50.1616 24.6476 50.1803C24.6331 50.199 24.613 50.2124 24.5902 50.2185C24.5674 50.2246 24.5432 50.2231 24.5213 50.2143C24.4994 50.2054 24.4811 50.1896 24.469 50.1693C24.1622 49.6612 23.6341 48.6615 24.1335 48.5081C24.6328 48.3547 24.6804 49.5113 24.6703 50.1152Z" fill="#000215"/>
<path d="M25.9766 51.7609C25.9593 51.7445 25.948 51.7229 25.9442 51.6994C25.9405 51.6759 25.9446 51.6518 25.9558 51.6309C25.9671 51.6099 25.985 51.5933 26.0067 51.5835C26.0283 51.5737 26.0526 51.5713 26.0758 51.5766C26.6555 51.7038 27.7432 52.0105 27.5118 52.4772C27.2771 52.9479 26.4065 52.1835 25.9766 51.7609Z" fill="#000215"/>
<path d="M24.2891 51.6121C24.3065 51.5963 24.3285 51.5865 24.352 51.5843C24.3754 51.5821 24.3989 51.5876 24.4189 51.6C24.4389 51.6124 24.4544 51.6309 24.4629 51.6528C24.4714 51.6748 24.4726 51.6989 24.4662 51.7215C24.305 52.2925 23.9344 53.3602 23.4816 53.1011C23.0288 52.842 23.8414 52.0175 24.2891 51.6121Z" fill="#000215"/>
<path opacity="0.2" d="M30.0418 51.1084C30.0418 53.695 28.2165 55.7924 25.9641 55.7924C24.5906 55.7924 23.3756 55.0117 22.6372 53.8157C23.44 53.957 24.2666 53.8582 25.0133 53.5315C26.4573 52.8952 27.4862 51.4587 27.7403 49.9037C27.9188 48.8121 27.7327 47.6792 27.271 46.6707C28.8832 47.2969 30.0418 49.0472 30.0418 51.1084Z" fill="#000215"/>
<path d="M11.5495 48.8962L11.1924 47.6551L10.8469 46.4541L9.04555 40.1856L8.7373 39.1156C8.7373 39.1156 13.5522 37.5725 15.8908 39.8422C16.2824 40.2233 16.6049 40.71 16.824 41.3286C18.9297 47.2765 11.5495 48.8962 11.5495 48.8962Z" fill="#DF3E08"/>
<path opacity="0.6" d="M16.2444 46.1335C16.7992 45.0784 16.9715 43.733 16.3702 42.034C16.1514 41.4154 15.8293 40.9285 15.437 40.5478C13.6068 38.7708 10.262 39.3293 8.89425 39.6561L8.73828 39.1156C8.73828 39.1156 13.5532 37.5725 15.8917 39.8422C16.2834 40.2233 16.6059 40.71 16.825 41.3286C17.5691 43.431 17.1275 44.993 16.2444 46.1335Z" fill="white"/>
<path d="M11.5495 49.4317C11.4333 49.4316 11.3204 49.3937 11.2276 49.3239C11.1349 49.254 11.0674 49.1559 11.0353 49.0443L8.22258 39.2636C8.18405 39.1299 8.19913 38.9864 8.26462 38.8636C8.33012 38.7407 8.44089 38.6482 8.57345 38.6056C8.64256 38.5826 10.3139 38.0568 12.2116 38.0674C14.8524 38.0868 16.6221 39.1529 17.3289 41.1501C17.939 42.8742 17.8664 44.4345 17.1138 45.7882C15.5894 48.53 11.8241 49.384 11.6647 49.419C11.6268 49.4274 11.5882 49.4317 11.5495 49.4317V49.4317ZM9.40165 39.4889L11.9174 48.2385C12.9138 47.9301 15.1851 47.0554 16.1794 45.2634C16.7744 44.1906 16.8212 42.9264 16.3176 41.5061C15.2111 38.3779 10.8857 39.1301 9.40234 39.4898L9.40165 39.4889Z" fill="#000215"/>
<path d="M11.1925 48.1903C11.0763 48.1903 10.9633 48.1526 10.8704 48.0827C10.7776 48.0128 10.71 47.9146 10.6779 47.8029L8.53007 40.3334C8.49576 40.2139 8.5041 40.0862 8.55366 39.9722C8.60322 39.8582 8.69091 39.765 8.80169 39.7086C9.93353 39.1328 12.3424 38.7433 14.155 39.683C15.2686 40.2604 15.9556 41.2505 16.1422 42.5464C16.3442 43.9513 16.0118 45.1664 15.1539 46.1597C13.7543 47.7806 11.4699 48.1894 11.1939 48.1903H11.1925ZM9.69094 40.4937L11.5731 47.0408C12.256 46.8663 13.6032 46.3833 14.4215 45.3667C15.0097 44.636 15.232 43.7385 15.0825 42.6989C14.9442 41.7459 14.4676 41.051 13.6624 40.6335C12.4421 40.0011 10.7288 40.1321 9.69094 40.4937V40.4937Z" fill="#000215"/>
<path d="M11.6139 42.6453C11.5969 42.6616 11.5751 42.6721 11.5517 42.6749C11.5283 42.6778 11.5045 42.673 11.4841 42.6612C11.4637 42.6495 11.4476 42.6313 11.4384 42.6096C11.4291 42.5879 11.4272 42.5638 11.4329 42.5409C11.5761 41.9652 11.9119 40.8848 12.3721 41.1301C12.8361 41.3776 12.0489 42.2266 11.6139 42.6453Z" fill="#000215"/>
<path d="M12.1597 44.1844C12.1391 44.173 12.1228 44.1552 12.1133 44.1336C12.1037 44.1121 12.1015 44.088 12.1069 44.0651C12.1123 44.0422 12.125 44.0216 12.1432 44.0066C12.1613 43.9916 12.1839 43.9829 12.2074 43.9819C12.8009 43.9543 13.9301 43.9667 13.8283 44.4787C13.7265 44.9907 12.6853 44.4799 12.1597 44.1844Z" fill="#000215"/>
<path opacity="0.2" d="M11.5498 48.8962L11.1927 47.6551L10.8472 46.454C12.3817 46.1625 13.8322 45.3877 14.7995 44.168C15.7531 42.9672 16.1643 41.3352 15.8913 39.8422C16.2829 40.2233 16.6055 40.71 16.8245 41.3286C18.93 47.2765 11.5498 48.8962 11.5498 48.8962Z" fill="#000215"/>
<path d="M37.3026 26.6588C37.3026 29.2453 35.4774 31.3427 33.225 31.3427C31.8515 31.3427 30.6364 30.562 29.8981 29.366C29.849 29.2868 29.8025 29.2064 29.7599 29.1233C29.3724 28.4093 29.1484 27.5641 29.1484 26.659C29.1484 24.7274 30.1662 23.0687 31.619 22.3522C32.0684 22.128 32.5598 22.0004 33.0616 21.9776C33.5633 21.9549 34.0643 22.0376 34.5321 22.2203C36.1441 22.8472 37.3026 24.5975 37.3026 26.6588Z" fill="#DF3E08"/>
<g opacity="0.61">
<path d="M34.8607 24.0519C34.0922 23.7903 33.2695 23.5816 32.4745 23.7451C31.5613 23.9324 30.7964 24.6065 30.3488 25.4238C29.9012 26.2412 29.7413 27.1894 29.7249 28.1212C29.7187 28.4556 29.7309 28.7902 29.7613 29.1233C29.3738 28.4093 29.1499 27.5641 29.1499 26.659C29.1499 24.7274 30.1677 23.0687 31.6205 22.3522C32.1024 22.372 32.5768 22.4789 33.0205 22.668C33.736 22.9752 34.3671 23.4498 34.8607 24.0519V24.0519Z" fill="white"/>
</g>
<path d="M33.2254 31.8782C30.6823 31.8782 28.6133 29.5367 28.6133 26.6588C28.6133 23.7808 30.6823 21.4391 33.2254 21.4391C35.7686 21.4391 37.8378 23.7806 37.8378 26.6588C37.8378 29.5369 35.7695 31.8782 33.2254 31.8782ZM33.2254 22.5098C31.273 22.5098 29.6843 24.3711 29.6843 26.6588C29.6843 28.9464 31.2739 30.8075 33.2254 30.8075C35.177 30.8075 36.7668 28.9462 36.7668 26.6588C36.7668 24.3714 35.1788 22.5102 33.2254 22.5102V22.5098Z" fill="#000215"/>
<path d="M32.4751 31.2494C30.346 31.2494 28.6138 29.2181 28.6138 26.7216C28.6138 24.2251 30.346 22.1935 32.4751 22.1935C34.6043 22.1935 36.3365 24.2249 36.3365 26.7216C36.3365 29.2184 34.6043 31.2494 32.4751 31.2494ZM32.4751 23.2642C30.9364 23.2642 29.6848 24.8151 29.6848 26.7216C29.6848 28.6281 30.9364 30.1794 32.4751 30.1794C34.0138 30.1794 35.2655 28.6285 35.2655 26.7223C35.2655 24.816 34.0136 23.2642 32.4751 23.2642Z" fill="#000215"/>
<path d="M31.9315 25.6654C31.9313 25.689 31.9233 25.7119 31.9088 25.7305C31.8944 25.7492 31.8742 25.7626 31.8514 25.7687C31.8286 25.7749 31.8044 25.7734 31.7825 25.7645C31.7607 25.7556 31.7423 25.7398 31.7302 25.7195C31.4235 25.2115 30.8954 24.2117 31.3947 24.0583C31.894 23.9049 31.9417 25.0615 31.9315 25.6654Z" fill="#000215"/>
<path d="M33.2373 27.3112C33.2201 27.2948 33.2087 27.2732 33.205 27.2497C33.2012 27.2262 33.2053 27.2021 33.2166 27.1812C33.2279 27.1602 33.2457 27.1436 33.2674 27.1338C33.2891 27.124 33.3134 27.1216 33.3366 27.1269C33.9162 27.2541 35.004 27.5608 34.7725 28.0274C34.5378 28.4982 33.6673 27.7338 33.2373 27.3112Z" fill="#000215"/>
<path d="M31.5503 27.1624C31.5677 27.1466 31.5898 27.1368 31.6132 27.1346C31.6366 27.1324 31.6601 27.1379 31.6801 27.1503C31.7001 27.1627 31.7156 27.1812 31.7241 27.2031C31.7326 27.2251 31.7338 27.2492 31.7274 27.2718C31.5662 27.8427 31.1956 28.9104 30.7429 28.6513C30.2901 28.3923 31.1026 27.5678 31.5503 27.1624Z" fill="#000215"/>
<path opacity="0.2" d="M37.303 26.6587C37.303 29.2453 35.4777 31.3427 33.2253 31.3427C31.8518 31.3427 30.6368 30.562 29.8984 29.366C30.7012 29.5073 31.5278 29.4085 32.2746 29.0818C33.7186 28.4455 34.7474 27.009 35.0015 25.454C35.1801 24.3623 34.9939 23.2295 34.5323 22.2209C36.1444 22.8472 37.303 24.5975 37.303 26.6587Z" fill="#000215"/>
<path d="M17.4901 23.1121C17.4901 25.6986 15.6649 27.7961 13.4125 27.7961C12.039 27.7961 10.8239 27.0153 10.0856 25.8193C10.0365 25.7401 9.98998 25.6597 9.94736 25.5766C9.55986 24.8626 9.33594 24.0174 9.33594 23.1123C9.33594 21.1807 10.3537 19.522 11.8065 18.8056C12.2559 18.5813 12.7473 18.4537 13.2491 18.4309C13.7508 18.4082 14.2518 18.4909 14.7196 18.6736C16.3316 19.3005 17.4901 21.0508 17.4901 23.1121Z" fill="#DF3E08"/>
<g opacity="0.61">
<path d="M15.0487 20.5052C14.2802 20.2436 13.4575 20.0349 12.6625 20.1984C11.7493 20.3857 10.9844 21.0598 10.5368 21.8771C10.0892 22.6945 9.92927 23.6427 9.91291 24.5745C9.90672 24.9089 9.91888 25.2435 9.94931 25.5766C9.56182 24.8626 9.33789 24.0174 9.33789 23.1123C9.33789 21.1807 10.3557 19.522 11.8085 18.8055C12.2904 18.8253 12.7647 18.9322 13.2085 19.1213C13.924 19.4285 14.5551 19.9031 15.0487 20.5052V20.5052Z" fill="white"/>
</g>
<path d="M13.4129 28.3315C10.8698 28.3315 8.80078 25.9899 8.80078 23.112C8.80078 20.2341 10.8698 17.8923 13.4129 17.8923C15.9561 17.8923 18.0253 20.2339 18.0253 23.112C18.0253 25.9902 15.957 28.3315 13.4129 28.3315ZM13.4129 18.963C11.4605 18.963 9.87181 20.8244 9.87181 23.112C9.87181 25.3997 11.4614 27.2608 13.4129 27.2608C15.3645 27.2608 16.9543 25.3994 16.9543 23.112C16.9543 20.8246 15.3663 18.9635 13.4129 18.9635V18.963Z" fill="#000215"/>
<path d="M12.6631 27.7028C10.534 27.7028 8.80176 25.6714 8.80176 23.1749C8.80176 20.6784 10.534 18.6469 12.6631 18.6469C14.7923 18.6469 16.5245 20.6782 16.5245 23.1749C16.5245 25.6717 14.7923 27.7028 12.6631 27.7028ZM12.6631 19.7175C11.1244 19.7175 9.87278 21.2684 9.87278 23.1749C9.87278 25.0814 11.1244 26.6327 12.6631 26.6327C14.2018 26.6327 15.4535 25.0819 15.4535 23.1756C15.4535 21.2694 14.2016 19.7175 12.6631 19.7175Z" fill="#000215"/>
<path d="M12.119 22.1187C12.1188 22.1423 12.1108 22.1652 12.0963 22.1838C12.0819 22.2025 12.0617 22.2159 12.0389 22.222C12.0161 22.2282 11.9919 22.2267 11.97 22.2178C11.9482 22.2089 11.9298 22.1931 11.9177 22.1728C11.611 21.6648 11.0829 20.665 11.5822 20.5116C12.0815 20.3582 12.1292 21.5148 12.119 22.1187Z" fill="#000215"/>
<path d="M13.4253 23.7645C13.4081 23.7481 13.3967 23.7265 13.393 23.703C13.3892 23.6795 13.3933 23.6554 13.4046 23.6345C13.4159 23.6135 13.4337 23.5969 13.4554 23.5871C13.4771 23.5773 13.5014 23.5749 13.5245 23.5802C14.1042 23.7074 15.192 24.0141 14.9605 24.4808C14.7258 24.9515 13.8553 24.1871 13.4253 23.7645Z" fill="#000215"/>
<path d="M11.7383 23.6157C11.7557 23.5998 11.7778 23.5901 11.8012 23.5879C11.8246 23.5857 11.8481 23.5912 11.8681 23.6036C11.8881 23.6159 11.9036 23.6345 11.9121 23.6564C11.9206 23.6783 11.9218 23.7024 11.9154 23.7251C11.7542 24.296 11.3836 25.3637 10.9308 25.1046C10.4781 24.8455 11.2906 24.021 11.7383 23.6157Z" fill="#000215"/>
<path opacity="0.2" d="M17.4905 23.112C17.4905 25.6986 15.6652 27.796 13.4128 27.796C12.0393 27.796 10.8243 27.0153 10.0859 25.8193C10.8887 25.9606 11.7153 25.8618 12.4621 25.5351C13.9061 24.8988 14.9349 23.4623 15.189 21.9073C15.3676 20.8157 15.1814 19.6828 14.7198 18.6743C16.3319 19.3005 17.4905 21.0508 17.4905 23.112Z" fill="#000215"/>
<path d="M17.4352 53.2065C17.4168 53.3486 17.3442 53.4782 17.2327 53.5682C17.1211 53.6583 16.9792 53.702 16.8363 53.6901L15.6726 53.3794C15.6726 53.3794 16.3684 55.5952 15.9092 55.8492C15.1469 56.2691 13.3684 55.9547 13.1797 55.3561C13.1369 55.2191 13.1431 55.0243 13.1797 54.8034C13.3004 54.0779 13.7418 53.0908 13.7418 53.0908L12.7784 52.9538L12.7657 52.9524C12.6823 52.9406 12.6027 52.91 12.5328 52.8631C12.4629 52.8162 12.4044 52.7541 12.3619 52.6815C12.3193 52.6088 12.2937 52.5275 12.287 52.4436C12.2802 52.3597 12.2925 52.2753 12.3229 52.1968C12.689 51.2486 13.5997 49.6466 15.5231 49.9181C15.9378 49.9759 16.2663 50.1056 16.528 50.2829C17.2362 50.7631 17.4463 51.5957 17.4765 52.3211C17.4875 52.6169 17.4737 52.913 17.4352 53.2065V53.2065Z" fill="#00AA54"/>
<path opacity="0.6" d="M17.4769 52.3211C17.0782 51.6825 16.4656 51.1781 15.7549 50.9266C15.3651 50.7885 14.9347 50.7256 14.5399 50.8474C14.1825 50.9568 13.8858 51.2083 13.6414 51.49C13.2652 51.9213 12.9947 52.4232 12.7784 52.9538L12.7657 52.9524C12.6823 52.9406 12.6027 52.91 12.5328 52.8631C12.4629 52.8162 12.4044 52.7541 12.3619 52.6815C12.3193 52.6088 12.2937 52.5275 12.287 52.4436C12.2802 52.3597 12.2925 52.2753 12.3229 52.1968C12.689 51.2486 13.5997 49.6466 15.5231 49.9181C15.9378 49.9759 16.2665 50.1056 16.528 50.2829C17.2367 50.7631 17.4468 51.5957 17.4769 52.3211Z" fill="white"/>
<path d="M14.9643 56.5786C14.4607 56.5786 13.9463 56.4777 13.5551 56.3211C13.0752 56.1292 12.7771 55.8586 12.6693 55.5173C12.5094 55.0132 12.7458 54.1698 12.9854 53.5235L12.6909 53.4818C12.5278 53.4589 12.3719 53.3994 12.2349 53.3078C12.0979 53.2162 11.9834 53.0949 11.8999 52.9529C11.8164 52.8109 11.7661 52.6518 11.7527 52.4876C11.7392 52.3234 11.7631 52.1583 11.8224 52.0047C12.555 50.1069 13.9301 49.1528 15.5967 49.3872C17.3616 49.6362 18.246 51.0896 17.9652 53.2755C17.9293 53.5541 17.7874 53.8081 17.569 53.9847C17.3505 54.1613 17.0723 54.2469 16.7924 54.2237C16.7601 54.2209 16.7282 54.2154 16.697 54.2071L16.4383 54.138C16.8575 55.9385 16.3691 56.2075 16.1678 56.3181C15.8342 56.5023 15.4034 56.5786 14.9643 56.5786ZM13.6871 55.1774C13.8781 55.3941 14.9606 55.632 15.5317 55.4328C15.5548 55.1129 15.3967 54.2886 15.162 53.5394C15.1333 53.4479 15.1297 53.3505 15.1516 53.2571C15.1735 53.1638 15.2201 53.0781 15.2864 53.0089C15.3528 52.9397 15.4365 52.8895 15.5288 52.8637C15.6212 52.8379 15.7188 52.8373 15.8114 52.8621L16.8953 53.1518C16.8974 53.1503 16.8991 53.1485 16.9005 53.1463C16.9018 53.1441 16.9026 53.1417 16.9029 53.1391C17.0465 52.0247 16.9105 50.6539 15.4474 50.4476C13.9769 50.2403 13.2079 51.3897 12.8211 52.39C12.8196 52.3932 12.8189 52.3967 12.8191 52.4003C12.8194 52.4038 12.8205 52.4073 12.8225 52.4102C12.8243 52.4134 12.8269 52.4161 12.83 52.4181C12.833 52.4201 12.8366 52.4214 12.8402 52.4217L13.8154 52.5599C13.8976 52.5715 13.9759 52.6019 14.0443 52.6489C14.1127 52.6959 14.1692 52.7581 14.2094 52.8307C14.2496 52.9032 14.2724 52.9841 14.276 53.067C14.2796 53.1499 14.2639 53.2324 14.2301 53.3082C13.8977 54.0537 13.6454 54.927 13.6871 55.1781V55.1774Z" fill="#000215"/>
<path opacity="0.2" d="M17.4353 53.2064C17.4168 53.3486 17.3443 53.4781 17.2327 53.5682C17.1212 53.6583 16.9792 53.7019 16.8363 53.6901L15.6727 53.3794C15.6727 53.3794 16.3684 55.5952 15.9093 55.8492C15.1469 56.269 13.3684 55.9547 13.1798 55.3561C13.1369 55.2191 13.1431 55.0242 13.1798 54.8034C13.6212 54.8814 14.0628 54.8752 14.4325 54.6421C14.8085 54.4045 15.0237 53.9694 15.0979 53.5305C15.1245 53.3672 15.1366 53.2019 15.1343 53.0365C15.1334 52.9563 15.1505 52.8769 15.1843 52.8041C15.2181 52.7314 15.2677 52.6671 15.3296 52.616C15.3914 52.5649 15.4639 52.5283 15.5417 52.5088C15.6195 52.4893 15.7007 52.4874 15.7793 52.5033C15.7971 52.507 15.816 52.5095 15.8335 52.5132C16.1053 52.556 16.4122 52.4902 16.5896 52.2781C16.7366 52.1021 16.7706 51.8582 16.7739 51.6279C16.7826 51.1683 16.6988 50.7116 16.5274 50.285C17.5585 50.9833 17.5346 52.428 17.4353 53.2064Z" fill="#000215"/>
<path d="M33.8381 41.6532C33.8196 41.7953 33.7471 41.9249 33.6355 42.015C33.524 42.105 33.382 42.1487 33.2391 42.1368L32.0755 41.8261C32.0755 41.8261 32.7712 44.0419 32.3121 44.2959C31.5497 44.7158 29.7712 44.4014 29.5825 43.8029C29.5397 43.6658 29.5459 43.471 29.5825 43.2501C29.7033 42.5246 30.1447 41.5376 30.1447 41.5376L29.1812 41.4005L29.1686 41.3991C29.0852 41.3873 29.0056 41.3568 28.9356 41.3098C28.8657 41.2629 28.8073 41.2008 28.7647 41.1282C28.7221 41.0555 28.6965 40.9742 28.6898 40.8903C28.683 40.8064 28.6953 40.722 28.7258 40.6435C29.0918 39.6953 30.0025 38.0933 31.9259 38.3648C32.3406 38.4227 32.6691 38.5523 32.9308 38.7296C33.639 39.2098 33.8491 40.0424 33.8793 40.7679C33.8903 41.0636 33.8765 41.3597 33.8381 41.6532V41.6532Z" fill="#00AA54"/>
<path opacity="0.6" d="M33.8793 40.7679C33.4805 40.1292 32.8679 39.6249 32.1572 39.3734C31.7674 39.2352 31.3371 39.1723 30.9422 39.2941C30.5849 39.4035 30.2882 39.655 30.0437 39.9367C29.6675 40.3681 29.3971 40.8699 29.1807 41.4005L29.1681 41.3991C29.0847 41.3873 29.0051 41.3568 28.9351 41.3098C28.8652 41.2629 28.8068 41.2008 28.7642 41.1282C28.7216 41.0555 28.696 40.9742 28.6893 40.8903C28.6826 40.8064 28.6949 40.722 28.7253 40.6435C29.0914 39.6953 30.002 38.0933 31.9255 38.3648C32.3401 38.4227 32.6689 38.5523 32.9304 38.7296C33.639 39.2098 33.8491 40.0424 33.8793 40.7679Z" fill="white"/>
<path d="M31.3671 45.0253C30.8635 45.0253 30.3491 44.9244 29.9579 44.7678C29.478 44.5759 29.1799 44.3053 29.0721 43.964C28.9122 43.4599 29.1486 42.6165 29.3882 41.9703L29.0938 41.9286C28.9306 41.9056 28.7747 41.8461 28.6377 41.7545C28.5008 41.663 28.3863 41.5416 28.3028 41.3996C28.2192 41.2576 28.1689 41.0985 28.1555 40.9344C28.1421 40.7702 28.1659 40.6051 28.2252 40.4514C28.9578 38.5536 30.333 37.5995 31.9995 37.8339C33.7644 38.0829 34.6489 39.5364 34.368 41.7222C34.3322 42.0008 34.1902 42.2548 33.9718 42.4314C33.7533 42.608 33.4752 42.6936 33.1952 42.6704C33.163 42.6676 33.1311 42.6621 33.0998 42.6538L32.8411 42.5847C33.2604 44.3852 32.772 44.6542 32.5706 44.7648C32.237 44.949 31.8062 45.0253 31.3671 45.0253ZM30.0899 43.6241C30.2809 43.8408 31.3634 44.0787 31.9346 43.8795C31.9576 43.5596 31.7996 42.7353 31.5648 41.9861C31.5361 41.8947 31.5326 41.7972 31.5545 41.7039C31.5764 41.6105 31.6229 41.5248 31.6893 41.4556C31.7556 41.3864 31.8393 41.3363 31.9317 41.3104C32.024 41.2846 32.1216 41.2841 32.2142 41.3088L33.2982 41.5985C33.3002 41.5971 33.302 41.5952 33.3033 41.593C33.3046 41.5908 33.3054 41.5884 33.3058 41.5859C33.4493 40.4714 33.3134 39.1006 31.8502 38.8943C30.3797 38.687 29.6107 39.8365 29.2239 40.8367C29.2224 40.8399 29.2217 40.8434 29.222 40.847C29.2222 40.8505 29.2234 40.854 29.2253 40.8569C29.2271 40.8601 29.2297 40.8629 29.2328 40.8649C29.2359 40.8669 29.2394 40.8681 29.2431 40.8685L30.2182 41.0066C30.3004 41.0182 30.3788 41.0487 30.4471 41.0956C30.5155 41.1426 30.572 41.2048 30.6122 41.2774C30.6524 41.35 30.6752 41.4309 30.6788 41.5137C30.6824 41.5966 30.6667 41.6792 30.6329 41.7549C30.3005 42.5004 30.0482 43.3737 30.0899 43.6248V43.6241Z" fill="#000215"/>
<path opacity="0.2" d="M33.8381 41.6531C33.8196 41.7953 33.7471 41.9249 33.6356 42.0149C33.524 42.105 33.382 42.1486 33.2391 42.1368L32.0755 41.8261C32.0755 41.8261 32.7712 44.0419 32.3121 44.2959C31.5498 44.7158 29.7713 44.4014 29.5826 43.8028C29.5397 43.6658 29.546 43.4709 29.5826 43.2501C30.024 43.3282 30.4656 43.3219 30.8354 43.0889C31.2114 42.8512 31.4265 42.4161 31.5007 41.9772C31.5273 41.8139 31.5395 41.6486 31.5371 41.4832C31.5363 41.403 31.5534 41.3236 31.5872 41.2509C31.621 41.1781 31.6706 41.1139 31.7324 41.0627C31.7942 41.0116 31.8667 40.975 31.9445 40.9555C32.0223 40.936 32.1035 40.9341 32.1822 40.95C32.1999 40.9537 32.2188 40.9562 32.2363 40.9599C32.5081 41.0027 32.815 40.9369 32.9924 40.7248C33.1394 40.5488 33.1735 40.3049 33.1767 40.0746C33.1854 39.615 33.1016 39.1583 32.9302 38.7317C33.9614 39.43 33.9374 40.8747 33.8381 41.6531Z" fill="#000215"/>
<path d="M18.0684 35.2416C18.0684 35.2416 19.4619 35.4892 19.8695 35.2403C20.2821 34.9869 20.1865 33.5979 19.7298 33.1065C19.4545 32.8096 17.9248 33.7426 17.9248 33.7426L17.9412 32.8147C17.9234 32.7057 17.8644 32.6077 17.7763 32.541C17.6883 32.4743 17.578 32.444 17.4682 32.4563C16.7135 32.5443 15.1953 32.9169 15.3612 34.4996C15.5172 35.9899 16.8858 36.3734 17.665 36.4701C17.7295 36.4783 17.7951 36.4718 17.8568 36.4511C17.9184 36.4304 17.9746 36.396 18.0212 36.3506C18.0677 36.3051 18.1033 36.2497 18.1254 36.1885C18.1475 36.1273 18.1555 36.062 18.1488 35.9973L18.0684 35.2416Z" fill="#00AA54"/>
<path d="M17.7192 37.009C17.679 37.0089 17.6387 37.0064 17.5987 37.0016C15.9796 36.8001 14.9701 35.9085 14.8285 34.5553C14.6773 33.114 15.641 32.1304 17.4059 31.9245C17.6524 31.8959 17.9004 31.9633 18.0984 32.1127C18.2964 32.2621 18.4293 32.4821 18.4693 32.7269C18.4747 32.759 18.4771 32.7917 18.4765 32.8243V32.8305C19.6763 32.2619 19.9795 32.5882 20.1223 32.7423C20.5768 33.2317 20.7303 34.1656 20.6439 34.7957C20.5697 35.3355 20.334 35.5838 20.1493 35.6969C19.8081 35.9042 19.2089 35.9136 18.6718 35.8643L18.6801 35.9417C18.6942 36.0763 18.6798 36.2124 18.6379 36.3411C18.596 36.4698 18.5276 36.5883 18.437 36.6889C18.3464 36.7895 18.2357 36.87 18.1121 36.9252C17.9885 36.9804 17.8546 37.009 17.7192 37.0092V37.009ZM17.4022 33.0046C16.3176 33.1614 15.8101 33.6453 15.8937 34.4438C15.9988 35.4461 16.8521 35.8026 17.6008 35.9208L17.5356 35.2973C17.5269 35.2148 17.5376 35.1314 17.5667 35.0538C17.5957 34.9761 17.6425 34.9062 17.7032 34.8497C17.7639 34.7931 17.837 34.7515 17.9166 34.728C17.9961 34.7046 18.0801 34.6999 18.1618 34.7144C18.7046 34.8104 19.331 34.8434 19.5544 34.7918C19.6408 34.5675 19.5968 33.9424 19.4282 33.6071C19.1637 33.6831 18.643 33.9321 18.2035 34.1997C18.1216 34.2496 18.0279 34.2766 17.932 34.2779C17.8361 34.2793 17.7417 34.2548 17.6585 34.2072C17.5753 34.1595 17.5064 34.0904 17.4591 34.007C17.4117 33.9237 17.3876 33.8291 17.3893 33.7333L17.4022 33.0046Z" fill="#000215"/>
<path d="M26.4991 18.4394C26.396 18.539 26.2584 18.595 26.1151 18.5959C25.9717 18.5967 25.8335 18.5423 25.7292 18.4439L25.0135 17.4755C25.0135 17.4755 24.1748 19.6413 23.6574 19.5535C22.7996 19.4063 21.6056 18.0516 21.8316 17.4661C21.8836 17.3323 22.01 17.1839 22.1765 17.0341C22.7235 16.5423 23.6844 16.046 23.6844 16.046L23.0168 15.3381L23.0078 15.3291C22.95 15.2679 22.9068 15.1944 22.8814 15.1141C22.8561 15.0338 22.8491 14.9489 22.8612 14.8655C22.8732 14.7822 22.904 14.7027 22.9511 14.6329C22.9981 14.5631 23.0604 14.5048 23.1332 14.4624C24.0109 13.9496 25.7223 13.2652 27.0562 14.6768C27.3443 14.9806 27.5202 15.2868 27.6141 15.5886C27.868 16.4055 27.5128 17.1873 27.0837 17.7731C26.9078 18.0111 26.7122 18.234 26.4991 18.4394V18.4394Z" fill="#00AA54"/>
<path opacity="0.6" d="M27.0841 17.7733C27.1709 17.0255 27.0067 16.2493 26.6081 15.6095C26.3897 15.2584 26.0926 14.941 25.7079 14.79C25.3604 14.6527 24.9715 14.6642 24.6047 14.732C24.0415 14.8345 23.517 15.0581 23.0168 15.338L23.0078 15.329C22.95 15.2678 22.9068 15.1942 22.8814 15.114C22.8561 15.0337 22.8491 14.9487 22.8612 14.8654C22.8732 14.7821 22.904 14.7025 22.9511 14.6327C22.9981 14.5629 23.0604 14.5047 23.1332 14.4623C24.0109 13.9494 25.7223 13.2651 27.0562 14.6767C27.3443 14.9805 27.5204 15.2868 27.6141 15.5885C27.8684 16.4057 27.5131 17.1874 27.0841 17.7733Z" fill="white"/>
<path d="M22.4639 19.5345C22.0703 19.2205 21.7311 18.8208 21.5231 18.4545C21.2677 18.0053 21.2035 17.6079 21.3322 17.2739C21.5218 16.7802 22.2328 16.2684 22.8232 15.9126L22.6191 15.6965C22.5059 15.5768 22.4212 15.4331 22.3712 15.2761C22.3213 15.1191 22.3075 14.9528 22.3309 14.7898C22.3542 14.6267 22.4141 14.471 22.5061 14.3343C22.598 14.1976 22.7197 14.0834 22.8619 14.0003C24.6186 12.9738 26.2888 13.0854 27.4451 14.3079C28.6693 15.603 28.4537 17.2906 26.8704 18.824C26.6685 19.0193 26.3991 19.1294 26.1182 19.1312C25.8372 19.133 25.5664 19.0265 25.3621 18.8337C25.3386 18.8115 25.3171 18.7873 25.2978 18.7613L25.1387 18.546C24.343 20.2148 23.7935 20.1205 23.5671 20.0813C23.1914 20.0173 22.8071 19.8083 22.4639 19.5345ZM22.3398 17.6429C22.3539 17.9314 23.0516 18.7923 23.6223 18.9927C23.8399 18.7571 24.2307 18.0143 24.5146 17.2823C24.5493 17.1929 24.6073 17.1145 24.6827 17.0552C24.758 16.9959 24.8479 16.9579 24.9429 16.9452C25.038 16.9325 25.1347 16.9455 25.223 16.9829C25.3113 17.0203 25.3879 17.0807 25.4449 17.1578L26.1113 18.0602C26.1138 18.0603 26.1164 18.0599 26.1188 18.059C26.1212 18.0581 26.1233 18.0568 26.1252 18.055C26.9327 17.2734 27.6817 16.1172 26.6669 15.0436C25.6468 13.9646 24.3285 14.3836 23.4021 14.9242C23.3989 14.9257 23.3962 14.9281 23.3942 14.931C23.3921 14.9339 23.3909 14.9373 23.3906 14.9409C23.39 14.9445 23.3903 14.9482 23.3915 14.9517C23.3926 14.9552 23.3946 14.9584 23.3972 14.9609L24.0733 15.677C24.1303 15.7373 24.1725 15.81 24.1966 15.8893C24.2208 15.9687 24.2261 16.0525 24.2123 16.1343C24.1984 16.2161 24.1658 16.2936 24.1169 16.3606C24.068 16.4276 24.0042 16.4823 23.9305 16.5205C23.2055 16.8959 22.4635 17.4212 22.3394 17.6434L22.3398 17.6429Z" fill="#000215"/>
<path opacity="0.2" d="M26.4989 18.4396C26.3958 18.5392 26.2583 18.5952 26.1149 18.5961C25.9715 18.5969 25.8333 18.5425 25.729 18.4441L25.0133 17.4757C25.0133 17.4757 24.1746 19.6415 23.6572 19.5537C22.7994 19.4065 21.6054 18.0518 21.8314 17.4663C21.8834 17.3325 22.0099 17.1841 22.1763 17.0343C22.4726 17.3705 22.8217 17.641 23.2561 17.6894C23.6983 17.7381 24.1379 17.5322 24.4698 17.2354C24.5925 17.1243 24.7051 17.0027 24.8065 16.8719C24.8558 16.8087 24.9187 16.7574 24.9905 16.7216C25.0623 16.6858 25.1412 16.6665 25.2214 16.6651C25.3016 16.6637 25.3811 16.6803 25.4541 16.7135C25.5271 16.7468 25.5918 16.796 25.6433 16.8574C25.6549 16.8714 25.6681 16.8851 25.6795 16.8989C25.8652 17.1019 26.1462 17.2418 26.4172 17.1866C26.6418 17.1407 26.8206 16.9714 26.9669 16.7934C27.2605 16.4395 27.4799 16.0303 27.6121 15.59C27.9824 16.7788 27.0623 17.8931 26.4989 18.4396Z" fill="#000215"/>
<path d="M24.2918 25.7542C23.831 25.8661 23.4414 26.198 23.1873 26.5991C22.9332 27.0003 22.8026 27.4695 22.7266 27.9384C22.6611 28.3359 22.6344 28.7481 22.7427 29.136C22.851 29.5238 23.1164 29.8829 23.4937 30.0227C23.8711 30.1625 24.3542 30.0263 24.5403 29.6691C24.8788 29.0153 24.1077 28.1966 24.4021 27.5227C24.5795 27.1153 25.0978 26.9064 25.196 26.4727C25.2204 26.3563 25.2114 26.2354 25.17 26.1239C25.1286 26.0124 25.0564 25.9148 24.9619 25.8426C24.7709 25.7014 24.4993 25.7039 24.2918 25.7542Z" fill="#DF3E08"/>
<path d="M11.8142 30.1828C11.1387 30.0836 10.4549 30.4848 10.0847 31.058C9.71452 31.6312 9.61799 32.3459 9.66314 33.0273C9.68618 33.377 9.74746 33.7302 9.91103 34.0407C10.0746 34.3512 10.3527 34.6128 10.6943 34.6945C11.036 34.7763 11.4341 34.6418 11.6064 34.3362C11.7925 34.008 11.6868 33.5967 11.5603 33.2408C11.4338 32.885 11.2898 32.4976 11.4131 32.1407C11.5073 31.8678 11.7402 31.6715 11.9464 31.4691C12.1526 31.2667 12.3514 31.0163 12.3452 30.7284C12.339 30.4405 12.0054 30.1639 11.8142 30.1828Z" fill="#DF3E08"/>
<path d="M32.346 15.0184C32.3284 15.6632 32.624 16.2933 33.0716 16.7586C33.5193 17.2238 34.107 17.5345 34.7209 17.7344C35.0453 17.8401 35.3964 17.9156 35.7272 17.8288C36.058 17.742 36.3536 17.4453 36.3372 17.1045C36.3184 16.7196 35.9385 16.4555 35.5724 16.3348C35.2063 16.2141 34.8025 16.1676 34.497 15.9338C34.2378 15.7351 34.0869 15.4295 33.921 15.1466C33.7552 14.8638 33.5423 14.5808 33.2299 14.4801C32.9175 14.3795 32.3577 14.5405 32.346 15.0184Z" fill="#DF3E08"/>
<path d="M22.291 43.4074C21.7363 43.606 21.1625 43.7468 20.5789 43.8275C20.3501 43.8588 20.1073 43.8865 19.9211 44.0249C19.623 44.2462 19.5776 44.7103 19.7702 45.0283C19.9628 45.3464 20.3363 45.5212 20.706 45.5502C21.0758 45.5792 21.4432 45.4786 21.7927 45.3503C22.2212 45.193 22.6315 44.9903 23.0167 44.7455C23.2367 44.6057 23.457 44.4385 23.5551 44.1971C23.6744 43.9017 23.5627 43.5306 23.2996 43.3496C23.0365 43.1686 22.6808 43.2678 22.291 43.4074Z" fill="#DF3E08"/>
<path d="M21.9284 58.0607C21.8757 57.7274 21.8132 57.3905 21.6718 57.0837C21.5303 56.777 21.3046 56.4964 20.9988 56.353C20.6931 56.2095 20.302 56.2247 20.0428 56.4412C19.7836 56.6577 19.7083 57.086 19.9234 57.3465C20.0428 57.4911 20.2252 57.569 20.3612 57.6973C20.7261 58.0356 20.6883 58.6116 20.833 59.0881C20.9184 59.3686 21.0806 59.6325 21.3248 59.7935C21.569 59.9545 21.8982 60.0008 22.1588 59.8651C22.4194 59.7295 22.5751 59.4025 22.4769 59.127C22.4104 58.9428 22.2519 58.809 22.1235 58.6606C21.9952 58.5123 21.9674 58.3073 21.9284 58.0607Z" fill="#DF3E08"/>
<path d="M15.521 13.3986C14.5901 13.3445 13.7133 13.8525 12.809 14.0789C12.5222 14.1506 12.2114 14.2385 12.034 14.4762C11.7737 14.8272 11.9522 15.3716 12.3183 15.6079C12.6844 15.8442 13.1636 15.8332 13.5826 15.7125C14.0017 15.5918 14.3864 15.3753 14.7951 15.2219C15.0757 15.1176 15.3687 15.0409 15.6291 14.8912C15.8894 14.7415 16.117 14.4997 16.1573 14.2047C16.1976 13.9097 16.0166 13.4272 15.521 13.3986Z" fill="#DF3E08"/>
<path d="M39.9553 16.2694C39.7 16.3537 39.4056 16.5386 39.2987 16.7851C39.2245 16.9573 39.2635 17.1623 39.3554 17.327C39.6245 17.8125 40.2988 17.9647 40.8194 17.7736C41.3401 17.5824 41.7239 17.1245 41.9893 16.6368C42.1114 16.4129 42.2157 16.1462 42.1238 15.9085C42.0121 15.6156 41.637 15.496 41.3316 15.5679C41.0261 15.6398 40.8107 15.9878 39.9553 16.2694Z" fill="#DF3E08"/>
</svg>
