<svg width="30" height="12" viewBox="0 0 30 12" fill="none" xmlns="http://www.w3.org/2000/svg">
<path fill-rule="evenodd" clip-rule="evenodd" d="M13.8361 9.38653V5.86495H15.7071C16.4738 5.86495 17.1209 5.61539 17.6484 5.1232L17.775 4.99842C18.7387 3.97938 18.6754 2.3919 17.6484 1.44912C17.135 0.949994 16.4316 0.679637 15.7071 0.693501H12.7036V9.38653H13.8361ZM13.8364 4.79733V1.76101H15.7359C16.1439 1.76101 16.5308 1.91351 16.8193 2.1908C17.4313 2.77311 17.4454 3.74363 16.8544 4.34673C16.566 4.64482 16.158 4.81119 15.7359 4.79733H13.8364ZM23.0577 3.90309C22.5723 3.46636 21.9111 3.24453 21.0741 3.24453C19.9979 3.24453 19.189 3.63273 18.6545 4.40221L19.6533 5.01918C20.019 4.49233 20.5184 4.22891 21.1515 4.22891C21.5524 4.22891 21.9393 4.37448 22.2417 4.63791C22.5372 4.88747 22.706 5.24795 22.706 5.62922V5.88571C22.2699 5.65002 21.7212 5.52524 21.046 5.52524C20.2582 5.52524 19.6251 5.70547 19.1539 6.07288C18.6826 6.44029 18.4434 6.92555 18.4434 7.54252C18.4294 8.10403 18.6756 8.63781 19.1117 8.99829C19.5548 9.3865 20.1175 9.5806 20.7787 9.5806C21.5594 9.5806 22.1784 9.24092 22.6497 8.56156H22.6989V9.3865H23.7822V5.71934C23.7822 4.94986 23.543 4.33982 23.0577 3.90309ZM19.9839 8.29121C19.7518 8.12484 19.6111 7.85448 19.6111 7.56333C19.6111 7.23751 19.7659 6.96715 20.0684 6.75226C20.3779 6.53736 20.7648 6.42644 21.2221 6.42644C21.8552 6.41951 22.3477 6.55815 22.6994 6.83544C22.6994 7.30683 22.5095 7.71584 22.1366 8.06245C21.799 8.3952 21.3417 8.58237 20.8633 8.58237C20.5467 8.5893 20.2372 8.48532 19.9839 8.29121ZM26.2157 12L30 3.43864H28.769L27.0176 7.7089H26.9965L25.2029 3.43864H23.9719L26.4549 9.00523L25.0481 12H26.2157Z" fill="#3C4043"/>
<path d="M9.92657 5.10244C9.92657 4.76276 9.89843 4.42308 9.84216 4.09033H5.06616V6.01056H7.80234C7.6898 6.62753 7.32404 7.18211 6.78946 7.52873V8.77653H8.42132C9.37793 7.91 9.92657 6.62753 9.92657 5.10244Z" fill="#4285F4"/>
<path d="M5.06648 9.98275C6.43105 9.98275 7.58461 9.53909 8.42164 8.77654L6.78978 7.52873C6.33258 7.83375 5.74877 8.00706 5.06648 8.00706C3.74411 8.00706 2.62573 7.12666 2.2248 5.94818H0.543701V7.23758C1.40183 8.92212 3.15327 9.98275 5.06648 9.98275Z" fill="#34A853"/>
<path d="M2.22482 5.94821C2.01377 5.33124 2.01377 4.65881 2.22482 4.03491V2.75244H0.543453C-0.181151 4.15969 -0.181151 5.82343 0.543453 7.23067L2.22482 5.94821Z" fill="#FBBC04"/>
<path d="M5.06648 1.97599C5.79097 1.96213 6.48732 2.23248 7.00783 2.72467L8.45681 1.29663C7.53537 0.450898 6.32554 -0.0135628 5.06648 0.000301698C3.15327 0.000301698 1.40183 1.06787 0.543701 2.7524L2.2248 4.0418C2.62573 2.85639 3.74411 1.97599 5.06648 1.97599Z" fill="#EA4335"/>
</svg>
