<svg width="30" height="18" viewBox="0 0 30 18" fill="none" xmlns="http://www.w3.org/2000/svg">
<path fill-rule="evenodd" clip-rule="evenodd" d="M15 15.85C13.4112 17.1907 11.3503 18 9.09836 18C4.07347 18 0 13.9706 0 9C0 4.02944 4.07347 0 9.09836 0C11.3503 0 13.4112 0.809327 15 2.14998C16.5888 0.809327 18.6497 0 20.9016 0C25.9265 0 30 4.02944 30 9C30 13.9706 25.9265 18 20.9016 18C18.6497 18 16.5888 17.1907 15 15.85Z" fill="#ED0006"/>
<path fill-rule="evenodd" clip-rule="evenodd" d="M15 15.85C16.9563 14.1993 18.1967 11.7429 18.1967 9C18.1967 6.25708 16.9563 3.80075 15 2.14998C16.5888 0.809327 18.6497 0 20.9016 0C25.9265 0 30 4.02944 30 9C30 13.9706 25.9265 18 20.9016 18C18.6497 18 16.5888 17.1907 15 15.85Z" fill="#F9A000"/>
<path fill-rule="evenodd" clip-rule="evenodd" d="M15 15.8501C16.9563 14.1993 18.1967 11.743 18.1967 9.00007C18.1967 6.25713 16.9563 3.80079 15 2.15002C13.0437 3.80079 11.8032 6.25713 11.8032 9.00007C11.8032 11.743 13.0437 14.1993 15 15.8501Z" fill="#FF5E00"/>
</svg>
