<svg width="30" height="12" viewBox="0 0 30 12" fill="none" xmlns="http://www.w3.org/2000/svg">
<path fill-rule="evenodd" clip-rule="evenodd" d="M7.50032 11.9065H4.904L2.95709 2.59728C2.86468 2.16906 2.66847 1.79048 2.37985 1.61205C1.65956 1.16366 0.865859 0.806802 0 0.626823V0.268417H4.18245C4.75969 0.268417 5.19262 0.806802 5.26478 1.43207L6.27495 8.14715L8.86999 0.268417H11.3942L7.50032 11.9065ZM12.8373 11.9065H10.3853L12.4043 0.268417H14.8563L12.8373 11.9065ZM18.0285 3.49252C18.1007 2.8657 18.5336 2.50729 19.0387 2.50729C19.8324 2.4173 20.697 2.59728 21.4186 3.04413L21.8515 0.538385C21.1299 0.179979 20.3362 0 19.616 0C17.2361 0 15.5044 1.61205 15.5044 3.84938C15.5044 5.55142 16.731 6.44511 17.5969 6.9835C18.5336 7.52033 18.8944 7.87874 18.8222 8.41557C18.8222 9.22082 18.1007 9.57923 17.3804 9.57923C16.5146 9.57923 15.6487 9.31081 14.8563 8.86241L14.4233 11.3697C15.2892 11.8166 16.2259 11.9965 17.0918 11.9965C19.7603 12.085 21.4186 10.4745 21.4186 8.05716C21.4186 5.01304 18.0285 4.83461 18.0285 3.49252V3.49252ZM30 11.9065L28.053 0.268417H25.9618C25.5289 0.268417 25.096 0.626823 24.9517 1.16366L21.3464 11.9065H23.8706L24.3744 10.206H27.4758L27.7644 11.9065H30ZM26.3227 3.40255L27.043 7.78876H25.0239L26.3227 3.40255Z" fill="#172B85"/>
</svg>
