<svg width="58" height="72" viewBox="0 0 58 72" fill="none" xmlns="http://www.w3.org/2000/svg">
<path d="M27.165 64.1707C42.1678 64.1707 54.3299 52.0123 54.3299 37.0141C54.3299 22.0159 42.1678 9.85742 27.165 9.85742C12.1622 9.85742 0 22.0159 0 37.0141C0 52.0123 12.1622 64.1707 27.165 64.1707Z" fill="#FFEFC8"/>
<path d="M57.2095 12.7662C57.2049 13.3029 57.1287 13.8365 56.983 14.353C55.6837 19.0663 51.7516 18.3256 51.7516 18.3256C51.749 18.3316 51.7459 18.3375 51.7426 18.3431C51.7302 18.3661 51.7062 18.4122 51.671 18.4813C51.5164 18.7768 51.1464 19.4847 50.6269 20.4933C48.5917 24.443 44.2547 33.0155 41.4496 39.6285C41.1439 40.3492 40.8193 41.1276 40.4785 41.9487C39.4206 44.4952 38.2068 47.4601 36.9024 50.4504C35.5432 53.5596 34.0897 56.6952 32.6116 59.4177C31.6631 61.1632 30.7059 62.7387 29.7588 64.0289C28.6569 65.5279 27.5689 66.6394 26.5262 67.1815C26.3402 67.2805 26.1456 67.3625 25.9449 67.4266C25.9173 67.4367 25.8883 67.4455 25.8606 67.4531C25.8606 67.4531 26.7149 71.1866 24.4945 71.4544C23.4983 71.5751 23.1583 70.6986 23.0355 69.5505C22.8832 68.141 23.0585 66.3214 22.7524 65.428C22.1965 63.8085 19.2202 63.9492 18.5611 58.6475C18.5611 58.6475 16.6517 56.2019 16.0995 53.2367C16.2608 54.2024 16.8895 58.5068 15.1234 58.5068C13.1334 58.5068 14.2618 54.3408 13.5686 51.0218C12.8754 47.7029 9.81137 39.4454 9.81137 39.4454C9.81137 39.4454 10.2843 44.3434 7.87413 44.2653C5.46392 44.1872 6.0288 40.4816 6.67916 37.5906C7.32952 34.6995 6.5824 29.5551 5.81501 25.7689C5.23654 22.9106 4.86655 18.8063 5.05269 16.3493C5.10683 15.6262 5.21119 15.0453 5.37108 14.6819C5.38743 14.6441 5.40494 14.6089 5.42268 14.5762C5.12254 14.4514 4.82979 14.3095 4.54586 14.1513C4.48804 14.1197 4.42768 14.0859 4.36479 14.0506C4.25789 13.9889 4.14593 13.9235 4.03143 13.8519C3.98236 13.8203 3.93076 13.789 3.88053 13.7563C3.85151 13.7374 3.82271 13.7199 3.79483 13.701C3.62389 13.5891 3.44765 13.4659 3.27165 13.3325C3.24147 13.3095 3.21244 13.2865 3.18226 13.2635C3.09425 13.1944 3.00625 13.1253 2.91825 13.0497C2.88807 13.0244 2.85904 12.9993 2.83024 12.9742C2.77219 12.9252 2.71429 12.8736 2.65654 12.8194C2.56969 12.7402 2.48422 12.6582 2.40128 12.573C2.34576 12.5166 2.29047 12.4578 2.23633 12.4007C2.06475 12.2144 1.90509 12.0174 1.7583 11.8109C1.71821 11.7545 1.67928 11.6958 1.64149 11.6386C1.6226 11.6098 1.60371 11.5808 1.58597 11.552C1.5399 11.4765 1.49382 11.3998 1.45143 11.3217C1.42839 11.2775 1.40536 11.2335 1.38232 11.1895C1.36596 11.1568 1.34845 11.123 1.33325 11.0889C1.31805 11.0548 1.30307 11.026 1.28925 10.9933C1.27151 10.9558 1.25653 10.918 1.24018 10.8802C0.233888 8.44059 0.940686 5.56867 3.13711 4.2672C5.33352 2.96574 11.8781 2.64745 14.3247 1.93327C16.7713 1.21909 23.3094 -0.627054 30.3776 1.59241C37.4458 3.81188 40.1376 2.9001 43.5527 3.08941C45.0759 3.17485 48.3187 3.96596 51.262 5.46848C52.8493 6.27755 54.3468 7.29343 55.4445 8.51844C55.4459 8.51844 55.4459 8.51844 55.4471 8.51844C56.5315 9.73054 57.2221 11.1472 57.2095 12.7662Z" fill="#DF3E08"/>
<path opacity="0.2" d="M57.2092 12.7661C56.8432 13.586 56.2986 14.3092 55.5664 14.8497C53.3852 16.4605 49.7777 16.4455 48.6268 18.4425C48.6443 19.8407 48.662 21.2523 48.3828 22.6235C48.1036 23.9948 47.5023 25.3411 46.4608 26.2741C45.5623 27.0777 44.3348 27.5945 43.8077 28.6785C43.2594 29.8038 43.6506 31.2048 43.1525 32.354C42.7072 33.3814 41.653 33.9938 40.9626 34.8754C40.1102 35.9618 39.8545 37.4168 39.9323 38.795C39.9927 39.8613 40.2341 40.9039 40.4783 41.9463C39.4204 44.4928 38.2066 47.4578 36.9022 50.4481C36.1297 50.3136 35.4229 49.8886 35.0591 49.197C35.4176 51.2127 34.0125 53.3831 31.7949 53.8573C32.2817 55.6744 32.7699 57.5567 32.6114 59.4141C32.589 59.6769 32.5529 59.9382 32.5031 60.1972C32.1974 61.7893 31.1685 63.3372 29.7584 64.0263H29.7572C29.298 64.254 28.7952 64.3805 28.2828 64.3973C27.9508 64.4074 27.6085 64.3722 27.2922 64.4715C26.3071 64.7796 26.1403 66.149 26.5022 67.1147C26.5096 67.1361 26.5186 67.1575 26.5273 67.1789C26.4813 67.204 26.4352 67.2266 26.3877 67.2492C26.2446 67.3173 26.0971 67.3757 25.9461 67.424C25.9184 67.4341 25.8897 67.4429 25.8618 67.4505C25.8618 67.4505 26.716 71.184 24.4959 71.4518C24.437 71.4592 24.3778 71.463 24.3185 71.4631C24.2869 71.4631 24.2567 71.462 24.2279 71.4594C24.2052 71.4582 24.1825 71.4556 24.16 71.4518C24.1455 71.451 24.1312 71.4489 24.1171 71.4454C24.0982 71.4431 24.0807 71.4392 24.063 71.4355C24.0593 71.4341 24.0568 71.4341 24.0531 71.4329C24.0338 71.4289 24.0149 71.4234 23.9964 71.4166C23.874 71.3799 23.7605 71.3183 23.6631 71.2356C23.6481 71.2229 23.6343 71.2105 23.6204 71.1964C23.5501 71.1296 23.4882 71.0544 23.4361 70.9726C23.4212 70.9495 23.406 70.9249 23.3921 70.8998C23.3783 70.8747 23.3633 70.8482 23.3507 70.8217C23.2576 70.6283 23.188 70.4244 23.1433 70.2144C23.1357 70.1842 23.1295 70.1541 23.1233 70.1239C23.1171 70.0937 23.1106 70.0635 23.1055 70.0334C23.0825 69.9088 23.0641 69.78 23.0477 69.6485C23.0426 69.6158 23.039 69.582 23.0364 69.5479C23.0277 69.4599 23.0189 69.3706 23.0113 69.2789C22.9975 69.0979 22.9883 68.9104 22.9798 68.7206C22.9786 68.6601 22.9761 68.5986 22.9735 68.5364C22.9724 68.5025 22.971 68.4698 22.971 68.4357C22.971 68.3855 22.9685 68.3339 22.9673 68.2823C22.9609 67.9869 22.9586 67.6889 22.9546 67.3996C22.9521 67.275 22.951 67.1532 22.947 67.0336V67.0196C22.9445 66.9452 22.942 66.871 22.9397 66.7982C22.9383 66.7591 22.9371 66.7202 22.9346 66.6831C22.9321 66.646 22.9307 66.6064 22.9281 66.57C22.9194 66.4203 22.9095 66.2757 22.8943 66.1398C22.8918 66.1096 22.8881 66.0783 22.8841 66.0493C22.8791 66.0129 22.874 65.9765 22.8692 65.9413C22.8667 65.9167 22.8628 65.8924 22.8577 65.8683C22.8353 65.7189 22.8004 65.5717 22.7533 65.4282C22.1974 63.8086 19.2211 63.9494 18.562 58.6477C18.562 58.6477 16.6527 56.2021 16.1004 53.2369C16.2617 54.2025 16.8904 58.507 15.1243 58.507C13.1343 58.507 14.2627 54.3409 13.5695 51.022C12.8763 47.703 9.81229 39.4456 9.81229 39.4456C9.81229 39.4456 10.2853 44.3435 7.87505 44.2655C5.46484 44.1874 6.02972 40.4818 6.68008 37.5907C7.33044 34.6997 6.58332 29.5553 5.81594 25.769C5.29644 23.1974 4.94303 19.6162 5.01353 17.1351C5.01606 17.0623 5.0186 16.9893 5.0209 16.9188C5.02597 16.7806 5.03357 16.6459 5.04233 16.5151C5.04632 16.4586 5.05008 16.4033 5.05362 16.3493C5.05868 16.2763 5.06513 16.2058 5.07135 16.1367C5.08886 15.9455 5.11029 15.7682 5.13678 15.5998C5.14185 15.5646 5.14669 15.5294 5.15314 15.4953C5.16558 15.4161 5.18078 15.3382 5.19576 15.265C5.21718 15.1682 5.23861 15.0777 5.26257 14.9934C5.27132 14.9619 5.28008 14.9306 5.29137 14.9013C5.29897 14.8762 5.30657 14.8523 5.3144 14.8297C5.32316 14.8032 5.33214 14.7781 5.34205 14.753C5.35195 14.7279 5.36094 14.7051 5.37108 14.6825C5.38743 14.6448 5.40494 14.6095 5.42268 14.5768C5.12254 14.452 4.82979 14.3101 4.54587 14.1519C4.48804 14.1203 4.42768 14.0865 4.36479 14.0513C4.25789 13.9895 4.14593 13.9241 4.03143 13.8525C3.98236 13.8212 3.93076 13.7896 3.88053 13.7569C3.85151 13.738 3.82271 13.7205 3.79483 13.7017C3.62389 13.5897 3.44765 13.4665 3.27165 13.3332C3.24147 13.3101 3.21244 13.2871 3.18226 13.2641C3.09425 13.195 3.00625 13.1259 2.91825 13.0503C2.88807 13.0252 2.85904 12.9999 2.83024 12.9748C2.77219 12.9258 2.71429 12.8743 2.65654 12.8203C2.56968 12.741 2.48422 12.659 2.40128 12.5736C2.34576 12.5172 2.29047 12.4585 2.23633 12.4013C2.06481 12.215 1.90515 12.0181 1.7583 11.8117C1.71821 11.7551 1.67928 11.6966 1.64149 11.6395C1.6226 11.6105 1.60371 11.5814 1.58597 11.5527C1.5399 11.4771 1.49382 11.4004 1.45143 11.3223C1.42839 11.2784 1.40536 11.2344 1.38232 11.1902C1.36596 11.1574 1.34845 11.1236 1.33325 11.0897C1.31804 11.0559 1.30307 11.0269 1.28925 10.9942C1.27151 10.9564 1.25653 10.9186 1.24018 10.8808C0.233887 8.44144 0.940687 5.56928 3.13711 4.26781C5.33353 2.96635 11.8781 2.64806 14.3247 1.93388C16.7713 1.2197 23.3094 -0.626444 30.3776 1.59302C37.4459 3.81249 40.1376 2.90094 43.5527 3.09002C43.7425 3.10015 43.9602 3.12272 44.2005 3.15543C44.2609 3.16311 44.3223 3.17193 44.3848 3.18191C44.6025 3.21462 44.8364 3.25607 45.0842 3.30628C45.1395 3.31641 45.1962 3.32931 45.2529 3.34037C45.4218 3.37537 45.5966 3.41475 45.7772 3.45851C45.8378 3.47233 45.8982 3.4873 45.9597 3.5025C46.0818 3.53267 46.2062 3.56399 46.3334 3.59808C46.3974 3.61443 46.4603 3.63193 46.5246 3.64967C46.8201 3.73012 47.1245 3.81979 47.4378 3.91867C47.512 3.9417 47.5862 3.96473 47.6617 3.99029C47.7283 4.01171 47.7963 4.03313 47.8642 4.05708C48.3358 4.213 48.8201 4.38895 49.3082 4.58518C49.4004 4.62295 49.4944 4.66072 49.5874 4.70033C49.6805 4.73994 49.775 4.77702 49.868 4.81848C49.9611 4.85993 50.0542 4.89908 50.1484 4.94054C50.3359 5.0223 50.5232 5.10889 50.7108 5.19825C50.8029 5.24224 50.8932 5.28623 50.9849 5.3316C51.0766 5.37697 51.1692 5.42372 51.2614 5.46978C51.3609 5.52022 51.459 5.57181 51.5583 5.62455C51.8527 5.78047 52.1444 5.94399 52.4301 6.11626C52.5258 6.17291 52.6201 6.23072 52.713 6.28968C52.8074 6.34772 52.9005 6.40805 52.9922 6.4684C53.0892 6.53127 53.1859 6.59529 53.2815 6.6607C53.3647 6.71736 53.4451 6.77586 53.5255 6.83182C53.6226 6.90091 53.7182 6.97131 53.8123 7.04301C53.889 7.09967 53.9646 7.15817 54.0402 7.21781C54.0516 7.22592 54.0626 7.23477 54.0729 7.2443C54.2326 7.37005 54.3877 7.49871 54.5383 7.63029C54.547 7.63789 54.5546 7.64411 54.5613 7.65171C54.6369 7.71712 54.711 7.78368 54.7827 7.85162C54.7954 7.8629 54.808 7.87465 54.8193 7.88548C54.8847 7.94582 54.9502 8.00869 55.0131 8.07156C55.072 8.12822 55.1299 8.18672 55.1854 8.24521C55.2218 8.2816 55.2584 8.31937 55.2923 8.35714C55.3439 8.41127 55.3941 8.46516 55.4432 8.52066C55.4446 8.52066 55.4446 8.52066 55.4457 8.52066C55.4798 8.55843 55.5123 8.5962 55.545 8.63397C55.6104 8.70921 55.6746 8.78598 55.7376 8.86428C55.9937 9.17884 56.2234 9.514 56.4244 9.86635C56.4658 9.9382 56.5061 10.0098 56.5439 10.0826C56.8583 10.677 57.0664 11.3217 57.159 11.9877C57.1942 12.2457 57.2109 12.5058 57.2092 12.7661Z" fill="#000215"/>
<path d="M46.7277 18.1658C46.9883 19.9852 47.4209 22.362 45.8422 22.9101C44.2634 23.4583 43.6838 21.9696 43.6838 21.9696C43.6838 21.9696 43.7706 25.0757 42.1693 28.4859C40.5679 31.896 38.7 33.6065 38.3994 37.2721C38.0987 40.9377 39.8447 46.0155 37.0749 46.8655C34.3051 47.7156 34.6246 43.6124 34.6246 43.6124C34.6246 43.6124 33.7918 46.0809 33.611 47.8374C33.4301 49.594 33.7506 51.0603 32.7519 51.517C31.7532 51.9737 31.0109 50.6932 30.9644 49.4212C30.9644 49.4212 30.226 52.0859 30.6188 55.2448C31.0116 58.4037 31.0439 61.1625 29.4476 62.0893C28.2337 62.7959 27.5444 61.482 26.5973 61.6517C25.0186 61.937 25.3432 65.399 25.7998 67.343C25.85 67.5542 25.9168 67.8359 25.9733 68.1553C26.1986 69.4154 26.2651 71.2401 24.494 71.4538C24.4352 71.4612 24.3761 71.465 24.3168 71.4651C24.2853 71.4651 24.2551 71.4639 24.2263 71.4614C24.2035 71.4602 24.1808 71.4576 24.1583 71.4538C24.1439 71.453 24.1295 71.4508 24.1155 71.4473C24.0966 71.445 24.0791 71.4411 24.0614 71.4374C24.0577 71.4361 24.0537 71.4361 24.0514 71.4349C24.0322 71.4308 24.0132 71.4254 23.9948 71.4186C23.8723 71.3819 23.7588 71.3203 23.6614 71.2375C23.6465 71.2252 23.6322 71.2121 23.6186 71.1984C23.5482 71.1315 23.4864 71.0564 23.4343 70.9745C23.4193 70.9515 23.4041 70.9269 23.3903 70.9018C23.3751 70.8765 23.3612 70.8504 23.3488 70.8237C23.2557 70.6302 23.1861 70.4263 23.1415 70.2164C23.1339 70.1862 23.1276 70.156 23.1214 70.1259C23.1152 70.0957 23.1099 70.0655 23.1037 70.0353C23.0806 69.9121 23.0608 69.7838 23.0458 69.6505C23.0422 69.6166 23.0382 69.5839 23.0346 69.5499C22.8823 68.1404 23.0576 66.3207 22.7514 65.4274C22.1955 63.8078 19.2193 63.9486 18.5602 58.6469C18.5602 58.6469 16.7377 56.3118 16.1389 53.4396C16.1251 53.3717 16.1113 53.304 16.0986 53.236C16.1099 53.3065 16.1251 53.3956 16.1401 53.4988C16.2407 54.1566 16.3967 55.4152 16.3186 56.5066C16.2433 57.5891 15.9376 58.5062 15.1225 58.5062C14.5627 58.5062 14.2496 58.1766 14.0733 57.6296C13.6229 56.23 14.0657 53.4069 13.5665 51.0198C12.988 48.2421 10.7465 42.0061 10.0307 40.0457C9.89106 39.6634 9.80928 39.4434 9.80928 39.4434C9.80928 39.4434 10.2822 44.3414 7.87203 44.2633C6.84685 44.2294 6.36007 43.5404 6.19028 42.536C5.9599 41.1804 6.30547 39.2502 6.67822 37.589C7.32995 34.6993 6.58146 29.5536 5.81407 25.7673C5.0658 22.0665 4.66449 16.2757 5.37014 14.6801C5.38649 14.6423 5.404 14.6071 5.42174 14.5744C5.12172 14.4493 4.82899 14.3075 4.54492 14.1495C7.85683 10.8195 20.2051 1.3154 44.9893 12.9056C45.6662 13.2225 46.3521 13.5549 47.0473 13.9028C47.0473 13.9028 46.4681 16.3462 46.7277 18.1658Z" fill="#FFD91F"/>
<path opacity="0.2" d="M56.9834 14.353C55.684 19.0662 51.7519 18.3256 51.7519 18.3256C51.7493 18.3316 51.7463 18.3374 51.743 18.3431C51.7305 18.3661 51.7066 18.4122 51.6713 18.4813C51.5167 18.7767 51.1467 19.4847 50.6272 20.4932C49.5417 20.3714 48.4324 20.0833 47.387 19.6897C47.2273 19.6293 47.0688 19.5665 46.9103 19.5024C47.0801 20.9962 47.0525 22.4914 45.8423 22.911C44.2638 23.4582 43.6839 21.9704 43.6839 21.9704C43.6839 21.9704 43.7707 25.0766 42.1694 28.4867C40.568 31.8969 38.7001 33.6074 38.3995 37.2729C38.0989 40.9385 39.8449 46.0163 37.0751 46.8664C34.3052 47.7164 34.6245 43.6112 34.6245 43.6112C34.6245 43.6112 33.7919 46.0796 33.6109 47.8362C33.4298 49.5928 33.7505 51.0591 32.7518 51.5158C31.7531 51.9725 31.0108 50.692 30.9643 49.42C30.9643 49.42 30.2259 52.0847 30.6187 55.2436C31.0115 58.4025 31.044 61.1613 29.4477 62.0881C28.2339 62.7946 27.5446 61.4807 26.5975 61.6505C25.0187 61.9358 25.3433 65.3978 25.7999 67.3418C25.8501 67.553 25.917 67.8347 25.9734 68.1541C26.098 69.2495 26.1006 71.2589 24.4941 71.4526C24.4354 71.46 24.3762 71.4637 24.317 71.4639C24.2854 71.4639 24.2552 71.4627 24.2262 71.4602C24.2035 71.4589 24.1809 71.4564 24.1585 71.4526C24.144 71.4518 24.1297 71.4496 24.1156 71.4461C24.0967 71.4438 24.079 71.4399 24.0615 71.4362C24.0578 71.4348 24.0539 71.4348 24.0514 71.4337C24.0322 71.4296 24.0133 71.4241 23.9949 71.4173C23.8725 71.3807 23.7589 71.3191 23.6616 71.2363C23.6466 71.224 23.6323 71.2109 23.6187 71.1972C23.5484 71.1303 23.4865 71.0552 23.4344 70.9733C23.4192 70.9503 23.4042 70.9256 23.3904 70.9005C23.3752 70.8752 23.3614 70.8492 23.3489 70.8225C23.2557 70.6291 23.1861 70.4251 23.1416 70.2151C23.134 70.185 23.1278 70.1548 23.1213 70.1246C23.1149 70.0945 23.11 70.0643 23.1038 70.0341C23.0748 69.8782 23.0536 69.7172 23.0347 69.5505V69.5491C23.583 69.3648 24.0534 69.0247 24.3303 68.5772C24.8761 67.6956 24.8473 66.5765 24.6775 65.5528C24.5077 64.5291 24.2168 63.5081 24.3002 62.4734C24.3836 61.4386 24.9604 60.3532 25.9566 60.0627C26.821 59.8094 27.944 60.1394 28.5115 59.4409C28.7504 59.148 28.8045 58.75 28.8499 58.3746C29.2157 55.3313 29.4719 51.6533 30.1416 48.3159C30.1643 48.2038 30.2145 48.0992 30.2878 48.0113C30.3611 47.9235 30.4551 47.8553 30.5613 47.8129C30.6675 47.7704 30.7826 47.7551 30.8963 47.7683C31.0099 47.7814 31.1185 47.8227 31.2122 47.8882C33.0091 49.1395 33.0285 46.7489 33.231 45.2828C33.4095 43.9901 33.9316 42.7724 34.2776 41.5129C34.4688 40.8162 34.6022 40.0806 34.592 39.36C34.8335 40.5408 35.0745 41.7216 35.3152 42.9023C35.3719 43.1787 35.4435 43.4795 35.6714 43.6469C36.2374 44.0615 36.9078 43.2531 37.0877 42.5741C37.9468 39.3211 37.0877 35.7976 37.9657 32.5493C39.1079 28.3255 43.0146 25.1855 43.8046 20.8824C44.006 21.1768 44.4978 21.1201 44.7432 20.856C44.9885 20.5918 45.045 20.2083 45.074 19.8488C45.074 19.8424 45.074 19.8362 45.074 19.8286C45.1281 19.1395 44.7545 18.4893 44.147 18.1574C43.0437 17.5563 41.9607 16.9138 40.8551 16.3189C38.64 15.1282 36.289 14.1146 33.7984 13.7662C30.6385 13.3249 27.4448 13.9735 24.2674 14.2618C21.0901 14.5501 17.6761 14.4203 15.0259 12.6446C13.6206 14.473 11.7137 15.6865 9.62834 16.2233C8.13096 16.606 6.56678 16.6481 5.05097 16.3465C5.10488 15.6236 5.20947 15.0425 5.36912 14.6791C5.38548 14.6413 5.40299 14.6063 5.42073 14.5736C5.12056 14.4488 4.82781 14.3069 4.54391 14.1485C4.48608 14.1172 4.42573 14.0831 4.36283 14.0478C4.25594 13.9864 4.14397 13.9209 4.02948 13.8493C3.98041 13.8178 3.9288 13.7865 3.87858 13.7537C3.84955 13.7349 3.82075 13.7171 3.79311 13.6982C3.62194 13.5865 3.44593 13.4631 3.26969 13.3298C3.23951 13.3067 3.21072 13.2837 3.18054 13.2607C3.0923 13.193 3.0043 13.1225 2.91629 13.0469C2.88611 13.0218 2.85709 12.9967 2.82829 12.9716C2.77039 12.9226 2.71249 12.8711 2.65458 12.8169C2.56796 12.7376 2.48226 12.6556 2.39933 12.5704C2.34403 12.5138 2.28851 12.4553 2.23461 12.3982C2.06301 12.2118 1.90335 12.0148 1.75657 11.8083C1.71626 11.7517 1.67732 11.6932 1.63954 11.6361C1.62065 11.6073 1.60176 11.5783 1.58425 11.5492C1.53817 11.4739 1.4921 11.3972 1.44948 11.3189C1.42644 11.275 1.4034 11.231 1.38037 11.187C1.36401 11.1543 1.3465 11.1202 1.3313 11.0863C1.31609 11.0525 1.30112 11.0235 1.28729 10.9908C1.26979 10.953 1.25458 10.9152 1.23822 10.8777C0.231935 8.43803 0.938732 5.56587 3.13515 4.26441C5.33157 2.96294 11.8761 2.64489 14.3227 1.93047C16.7694 1.21606 23.3075 -0.629619 30.3757 1.58985C37.4439 3.80932 40.1356 2.89753 43.5507 3.08685C45.8953 3.21743 52.3131 5.02143 55.4426 8.51657C55.444 8.51657 55.444 8.51657 55.4451 8.51795C56.8728 10.1108 57.6185 12.0557 56.9834 14.353Z" fill="#000215"/>
<path d="M24.3172 72C24.2729 72 24.2303 71.9982 24.1893 71.9949C24.1564 71.9929 24.1232 71.9894 24.0909 71.9846C24.0713 71.9825 24.0448 71.9793 24.0163 71.9733C23.9932 71.9694 23.9702 71.9648 23.9472 71.9599L23.9308 71.9562C23.8961 71.9484 23.8619 71.9387 23.8283 71.9272C23.6401 71.869 23.4656 71.7733 23.3152 71.646C23.2922 71.6278 23.2692 71.6059 23.2461 71.5822C23.1467 71.4867 23.059 71.3796 22.9849 71.2633C22.9642 71.2308 22.9453 71.2001 22.9275 71.1686C22.9063 71.1329 22.887 71.096 22.869 71.0587C22.7576 70.8281 22.6741 70.585 22.6202 70.3346C22.6137 70.3086 22.6057 70.2716 22.5972 70.2342C22.5886 70.1969 22.5826 70.1651 22.5767 70.1297C22.552 70.0012 22.5306 69.8669 22.5149 69.7204C22.5092 69.6801 22.5043 69.6384 22.5011 69.5967C22.4921 69.5076 22.4834 69.4171 22.4757 69.3241C22.4608 69.1444 22.4497 68.9477 22.4428 68.7398C22.4414 68.6785 22.4391 68.623 22.437 68.5666C22.437 68.5666 22.437 68.55 22.437 68.5493C22.4357 68.5138 22.4345 68.4802 22.4343 68.4438L22.4308 68.296C22.426 68.0744 22.4235 67.8529 22.4209 67.6348L22.4158 67.2881C22.4145 67.208 22.4131 67.129 22.4108 67.0512C22.4108 67.0456 22.4108 67.0401 22.4108 67.0343V67.0284L22.4013 66.7679C22.4013 66.7469 22.3993 66.7262 22.3986 66.705L22.3933 66.6051C22.3857 66.4761 22.376 66.331 22.3613 66.1986L22.3599 66.1841C22.358 66.161 22.3553 66.1392 22.3525 66.118L22.3382 66.0166C22.337 66.0088 22.3361 66.0011 22.3354 65.9936C22.3349 65.9887 22.3342 65.9839 22.3331 65.9791C22.3313 65.9706 22.3297 65.9621 22.3283 65.9535C22.3108 65.8342 22.2833 65.7165 22.2461 65.6018C22.1138 65.2163 21.7484 64.9392 21.2428 64.5558C20.0989 63.6882 18.5379 62.5042 18.0484 58.8566C17.5905 58.2247 17.182 57.5585 16.8262 56.864C16.7451 57.5363 16.5663 58.1307 16.2337 58.5238C15.9469 58.8628 15.563 59.042 15.1237 59.042C14.5445 59.042 13.7919 58.7815 13.4943 57.5397C13.318 56.805 13.3118 55.8654 13.3047 54.7776C13.297 53.6153 13.2883 52.2975 13.0446 51.1303C12.6091 49.0407 11.1965 44.903 10.2388 42.2026C10.1006 42.9475 9.84231 43.6796 9.37833 44.1741C8.97632 44.6024 8.45014 44.8189 7.85784 44.7994C7.16878 44.7763 6.60089 44.5013 6.21524 44.003C5.17301 42.6557 5.60129 39.9456 6.15765 37.4721C6.83772 34.4567 5.90654 28.9114 5.2912 25.8743C4.74313 23.1616 4.40885 19.5614 4.4782 17.1188L4.4858 16.899C4.4911 16.7542 4.49893 16.6142 4.50884 16.478L4.52012 16.3108C4.52542 16.2344 4.5321 16.16 4.53878 16.087C4.55791 15.8774 4.58071 15.6906 4.6079 15.5154C4.61297 15.4794 4.61873 15.4412 4.62541 15.4039C4.639 15.3184 4.65536 15.2346 4.67148 15.1559C4.69245 15.0545 4.71756 14.9536 4.74474 14.8565C4.61274 14.792 4.45861 14.7132 4.28906 14.6202C4.2393 14.5932 4.18539 14.563 4.1294 14.5317L4.10406 14.5174C3.98588 14.4483 3.86839 14.3806 3.74813 14.3053L3.6804 14.2627C3.65022 14.2438 3.61981 14.2247 3.58986 14.2051L3.56014 14.186C3.5371 14.172 3.51591 14.1579 3.49448 14.1432C3.31018 14.0223 3.12265 13.8899 2.94734 13.7565L2.86187 13.6913C2.74783 13.6034 2.65706 13.5301 2.57044 13.4557C2.54464 13.4343 2.51423 13.4078 2.48359 13.3813C2.42046 13.3277 2.35619 13.2706 2.29191 13.2107C2.2069 13.1328 2.11406 13.0432 2.02053 12.9484C1.96109 12.8877 1.90296 12.827 1.84613 12.7662C1.65819 12.5625 1.4833 12.3471 1.32248 12.1213C1.27848 12.0594 1.2354 11.9956 1.19393 11.932C1.16905 11.894 1.14786 11.8629 1.12966 11.8311C1.07967 11.7503 1.02991 11.6658 0.982909 11.5799C0.955954 11.5304 0.931534 11.4829 0.907114 11.4355L0.893983 11.4097C0.878548 11.3788 0.862652 11.347 0.847908 11.3155C0.830629 11.2793 0.814964 11.2464 0.800219 11.2118C0.787318 11.1837 0.775338 11.1559 0.763589 11.1276L0.749305 11.0942C-0.392676 8.32587 0.518928 5.19691 2.86463 3.80747C4.32154 2.94451 7.42611 2.5067 10.1635 2.12047C11.7687 1.89385 13.2848 1.6799 14.175 1.42011C16.4081 0.767188 23.204 -1.22036 30.5385 1.08248C35.7089 2.70706 38.5029 2.62554 40.9679 2.55644C41.851 2.53111 42.6847 2.50739 43.5829 2.55644C43.7801 2.56681 44.0064 2.58961 44.2729 2.62554C44.334 2.63337 44.4015 2.64281 44.4704 2.65386C44.6943 2.68749 44.9385 2.73102 45.1917 2.78237C45.2205 2.78744 45.2608 2.79573 45.3009 2.80425L45.3587 2.816C45.5517 2.8563 45.7289 2.89615 45.9047 2.93898C45.9508 2.94935 46.0033 2.96201 46.0567 2.9756L46.0883 2.9832C46.2143 3.01452 46.3417 3.04677 46.4723 3.08154C46.5223 3.09421 46.5772 3.10918 46.6324 3.12461L46.667 3.13405C46.9771 3.21835 47.2915 3.31116 47.6005 3.40927C47.6733 3.4323 47.7518 3.45648 47.8309 3.4832L47.8504 3.48942C47.9138 3.50968 47.9781 3.53018 48.0424 3.55298C48.5285 3.7142 49.0249 3.89499 49.508 4.08914L49.5274 4.09697C49.6165 4.13313 49.7054 4.16928 49.7946 4.20659C49.8838 4.2439 49.984 4.28421 50.081 4.32727C50.1586 4.35975 50.2362 4.39406 50.3146 4.42861L50.3641 4.45164C50.5362 4.52672 50.7256 4.61285 50.94 4.71603C51.0352 4.76209 51.1273 4.80654 51.2211 4.8526C51.3149 4.89867 51.4086 4.94588 51.5031 4.99378C51.6051 5.04537 51.7065 5.09857 51.809 5.15315C52.1258 5.32082 52.4278 5.49125 52.7061 5.65983C52.8026 5.71695 52.9017 5.77775 52.9994 5.8397C53.0915 5.89613 53.1892 5.95946 53.2857 6.02395C53.3823 6.08843 53.4841 6.15407 53.5834 6.22201C53.6447 6.2637 53.7057 6.30676 53.7661 6.3496L53.8331 6.39704C53.9373 6.47143 54.0372 6.5449 54.1358 6.61998C54.207 6.67226 54.2828 6.73145 54.3588 6.7911C54.3819 6.80791 54.401 6.82357 54.4148 6.83555C54.5779 6.96429 54.7374 7.09718 54.8901 7.23029C54.9012 7.23974 54.9118 7.24895 54.9221 7.25862C54.9984 7.32495 55.0732 7.39243 55.1458 7.46106C55.1606 7.47419 55.1751 7.48778 55.1889 7.50091C55.2559 7.56309 55.323 7.62757 55.3877 7.69229C55.4501 7.75217 55.5114 7.81343 55.5704 7.87654C55.6093 7.91592 55.6483 7.95622 55.6856 7.99676C55.7317 8.04581 55.7777 8.0951 55.8238 8.1453L55.834 8.15567C55.8376 8.15935 55.8413 8.16327 55.845 8.16741C55.8809 8.20749 55.9155 8.24733 55.9503 8.28717C56.0194 8.36847 56.0885 8.45 56.1556 8.53291C56.4303 8.87031 56.6769 9.22972 56.8928 9.60752C56.9345 9.67984 56.9764 9.75676 57.0183 9.83507C57.3706 10.511 57.5963 11.2114 57.6917 11.9212C57.7314 12.2051 57.7494 12.4915 57.7456 12.7782C57.7402 13.3611 57.6576 13.9408 57.4998 14.502C56.3422 18.7014 53.1892 18.9492 52.0611 18.897C51.0753 20.7818 45.3815 31.735 41.9433 39.8422C41.6164 40.6128 41.2697 41.4456 40.9739 42.1587C40.7844 42.6148 40.59 43.0835 40.3908 43.5647C39.4873 45.7363 38.4658 48.2035 37.3932 50.6632C35.7962 54.3205 34.3895 57.2604 33.0934 59.6498C33.0899 59.6574 33.086 59.6648 33.0821 59.6728C32.0641 61.5461 31.0912 63.1182 30.1904 64.3453C30.1837 64.3543 30.177 64.3628 30.1699 64.3713C28.9507 66.0272 27.8394 67.1018 26.773 67.6559C26.7269 67.6806 26.6739 67.7068 26.6207 67.7329C26.5675 67.7589 26.5198 67.7789 26.4693 67.802C26.5894 68.5887 26.7085 70.1433 26.0118 71.1336C25.6711 71.6172 25.1686 71.9127 24.5586 71.9857C24.4785 71.9953 24.3978 72.0001 24.3172 72ZM24.2517 70.9291H24.2545H24.2517ZM24.2183 70.9215C24.2296 70.9215 24.2414 70.9245 24.2499 70.9256L24.2729 70.9275C24.3255 70.9306 24.3783 70.9288 24.4305 70.9219C24.744 70.8839 24.968 70.7554 25.1359 70.5171C25.6766 69.7499 25.466 68.1301 25.3393 67.5707C25.3088 67.4361 25.3313 67.2949 25.4024 67.1765C25.4734 67.0581 25.5874 66.9717 25.7206 66.9353C25.7347 66.9314 25.7494 66.9273 25.7635 66.9222C25.7699 66.9197 25.7764 66.9176 25.7828 66.9155C25.9109 66.8744 26.0362 66.8248 26.1576 66.767C26.1927 66.7499 26.2325 66.7308 26.2728 66.7094C27.1907 66.2322 28.2156 65.2248 29.3274 63.711C29.3336 63.7023 29.3403 63.6937 29.3472 63.6855C30.2109 62.5056 31.1474 60.9909 32.1313 59.1816C32.1348 59.1744 32.1385 59.1671 32.1424 59.1599C33.427 56.7938 34.8238 53.8746 36.4129 50.2351C37.4816 47.7853 38.5017 45.3222 39.402 43.1492C39.6017 42.668 39.7961 42.199 39.9854 41.742C40.2821 41.0281 40.6304 40.1923 40.958 39.4182C44.5332 30.989 50.5265 19.5123 51.1981 18.2316L51.2188 18.1918C51.2362 18.1583 51.2502 18.1313 51.261 18.1109C51.3467 17.862 51.5904 17.7498 51.8521 17.7993C51.9903 17.8242 55.3211 18.3712 56.4682 14.2109C56.601 13.7397 56.6707 13.253 56.6755 12.7634C56.6754 12.7617 56.6754 12.76 56.6755 12.7584C56.6784 12.5249 56.6636 12.2915 56.6313 12.0603C56.5468 11.455 56.3575 10.8691 56.0717 10.3288C56.0381 10.2662 56.0026 10.1996 55.9637 10.1333C55.7763 9.80493 55.5622 9.49251 55.3237 9.19919C55.2644 9.12595 55.2043 9.05402 55.1433 8.98339C55.1186 8.95506 55.0942 8.92697 55.0696 8.8991C55.061 8.89081 55.053 8.88229 55.0451 8.87331C55.0004 8.82287 54.9544 8.77358 54.9069 8.7243L54.8965 8.71301C54.8687 8.68215 54.8387 8.65106 54.8088 8.62089C54.8046 8.61697 54.8007 8.61283 54.797 8.60868C54.7482 8.55663 54.697 8.50574 54.645 8.45599L54.6367 8.4477C54.5789 8.38989 54.5185 8.33254 54.4584 8.27658C54.4531 8.27174 54.448 8.26668 54.4429 8.26161L54.4275 8.24756L54.4167 8.23766C54.3508 8.17524 54.2824 8.11398 54.213 8.05341C54.2068 8.04811 54.2006 8.04259 54.1946 8.03683L54.1872 8.03038C54.0451 7.90625 53.8956 7.78234 53.743 7.66189C53.7358 7.65636 53.7289 7.6506 53.7223 7.64462L53.7115 7.63633C53.6361 7.57737 53.5668 7.52302 53.4963 7.47097C53.3998 7.39773 53.3086 7.33048 53.2159 7.26369L53.1496 7.21763C53.0941 7.17848 53.0386 7.13909 52.9814 7.10017C52.8893 7.03661 52.7962 6.97465 52.7022 6.91431C52.6126 6.85559 52.5241 6.79916 52.4345 6.7432C52.3391 6.68263 52.2502 6.62804 52.158 6.57392C51.8931 6.41409 51.6084 6.25356 51.3084 6.09465C51.2117 6.04306 51.1167 5.99332 51.0207 5.94472C50.9308 5.89866 50.8417 5.85398 50.7514 5.80999C50.6611 5.766 50.5698 5.72109 50.4797 5.67803C50.2763 5.58107 50.0975 5.49908 49.9349 5.42814L49.8828 5.40511C49.8087 5.37241 49.7354 5.33993 49.6617 5.30907L49.6506 5.30424C49.5631 5.26531 49.4744 5.2287 49.3868 5.19323C49.2947 5.155 49.2104 5.12045 49.1251 5.08591L49.1074 5.07877C48.6466 4.89452 48.1716 4.71995 47.6968 4.56288C47.6325 4.53985 47.5784 4.52304 47.5249 4.50599L47.4989 4.4977C47.4219 4.47214 47.3521 4.44957 47.2823 4.42861C46.9812 4.33311 46.6817 4.2449 46.3839 4.16399L46.3475 4.15385C46.2986 4.14049 46.2502 4.12714 46.2012 4.11447C46.0717 4.07992 45.9503 4.04929 45.8326 4.02004L45.801 4.01221C45.7533 4.00047 45.7063 3.98918 45.6591 3.97813C45.4877 3.93644 45.3216 3.8989 45.1447 3.86297L45.0834 3.85031C45.0518 3.84386 45.0207 3.83718 44.9899 3.83165C44.7436 3.78191 44.5176 3.7416 44.3068 3.70982C44.2448 3.69992 44.1891 3.69209 44.1345 3.68518C43.8953 3.65263 43.6922 3.63198 43.5251 3.62323C42.6709 3.57578 41.859 3.60019 40.9993 3.62323C38.4497 3.69646 35.56 3.7796 30.2176 2.10113C23.1929 -0.104295 16.6315 1.81416 14.4754 2.44498C13.5104 2.72687 11.9572 2.94612 10.3125 3.1785C7.67353 3.55045 4.68254 3.97237 3.41017 4.72617C1.51877 5.84638 0.798837 8.40371 1.73555 10.6745L1.75007 10.7086C1.75813 10.7277 1.76596 10.7466 1.77472 10.7655C1.77748 10.7713 1.78001 10.7773 1.78255 10.783C1.79268 10.806 1.80374 10.8291 1.81457 10.8521C1.81664 10.8562 1.82056 10.8648 1.8224 10.8691C1.83116 10.8883 1.84083 10.9071 1.85028 10.926L1.8618 10.9491C1.87954 10.9834 1.9005 11.0239 1.92239 11.0642C1.95971 11.1333 2.00049 11.201 2.04218 11.2687C2.05739 11.2936 2.07213 11.3162 2.08665 11.3378C2.12397 11.3952 2.15899 11.4472 2.19539 11.499C2.32928 11.6871 2.47478 11.8666 2.63103 12.0366C2.67918 12.0879 2.7317 12.143 2.78423 12.1978C2.86325 12.2779 2.94227 12.3542 3.01783 12.4233C3.07381 12.4755 3.12542 12.5214 3.17679 12.5651C3.20997 12.5939 3.23508 12.6156 3.26111 12.6372C3.33921 12.7042 3.41639 12.7666 3.50969 12.8387L3.59332 12.9021C3.75182 13.0232 3.91684 13.1399 4.0884 13.2521C4.1089 13.266 4.12157 13.2752 4.13447 13.2821L4.17364 13.3072C4.19668 13.3228 4.2234 13.339 4.24874 13.3548L4.32108 13.4009C4.42452 13.4656 4.53095 13.5278 4.63255 13.5852L4.65236 13.5962C4.70397 13.625 4.75373 13.6531 4.80165 13.6791C5.06665 13.8267 5.33969 13.9594 5.61949 14.0766C5.68981 14.1045 5.75344 14.1469 5.80621 14.2011C5.85897 14.2552 5.89967 14.32 5.92563 14.391C5.95159 14.462 5.96222 14.5377 5.95682 14.6131C5.95143 14.6886 5.93013 14.762 5.89433 14.8286C5.8835 14.8486 5.87267 14.87 5.86253 14.8933C5.85539 14.9097 5.84986 14.9223 5.84502 14.9352C5.84341 14.9401 5.84134 14.9449 5.8395 14.9497C5.83351 14.9649 5.82821 14.9801 5.82291 14.9958C5.82014 15.0045 5.81692 15.0133 5.81346 15.0218C5.81001 15.0303 5.80701 15.0418 5.80379 15.0524C5.80056 15.063 5.79642 15.0755 5.79227 15.0865C5.78628 15.1024 5.78236 15.119 5.77776 15.1358C5.75518 15.2147 5.73575 15.2936 5.71947 15.3723C5.70611 15.4368 5.69251 15.5066 5.68123 15.5773C5.68123 15.5819 5.67984 15.5868 5.67892 15.5914C5.67409 15.6169 5.67063 15.6432 5.66671 15.6697C5.66671 15.6722 5.66533 15.6789 5.6651 15.6814C5.64206 15.8336 5.6211 15.9981 5.60382 16.1839C5.59806 16.2487 5.59207 16.3152 5.58723 16.3841L5.57595 16.549C5.56765 16.675 5.56028 16.8039 5.55544 16.9366L5.54807 17.1519C5.4808 19.519 5.80655 23.0197 6.34034 25.6613C6.97272 28.782 7.92556 34.497 7.20195 37.7064C6.95084 38.8217 6.18829 42.2165 7.06188 43.347C7.25378 43.5949 7.51757 43.7155 7.89124 43.7284C8.17898 43.7369 8.40314 43.6462 8.59619 43.441C9.38432 42.602 9.35644 40.3088 9.27765 39.4947C9.26525 39.3653 9.30036 39.2358 9.37643 39.1304C9.4525 39.025 9.56433 38.9508 9.69107 38.9217C9.81781 38.8927 9.95079 38.9107 10.0652 38.9724C10.1796 39.0342 10.2677 39.1354 10.313 39.2573C10.4388 39.5958 13.4 47.5898 14.0912 50.9108C14.3568 52.1828 14.3658 53.557 14.3738 54.7698C14.3803 55.7491 14.3863 56.6742 14.5351 57.2894C14.6982 57.9704 14.9539 57.9704 15.123 57.9704C15.247 57.9704 15.3317 57.9301 15.4154 57.8322C15.9416 57.2104 15.8727 55.1208 15.5709 53.3253C15.5488 53.1867 15.5821 53.0449 15.6636 52.9306C15.745 52.8162 15.8681 52.7384 16.0064 52.714C16.1447 52.6895 16.2871 52.7202 16.4029 52.7997C16.5186 52.8791 16.5986 53.0008 16.6255 53.1385C17.1462 55.9338 18.9648 58.2951 18.983 58.3186C19.0425 58.3948 19.0802 58.4857 19.0922 58.5816C19.5039 61.8932 20.8267 62.8964 21.8894 63.7027C22.4711 64.144 23.0204 64.5606 23.2586 65.2543C23.3144 65.4229 23.3561 65.5958 23.3832 65.7713C23.3901 65.8057 23.3954 65.8404 23.3993 65.8761L23.4134 65.9766C23.4182 66.0141 23.4226 66.0514 23.4258 66.0873C23.4429 66.2421 23.4535 66.4019 23.4615 66.5383L23.4675 66.6472C23.4675 66.6534 23.4675 66.6596 23.4675 66.6661L23.48 67.0016C23.48 67.0079 23.48 67.0139 23.48 67.0201V67.0268C23.4823 67.1069 23.4837 67.188 23.4853 67.2706L23.4901 67.6228C23.4926 67.8377 23.4952 68.0558 23.4998 68.2725L23.5037 68.424V68.4372C23.5037 68.462 23.5037 68.4862 23.5058 68.5108L22.9711 68.5456L23.5062 68.5242C23.5088 68.5878 23.5113 68.6504 23.5124 68.7117C23.5187 68.8959 23.5288 69.0742 23.5422 69.2368C23.5495 69.3257 23.5581 69.4118 23.5666 69.4966C23.5666 69.5012 23.5666 69.5058 23.5666 69.5104C23.568 69.53 23.5703 69.5495 23.573 69.5684C23.5742 69.5758 23.5753 69.5832 23.576 69.5914C23.5901 69.7165 23.6069 69.8287 23.6274 69.9346L23.6302 69.9489C23.6339 69.9719 23.6387 69.9949 23.6435 70.018C23.6484 70.041 23.6532 70.064 23.659 70.0871C23.705 70.2927 23.761 70.4556 23.8253 70.5834L23.8304 70.594C23.8357 70.605 23.8412 70.617 23.8476 70.6267C23.8511 70.6324 23.8543 70.6382 23.8573 70.6437C23.8658 70.6592 23.8755 70.6737 23.8847 70.6884C23.9129 70.7328 23.9462 70.7737 23.984 70.8102C23.9877 70.8135 23.9914 70.8169 23.9949 70.8206C23.9983 70.8243 24.0029 70.8277 24.0045 70.8291C24.0459 70.8645 24.0943 70.8909 24.1464 70.9065L24.1695 70.9136L24.1787 70.9159L24.1891 70.918C24.2004 70.9183 24.2093 70.9196 24.2183 70.9215ZM24.1589 70.9097L24.1676 70.9116L24.1589 70.9097ZM51.2745 18.0826V18.084V18.0826ZM54.1838 8.02739C54.1843 8.02786 54.1849 8.02841 54.1854 8.029C54.1849 8.02857 54.1843 8.02818 54.1838 8.02785V8.02739ZM53.7311 7.65222L53.7433 7.66051L53.7311 7.65222Z" fill="#000215"/>
<path d="M24.3203 71.9996C23.8307 71.9996 23.4978 71.8054 23.2963 71.629C22.4614 70.8985 22.4413 69.2942 22.4208 67.7424C22.4105 66.9119 22.3996 66.0533 22.2446 65.6005C22.1121 65.2152 21.747 64.9379 21.2413 64.5545C20.0972 63.6869 18.5362 62.5029 18.0469 58.8553C17.5889 58.2234 17.1802 57.5572 16.8245 56.8627C16.7436 57.5352 16.5646 58.1294 16.2322 58.5225C15.9454 58.8615 15.5613 59.0407 15.122 59.0407C14.5428 59.0407 13.7902 58.7802 13.4925 57.5384C13.3163 56.8037 13.3103 55.8641 13.3032 54.7763C13.2953 53.614 13.2868 52.2964 13.0431 51.1289C12.6074 49.0394 11.195 44.9017 10.2371 42.2013C10.0989 42.9461 9.8406 43.6785 9.37662 44.1727C8.97484 44.6011 8.45073 44.8158 7.85613 44.7983C7.1673 44.7752 6.59942 44.4989 6.21377 44.0016C5.17131 42.6543 5.59958 39.9443 6.15617 37.4708C6.83602 34.4554 5.90506 28.9101 5.28949 25.873C4.61955 22.56 4.13761 17.0368 4.74396 14.8544C4.61195 14.7899 4.45783 14.7112 4.28804 14.6184C4.21524 14.5785 4.15271 14.5222 4.10538 14.454C4.05805 14.3858 4.02721 14.3076 4.01531 14.2255C4.0034 14.1433 4.01075 14.0595 4.03677 13.9807C4.06279 13.9019 4.10677 13.8302 4.16525 13.7713C6.02025 11.9058 10.1753 8.5834 17.1634 7.29967C25.8567 5.70249 35.9914 7.76305 47.2864 13.4233C47.3941 13.4774 47.4804 13.5662 47.5314 13.6753C47.5824 13.7845 47.5951 13.9076 47.5674 14.0249C47.5619 14.0479 47.0162 16.4051 47.2569 18.0891L47.2965 18.3613C47.5661 20.213 47.9356 22.7491 46.0168 23.414C45.2353 23.6846 44.6142 23.5658 44.1507 23.2938C44.0219 24.5573 43.6598 26.5692 42.6533 28.7113C42.1338 29.8186 41.5984 30.73 41.0807 31.6113C40.0325 33.3955 39.1273 34.9363 38.9324 37.3137C38.8414 38.4294 38.9497 39.711 39.0543 40.9505C39.2918 43.7603 39.5381 46.6674 37.2313 47.3761C36.1909 47.6953 35.5222 47.4014 35.1443 47.0997C34.8361 46.8531 34.6145 46.5212 34.4571 46.1594C34.3189 46.7437 34.1989 47.3554 34.144 47.8917C34.098 48.3436 34.0855 48.7736 34.0749 49.1895C34.0415 50.3936 34.01 51.5308 32.9756 52.0037C32.5107 52.2162 32.0216 52.19 31.5984 51.929C31.4252 51.8198 31.271 51.6831 31.142 51.5242C31.0333 52.5177 30.9807 53.8042 31.151 55.1791C31.5447 58.3465 31.6433 61.4322 29.7178 62.5524C28.7488 63.1162 27.9957 62.7185 27.446 62.4278C27.1095 62.25 26.8931 62.1427 26.6934 62.1788C26.5976 62.1961 26.4547 62.2433 26.3163 62.4541C25.777 63.2756 25.9108 65.4738 26.322 67.2214L26.326 67.2387C26.5319 68.1155 26.9602 69.9395 26.155 71.0908C25.7988 71.6002 25.2618 71.9017 24.5592 71.9865C24.4799 71.9957 24.4001 72.0001 24.3203 71.9996ZM16.1 52.6999C16.2249 52.7001 16.3458 52.7439 16.4418 52.8238C16.5378 52.9037 16.6028 53.0147 16.6257 53.1375C17.1479 55.9419 18.9649 58.2938 18.9831 58.3171C19.0426 58.3935 19.0803 58.4845 19.0923 58.5805C19.504 61.8926 20.8266 62.8972 21.8898 63.7032C22.4713 64.1445 23.0205 64.5611 23.2587 65.2548C23.4697 65.8693 23.481 66.7732 23.493 67.7302C23.508 68.9236 23.5264 70.4086 24.0017 70.8246C24.0708 70.8861 24.1841 70.9524 24.4302 70.9229C24.8218 70.8755 25.0999 70.7297 25.2766 70.477C25.8065 69.717 25.4397 68.1509 25.2826 67.483L25.2787 67.466C25.1833 67.0607 24.376 63.457 25.4201 61.8668C25.6864 61.4612 26.0608 61.2049 26.5029 61.1254C27.0761 61.0216 27.5384 61.2659 27.9462 61.4815C28.471 61.7578 28.7426 61.8808 29.1787 61.6273C30.5707 60.8173 30.4193 57.9801 30.0878 55.3113C29.6867 52.0836 30.4177 49.3924 30.449 49.2789C30.483 49.1556 30.5601 49.0485 30.6662 48.9771C30.7723 48.9057 30.9006 48.8746 31.0276 48.8895C31.1547 48.9045 31.2722 48.9644 31.3589 49.0585C31.4456 49.1525 31.4957 49.2745 31.5002 49.4023C31.526 50.1075 31.8096 50.8019 32.1598 51.0179C32.2784 51.0909 32.3902 51.0944 32.5296 51.0301C32.9376 50.8436 32.9742 50.2296 33.0039 49.16C33.0152 48.7455 33.0283 48.2741 33.079 47.7826C33.2633 45.9862 34.0821 43.5449 34.1169 43.4413C34.1584 43.3174 34.2439 43.2131 34.3571 43.1478C34.4703 43.0826 34.6035 43.061 34.7316 43.0872C34.8596 43.1133 34.9737 43.1853 35.0522 43.2897C35.1308 43.3941 35.1685 43.5236 35.1582 43.6539C35.1197 44.164 35.1582 45.7398 35.815 46.2649C35.9106 46.3413 36.2013 46.5735 36.9176 46.3535C38.295 45.9309 38.2355 43.9763 37.9877 41.0426C37.8792 39.7596 37.767 38.4328 37.8653 37.2285C38.0805 34.6069 39.043 32.9679 40.1576 31.0713C40.663 30.2108 41.1855 29.3209 41.6843 28.2585C43.2078 25.014 43.149 22.014 43.1481 21.984C43.1448 21.8581 43.186 21.7349 43.2646 21.6363C43.3431 21.5377 43.4539 21.47 43.5775 21.445C43.7011 21.4201 43.8295 21.4395 43.9402 21.4999C44.0508 21.5603 44.1367 21.6577 44.1825 21.7752C44.2495 21.9389 44.6433 22.7586 45.6666 22.4044C46.6674 22.0589 46.5172 20.4389 46.2372 18.5177L46.1974 18.2427C45.9901 16.7964 46.281 15 46.4377 14.1988C22.0677 2.13066 9.44643 10.3512 5.46412 14.0108C5.56226 14.0548 5.6187 14.0774 5.62009 14.0778C5.69036 14.1058 5.75394 14.1482 5.80662 14.2025C5.8593 14.2567 5.8999 14.3215 5.92576 14.3925C5.95161 14.4636 5.96212 14.5393 5.95661 14.6147C5.9511 14.6901 5.92968 14.7635 5.89377 14.83C5.88318 14.8498 5.87235 14.8708 5.86267 14.8936C5.23351 16.3164 5.59981 22.0027 6.34002 25.6623C6.9724 28.7832 7.92547 34.4982 7.20163 37.7073C6.95074 38.8227 6.18797 42.2177 7.06156 43.348C7.25346 43.5958 7.51724 43.7165 7.89092 43.7294C8.17843 43.7379 8.40258 43.6474 8.59564 43.442C9.38376 42.603 9.35589 40.3098 9.27733 39.4957C9.26515 39.3664 9.30036 39.2371 9.37642 39.1319C9.45248 39.0266 9.56421 38.9526 9.6908 38.9236C9.81739 38.8945 9.95022 38.9124 10.0646 38.974C10.1789 39.0356 10.267 39.1366 10.3124 39.2582C10.4382 39.597 13.3995 47.5907 14.092 50.9118C14.3576 52.1838 14.3666 53.558 14.3744 54.7708C14.3811 55.75 14.3871 56.6752 14.5357 57.2903C14.699 57.9714 14.9545 57.9714 15.1236 57.9714C15.2478 57.9714 15.3326 57.9311 15.4162 57.8332C15.9424 57.2114 15.8733 55.1218 15.5715 53.3263C15.5481 53.1871 15.5807 53.0442 15.6622 52.9289C15.7436 52.8136 15.8674 52.7351 16.0064 52.7105C16.0373 52.7045 16.0686 52.7012 16.1 52.7006V52.6999Z" fill="#000215"/>
<path d="M43.2264 22.5105C43.2916 22.1973 43.3496 21.8656 43.401 21.5397C43.4524 21.2138 43.498 20.8831 43.5357 20.5524C43.6085 19.891 43.655 19.2258 43.6313 18.5531C43.8211 19.1993 43.9443 19.8721 44.0387 20.5462C44.0839 20.8832 44.1228 21.2223 44.1555 21.5634C44.187 21.9055 44.2135 22.2412 44.2285 22.5945C44.2314 22.6611 44.2212 22.7275 44.1984 22.7901C44.1756 22.8527 44.1407 22.9102 44.0957 22.9593C44.0507 23.0084 43.9965 23.0481 43.9361 23.0763C43.8758 23.1044 43.8105 23.1204 43.7439 23.1233C43.6774 23.1262 43.6109 23.116 43.5483 23.0932C43.4858 23.0704 43.4283 23.0355 43.3792 22.9905C43.3301 22.9455 43.2903 22.8913 43.2622 22.831C43.234 22.7706 43.218 22.7053 43.2151 22.6387C43.2137 22.5957 43.2175 22.5526 43.2264 22.5105Z" fill="#000215"/>
<path d="M34.1022 43.5872C34.1462 43.4891 34.1944 43.3608 34.2354 43.2418C34.2764 43.1227 34.3185 42.999 34.3574 42.8758C34.4341 42.6294 34.5007 42.379 34.5587 42.1264C34.6756 41.6194 34.7475 41.103 34.7736 40.5833C34.795 40.0628 34.7637 39.5384 34.6529 39.0242C34.5966 38.7664 34.5196 38.5136 34.4226 38.2683C34.3211 38.0207 34.1973 37.7829 34.0527 37.5578C34.2323 37.7611 34.3935 37.9799 34.5345 38.2116C34.6743 38.4479 34.7946 38.6953 34.894 38.9512C35.0928 39.4654 35.2135 40.0124 35.2777 40.5633C35.337 41.1176 35.3466 41.6761 35.3065 42.2321C35.2876 42.5099 35.2575 42.7892 35.2172 43.0658C35.196 43.204 35.1746 43.3436 35.1481 43.482C35.1204 43.6241 35.0953 43.7535 35.0539 43.9108L35.0525 43.917C35.0368 43.9823 35.0082 44.0439 34.9685 44.098C34.9287 44.1521 34.8785 44.1978 34.8208 44.2322C34.7632 44.2667 34.6992 44.2893 34.6327 44.2988C34.5662 44.3082 34.4985 44.3043 34.4335 44.2872C34.3686 44.2701 34.3077 44.2402 34.2544 44.1993C34.2011 44.1584 34.1566 44.1072 34.1234 44.0489C34.0901 43.9905 34.0689 43.9261 34.0608 43.8594C34.0528 43.7927 34.0582 43.7251 34.0767 43.6605C34.0836 43.6355 34.0921 43.6111 34.1022 43.5872Z" fill="#000215"/>
<path opacity="0.2" d="M9.81156 39.4438C9.81156 39.4438 10.2845 44.3418 7.87455 44.2637C6.84937 44.2298 6.36258 43.5407 6.19141 42.5364C6.48445 42.725 6.87701 42.8005 7.21659 42.6987C7.86694 42.5051 8.30466 41.9 8.60899 41.2927C8.99178 40.5267 9.24368 39.7022 9.35426 38.8531C9.38836 38.5965 9.74797 38.5788 9.81087 38.83C9.90934 39.2309 9.98327 39.6374 10.0323 40.0472C9.89335 39.6638 9.81156 39.4438 9.81156 39.4438Z" fill="#000215"/>
<path opacity="0.2" d="M16.319 56.5068C16.2435 57.5893 15.9379 58.5061 15.123 58.5061C14.5634 58.5061 14.2504 58.1768 14.0742 57.6296C14.1741 57.645 14.276 57.6394 14.3736 57.6132C14.7421 57.5103 15.0024 57.1593 15.1055 56.7896C15.2087 56.42 15.1822 56.0275 15.1544 55.6441C15.0842 54.6461 15.0138 53.6481 14.9432 52.6501C14.9268 52.4161 14.9118 52.1708 15.0123 51.9592C15.1127 51.7475 15.3706 51.5932 15.5843 51.6888C15.7366 51.7553 15.8146 51.9202 15.8748 52.0748C16.0395 52.5113 16.1288 52.9727 16.1389 53.4391C16.1402 53.4588 16.1402 53.4786 16.1389 53.4983C16.1403 53.5561 16.1389 53.6135 16.1389 53.6706C16.109 54.6243 16.2285 55.5685 16.319 56.5068Z" fill="#000215"/>
<path d="M56.9827 14.353C55.6834 19.0662 51.7513 18.3256 51.7513 18.3256C51.6077 18.3171 51.4647 18.299 51.3235 18.2715C51.3005 18.2675 51.2774 18.2639 51.2544 18.2588C51.1362 18.2358 51.001 18.2061 50.8494 18.1632C50.8474 18.1623 50.8453 18.1619 50.8432 18.1621C50.7851 18.1457 50.7298 18.1294 50.6745 18.113C50.6532 18.1081 50.6322 18.1018 50.6116 18.0941C50.1066 17.934 49.623 17.7132 49.1713 17.4364C48.9218 17.2847 48.6823 17.1172 48.4544 16.9348C48.4544 16.9348 46.3374 15.745 42.6719 14.5292C39.0064 13.3134 35.4993 12.0769 35.4993 12.0769C35.4993 12.0769 33.1094 11.1557 28.7345 11.432C24.3597 11.7084 17.3269 12.2381 14.5444 10.4417C14.5444 10.4417 12.7343 12.4325 10.5359 13.5955C7.33361 15.2894 5.41502 14.5902 5.42378 14.5739C5.12364 14.4491 4.83089 14.3072 4.54696 14.149C4.48913 14.1174 4.42877 14.0836 4.36588 14.0483C4.25899 13.9866 4.14702 13.9212 4.03253 13.8496C3.98346 13.8182 3.93185 13.7867 3.88163 13.754C3.8526 13.7351 3.8238 13.7176 3.79616 13.6987C3.62499 13.5856 3.44898 13.4622 3.27274 13.3302C3.24256 13.3072 3.21376 13.2842 3.18358 13.2611C3.09535 13.192 3.00735 13.1202 2.91934 13.0474C2.88916 13.0223 2.86013 12.997 2.83134 12.9719C2.77351 12.9217 2.71431 12.8701 2.65763 12.8173C2.57101 12.7381 2.48531 12.6561 2.40237 12.5707C2.34708 12.5142 2.29156 12.4555 2.23765 12.3984C2.06613 12.2121 1.90647 12.0151 1.75962 11.8088C1.7193 11.7522 1.68037 11.6937 1.64259 11.6365C1.6237 11.6075 1.60481 11.5785 1.5873 11.5497C1.54122 11.4742 1.49515 11.3975 1.45276 11.3194C1.42972 11.2754 1.40668 11.2314 1.38364 11.1872C1.36729 11.1545 1.34978 11.1207 1.33457 11.0868C1.31937 11.0529 1.30439 11.0239 1.29057 10.9912C1.27306 10.9535 1.25786 10.9157 1.2415 10.8779C0.798716 9.80653 0.686753 8.65223 0.889255 7.58337C0.944943 7.27986 1.02751 6.9819 1.13599 6.69301C1.50828 5.69578 2.18121 4.8319 3.13843 4.26488C5.336 2.96342 11.8794 2.64513 14.326 1.93095C16.7726 1.21677 23.3107 -0.629373 30.379 1.5901C37.4472 3.80956 40.1389 2.89801 43.554 3.08709C45.8986 3.21791 52.3164 5.02167 55.4459 8.51704C55.4473 8.51704 55.4473 8.51704 55.4484 8.51704C55.7818 8.88554 56.0796 9.28466 56.3379 9.70911L56.3983 9.81113C56.5705 10.1063 56.7186 10.4149 56.841 10.734C56.964 11.0549 57.0575 11.3864 57.1203 11.7243C57.2709 12.5435 57.2407 13.4187 56.9827 14.353Z" fill="#DF3E08"/>
<g style="mix-blend-mode:overlay" opacity="0.6">
<path d="M56.3974 9.81338C56.3774 9.77953 56.3571 9.74567 56.3371 9.71159C56.0788 9.2871 55.781 8.88797 55.4476 8.51952C55.4464 8.51952 55.4464 8.51952 55.4453 8.51952C52.3156 5.02369 45.898 3.22038 43.5532 3.08957C40.1381 2.89956 37.4461 3.8125 30.3781 1.59257C27.6498 0.736291 25.0021 0.487098 22.6375 0.54122C22.6144 0.542602 22.5884 0.542602 22.5644 0.543754C18.8348 0.641865 15.8185 1.49699 14.3254 1.93343C11.8788 2.64738 5.33542 2.96566 3.13785 4.26736C2.18063 4.83438 1.5077 5.69826 1.13541 6.69549C1.02693 6.98438 0.94436 7.28234 0.888672 7.58585C1.8611 6.43017 3.2323 5.54741 4.65742 5.01286C7.10518 4.09371 9.76558 3.96428 12.343 3.53038C14.9693 3.08773 17.5807 2.31942 20.2047 1.92583C20.3429 2.55825 21.4701 3.05134 22.8388 3.05134C24.2639 3.05134 25.4225 2.51679 25.4815 1.8466C29.3834 2.45024 32.9973 4.57159 36.9471 4.82309C39.2099 4.96634 41.4754 4.4873 43.7407 4.59048C48.6452 4.81296 55.0378 7.70285 56.8391 10.7371C56.7174 10.4176 56.5697 10.1087 56.3974 9.81338Z" fill="white"/>
</g>
<path opacity="0.2" d="M56.9828 14.353C55.6834 19.0662 51.7514 18.3256 51.7514 18.3256C51.6077 18.3171 51.4648 18.299 51.3235 18.2714C51.3005 18.2675 51.2775 18.2638 51.2544 18.2588C51.1362 18.2357 51.001 18.206 50.8494 18.1632C50.8475 18.1623 50.8453 18.1619 50.8432 18.162C50.7851 18.1457 50.7299 18.1293 50.6746 18.113C50.6532 18.108 50.6322 18.1017 50.6117 18.0941C50.1067 17.934 49.623 17.7131 49.1714 17.4363C48.9218 17.2847 48.6824 17.1172 48.4544 16.9347C48.4544 16.9347 46.3375 15.745 42.6719 14.5292C39.0064 13.3134 35.4994 12.0769 35.4994 12.0769C35.4994 12.0769 33.1094 11.1556 28.7346 11.432C24.3597 11.7084 17.327 12.2381 14.5445 10.4417C14.5445 10.4417 12.7344 12.4325 10.5359 13.5955C7.33364 15.2894 5.41506 14.5902 5.42381 14.5739C5.12367 14.449 4.83092 14.3072 4.54699 14.1489C4.48917 14.1174 4.42881 14.0835 4.36592 14.0483C4.25902 13.9866 4.14706 13.9212 4.03256 13.8495C3.98349 13.8182 3.93189 13.7867 3.88166 13.754C3.85264 13.7351 3.82384 13.7176 3.79619 13.6987C3.62502 13.5856 3.44901 13.4622 3.27278 13.3302C3.2426 13.3072 3.2138 13.2841 3.18362 13.2611C3.09538 13.192 3.00738 13.1202 2.91938 13.0474C2.8892 13.0223 2.86017 12.9969 2.83137 12.9718C2.77355 12.9216 2.71434 12.87 2.65767 12.8173C2.57105 12.7381 2.48535 12.6561 2.40241 12.5706C2.34712 12.5142 2.2916 12.4555 2.23769 12.3984C2.06617 12.212 1.90651 12.0151 1.75966 11.8088C1.71934 11.7521 1.68041 11.6936 1.64262 11.6365C1.62373 11.6075 1.60484 11.5785 1.58733 11.5497C1.54126 11.4742 1.49518 11.3975 1.45279 11.3194C1.42975 11.2754 1.40672 11.2314 1.38368 11.1872C1.36732 11.1545 1.34981 11.1206 1.33461 11.0868C1.3194 11.0529 1.30443 11.0239 1.29061 10.9912C1.2731 10.9534 1.25789 10.9157 1.24154 10.8779C0.672965 9.50088 0.650388 7.98569 1.13602 6.69298C1.3611 8.43963 2.28054 10.107 3.73215 11.1149C6.12807 12.7772 9.69893 12.4507 11.7537 10.3816C10.6354 9.38319 10.0403 7.83139 10.2039 6.34268C12.0216 8.63124 15.1851 9.32539 18.1033 9.49259C21.9908 9.71427 25.8877 9.27244 29.6268 8.18606C30.6974 7.8756 31.2733 6.71348 30.8759 5.67111L30.5513 4.81897C34.1362 8.8954 39.2923 11.5439 44.6221 12.2155C45.4673 12.3224 46.29 11.9352 46.778 11.236C47.7126 9.89425 49.0698 8.84543 50.6133 8.30352C49.7549 9.37375 48.9557 10.5504 48.7023 11.8984C48.4489 13.2464 48.8583 14.797 50.0019 15.554C51.0194 16.2268 52.4962 16.096 53.378 15.2521C54.2599 14.4083 54.4585 12.941 53.8635 11.8984C54.5378 12.2869 55.4685 12.1538 56.006 11.5928C56.4149 11.1665 56.5669 10.5239 56.4338 9.95182C56.6752 10.5377 56.9104 11.1289 57.118 11.7275C57.271 12.5435 57.2408 13.4186 56.9828 14.353Z" fill="#000215"/>
<path d="M52.2966 18.8965C52.0963 18.8978 51.8961 18.8852 51.6976 18.8587C51.5396 18.8477 51.3825 18.8275 51.2269 18.7982C51.2002 18.7938 51.1728 18.7889 51.1463 18.7834C50.9988 18.7551 50.8588 18.7222 50.7187 18.683L50.6971 18.6772C50.6413 18.6616 50.5876 18.6457 50.5342 18.6312C50.5015 18.6229 50.4694 18.6132 50.4388 18.6024C49.8963 18.4296 49.3768 18.1919 48.8913 17.8944C48.6361 17.7392 48.3906 17.5685 48.1562 17.3834C47.8676 17.2263 45.817 16.1379 42.5014 15.0384C38.8706 13.836 35.3541 12.5953 35.3191 12.5829L35.3051 12.5778C35.282 12.5693 32.9492 11.7026 28.7663 11.9675L28.209 12.0025C23.9643 12.2722 17.6434 12.6736 14.6397 11.1167C14.0244 11.7386 12.535 13.1434 10.7848 14.0704C7.9194 15.5858 5.87779 15.3491 5.22882 15.0667L5.22605 15.0736C4.90483 14.9406 4.5916 14.789 4.28796 14.6197C4.23704 14.5921 4.18221 14.5614 4.12554 14.5296L4.1025 14.517C3.98455 14.4479 3.86683 14.3802 3.7468 14.3049L3.67953 14.2627C3.64912 14.2436 3.61848 14.2243 3.58738 14.2045L3.55881 14.186C3.53577 14.1717 3.51412 14.1577 3.49223 14.1427C3.30563 14.0193 3.12017 13.8894 2.94716 13.7574L2.85962 13.6909L2.85017 13.6835C2.75802 13.6116 2.66587 13.537 2.57533 13.461C2.54262 13.4338 2.51198 13.4074 2.48157 13.3809C2.41476 13.3231 2.35094 13.2671 2.28989 13.2102C2.20465 13.1324 2.11181 13.0428 2.01828 12.9479C1.95907 12.8873 1.90078 12.8265 1.84411 12.7657C1.65614 12.562 1.48117 12.3466 1.32023 12.1209C1.27646 12.0591 1.23338 11.9953 1.19191 11.9316C1.16887 11.8961 1.14722 11.8625 1.12718 11.83C1.07765 11.7501 1.02788 11.6653 0.980657 11.5794C0.953703 11.5299 0.929281 11.4822 0.904631 11.4345L0.892882 11.4115C0.876985 11.38 0.860859 11.3475 0.846806 11.3152C0.832753 11.283 0.814323 11.2462 0.799348 11.2118C0.786447 11.1837 0.774468 11.1556 0.762488 11.1273L0.748436 11.0942C-0.393776 8.32586 0.518058 5.19691 2.86353 3.80747C4.32044 2.94451 7.42501 2.5067 10.1626 2.12047C11.7679 1.89385 13.284 1.6799 14.1739 1.42011C16.407 0.767188 23.2029 -1.22036 30.5376 1.08248C35.7078 2.70706 38.5016 2.62553 40.9671 2.55644C41.8499 2.53134 42.6838 2.50716 43.5818 2.55644C45.8202 2.68127 52.511 4.46546 55.8227 8.14116C55.8264 8.14461 55.8301 8.1483 55.8335 8.15221C55.837 8.15613 55.8416 8.16074 55.8455 8.16511C57.5704 10.0916 58.1263 12.2224 57.4987 14.4986C56.4146 18.4301 53.5786 18.8965 52.2966 18.8965ZM50.9952 17.6482C51.1127 17.6814 51.2301 17.709 51.355 17.733L51.3714 17.7364C51.3815 17.7385 51.3919 17.7401 51.4022 17.7417L51.4195 17.7447C51.5356 17.7671 51.6529 17.7825 51.7708 17.7908C51.7975 17.7917 51.8241 17.7947 51.8503 17.7995C51.9885 17.8244 55.3193 18.3714 56.4664 14.2111C56.9889 12.3178 56.518 10.5304 55.0671 8.89864C55.0595 8.89127 55.0523 8.88367 55.044 8.87561C51.951 5.41962 45.6357 3.74091 43.5229 3.62299C42.6705 3.57555 41.8582 3.59996 40.9984 3.62299C38.4488 3.69623 35.5592 3.77937 30.2167 2.1009C23.192 -0.104524 16.6307 1.81416 14.4746 2.44474C13.5107 2.72687 11.9575 2.94612 10.3128 3.1785C7.67381 3.55045 4.68282 3.97237 3.41045 4.72617C1.51882 5.84638 0.798888 8.40371 1.7356 10.6745L1.74989 10.7079C1.75795 10.727 1.76601 10.7464 1.775 10.7655C1.77776 10.7713 1.7803 10.7773 1.78283 10.783C1.7932 10.8077 1.80472 10.8311 1.816 10.8549C1.81808 10.8592 1.82084 10.865 1.82269 10.8694C1.83144 10.8887 1.84135 10.9083 1.85102 10.9272L1.86162 10.9486C1.87982 10.9838 1.90055 11.0241 1.92267 11.0638C1.95976 11.1328 2.00054 11.2006 2.04224 11.268C2.05836 11.2948 2.07357 11.3178 2.08831 11.341C2.12379 11.3952 2.15742 11.4472 2.19475 11.4981C2.32873 11.6862 2.47431 11.8658 2.63062 12.0359C2.67877 12.0872 2.73153 12.1423 2.78405 12.1971C2.86284 12.2772 2.94186 12.3535 3.01765 12.4226C3.0741 12.4751 3.12847 12.5225 3.18168 12.5688C3.20979 12.5932 3.23467 12.6149 3.2607 12.6365C3.34341 12.7056 3.42704 12.7731 3.51043 12.8387L3.59291 12.9016C3.74979 13.0202 3.91659 13.1379 4.09029 13.2528C4.10872 13.2653 4.12162 13.2733 4.13452 13.2816L4.173 13.3063C4.19765 13.3224 4.22368 13.3385 4.24925 13.3546L4.32067 13.4007C4.42411 13.4654 4.53054 13.5276 4.63214 13.5849L4.64919 13.5944C4.70194 13.6238 4.75263 13.6524 4.8017 13.6789C5.06661 13.8265 5.33958 13.9592 5.61931 14.0764C5.62967 14.0805 5.63981 14.0849 5.64972 14.0898C5.81236 14.139 7.50909 14.5907 10.284 13.1225C12.3703 12.0188 14.1297 10.1008 14.1472 10.0824C14.2326 9.98866 14.3484 9.92821 14.4741 9.9118C14.5999 9.8954 14.7274 9.92411 14.8339 9.99283C17.3527 11.6186 23.8456 11.2061 28.1422 10.9334L28.6999 10.8979C33.0566 10.6239 35.4961 11.5041 35.6827 11.5748C35.8471 11.6326 39.2885 12.8454 42.8391 14.0214C46.5127 15.2397 48.6287 16.4189 48.717 16.4684C48.742 16.4824 48.7658 16.4985 48.7881 16.5165C48.9982 16.6844 49.2187 16.8388 49.4484 16.9787C49.8637 17.2334 50.3085 17.4366 50.7728 17.584C50.7818 17.5867 50.791 17.59 50.8 17.5934C50.809 17.5969 50.8166 17.5971 50.8265 17.6001L50.9765 17.6439C50.9829 17.6452 50.9892 17.6471 50.9954 17.6487L50.9952 17.6482ZM5.89277 14.3182C5.90461 14.3401 5.915 14.3627 5.92387 14.3859C5.91518 14.3626 5.90478 14.34 5.89277 14.3182Z" fill="#000215"/>
<path d="M52.296 18.8965C52.136 18.8969 51.9761 18.8892 51.8169 18.8734C51.7675 18.8802 51.7174 18.8802 51.668 18.8734C51.5164 18.8523 51.3685 18.8274 51.2253 18.7979C51.1923 18.7924 51.1649 18.7875 51.1384 18.7816C51.0101 18.7553 50.8693 18.7221 50.726 18.6846C50.7164 18.6823 50.7064 18.68 50.6965 18.677C50.641 18.6613 50.5876 18.6457 50.5353 18.6309C50.5037 18.6229 50.4726 18.6137 50.4431 18.6031C49.8917 18.4376 49.3658 18.1964 48.8807 17.8863C48.2852 17.5008 48.0064 17.1494 47.9767 17.1111C47.967 17.0987 47.9578 17.0856 47.9493 17.0722C47.8783 16.9607 46.2364 14.2982 48.4492 10.423C49.4509 8.66854 50.8954 7.54718 52.5163 7.26551C53.7156 7.05824 54.9016 7.35971 55.7743 8.09623C55.7926 8.11046 55.81 8.12584 55.8264 8.14229C55.8333 8.14943 55.8402 8.15657 55.8466 8.16394C57.5715 10.0905 58.1274 12.2213 57.4998 14.4974C56.414 18.4301 53.5781 18.8965 52.296 18.8965ZM51.73 17.788C51.7702 17.7881 51.8103 17.7918 51.8498 17.7993C51.988 17.8242 55.3188 18.3711 56.4659 14.2109C56.9875 12.321 56.5193 10.5368 55.0744 8.90737C54.4365 8.37283 53.594 8.16394 52.6985 8.31963C51.3976 8.54464 50.219 9.48084 49.3785 10.953C47.5876 14.089 48.6851 16.2067 48.8385 16.4736C48.8908 16.5328 49.092 16.7466 49.4624 16.987C49.8676 17.2452 50.307 17.4455 50.7677 17.5821C50.7783 17.5853 50.7889 17.5888 50.7993 17.5927C50.8097 17.5966 50.8163 17.5966 50.826 17.5996L50.9755 17.6431L50.9861 17.6459C51.1149 17.68 51.2411 17.7099 51.3619 17.7346C51.3801 17.7387 51.3911 17.7401 51.402 17.7419L51.431 17.7472C51.5086 17.7631 51.5888 17.7779 51.6708 17.7912C51.6906 17.7891 51.7105 17.788 51.7305 17.788H51.73Z" fill="#000215"/>
<path d="M48.7483 16.4212C48.9726 16.645 49.2231 16.8408 49.4943 17.0046C49.7641 17.1595 50.0571 17.27 50.3621 17.3316C50.9698 17.4535 51.6276 17.3618 52.2125 17.0751C52.8079 16.7833 53.3156 16.3395 53.6841 15.7886C54.0603 15.232 54.2702 14.58 54.2894 13.9086C54.2985 13.571 54.2544 13.234 54.1585 12.9102C54.0779 12.5845 53.9145 12.2953 53.6977 12.0426C53.4789 11.7948 53.1997 11.5974 52.8877 11.4956C52.5725 11.3925 52.2312 11.4013 51.9218 11.5207C51.6054 11.645 51.3365 11.8659 51.1532 12.152C50.9758 12.4374 50.8998 12.7969 50.9984 13.1253C51.097 13.4537 51.3456 13.7351 51.6564 13.9023C51.9671 14.0696 52.3544 14.1149 52.6827 13.9553C52.3645 14.135 51.9595 14.1149 51.6273 13.959C51.2847 13.8008 51.0162 13.5166 50.8777 13.1656C50.7443 12.8033 50.8072 12.3922 50.9883 12.0576C51.1783 11.7203 51.4702 11.4519 51.8222 11.2907C52.1838 11.1272 52.5906 11.0935 52.9741 11.1951C53.3554 11.2955 53.6975 11.5106 53.973 11.7872C54.2486 12.0666 54.4552 12.4063 54.5766 12.7794C54.7068 13.1414 54.7794 13.5215 54.7918 13.906C54.8137 14.6851 54.614 15.4543 54.2159 16.1244C53.8161 16.8025 53.2438 17.3626 52.5571 17.7478C51.8692 18.1377 51.0339 18.3173 50.2177 18.2031C49.8106 18.1459 49.4156 18.0232 49.0478 17.8397C48.6887 17.652 48.3541 17.421 48.0514 17.1518C48.0017 17.1082 47.9611 17.0552 47.9318 16.9959C47.9026 16.9366 47.8853 16.8721 47.881 16.8061C47.8766 16.7402 47.8854 16.674 47.9066 16.6114C47.9279 16.5488 47.9613 16.491 48.0049 16.4413C48.0485 16.3915 48.1015 16.3509 48.1608 16.3217C48.2201 16.2924 48.2846 16.2752 48.3506 16.2708C48.4166 16.2665 48.4828 16.2752 48.5454 16.2965C48.6081 16.3178 48.6659 16.3511 48.7156 16.3947C48.7221 16.4009 48.7283 16.406 48.7345 16.4122L48.7483 16.4212Z" fill="#000215"/>
<path d="M36.953 13.1445C35.6019 12.4831 34.6875 11.2256 34.4385 9.90894C35.007 11.1238 36.1329 11.9663 37.2887 12.1963C37.3543 12.2092 37.4167 12.2349 37.4723 12.2719C37.528 12.3089 37.5758 12.3565 37.613 12.412C37.6503 12.4675 37.6762 12.5298 37.6893 12.5953C37.7024 12.6608 37.7025 12.7283 37.6895 12.7938C37.6766 12.8593 37.6508 12.9217 37.6137 12.9773C37.5766 13.0328 37.5289 13.0806 37.4733 13.1177C37.4177 13.1548 37.3554 13.1806 37.2898 13.1937C37.2243 13.2067 37.1568 13.2066 37.0913 13.1936C37.0491 13.185 37.0081 13.1715 36.9692 13.1533L36.953 13.1445Z" fill="#000215"/>
<path d="M14.5304 11.0384L13.1914 9.66394L15.0424 10.172C15.1083 10.1901 15.1701 10.2211 15.2241 10.2631C15.2781 10.3051 15.3233 10.3574 15.3571 10.4168C15.3909 10.4763 15.4127 10.5419 15.4211 10.6097C15.4296 10.6776 15.4246 10.7465 15.4065 10.8125C15.3884 10.8784 15.3574 10.9402 15.3154 10.9942C15.2734 11.0482 15.2211 11.0934 15.1617 11.1272C15.1022 11.161 15.0366 11.1828 14.9688 11.1912C14.9009 11.1997 14.832 11.1947 14.766 11.1766C14.6768 11.1518 14.5956 11.1042 14.5304 11.0384Z" fill="#000215"/>
<path d="M30.0419 51.1085C30.0419 53.695 28.2166 55.7925 25.9642 55.7925C24.5907 55.7925 23.3757 55.0117 22.6373 53.8157C22.5883 53.7365 22.5417 53.6561 22.4991 53.573C22.1116 52.859 21.8877 52.0138 21.8877 51.1087C21.8877 49.1771 22.9055 47.5184 24.3583 46.802C24.8077 46.5777 25.2991 46.4501 25.8008 46.4273C26.3026 46.4046 26.8036 46.4873 27.2714 46.67C28.8833 47.2969 30.0419 49.0472 30.0419 51.1085Z" fill="#DF3E08"/>
<g opacity="0.61">
<path d="M27.5995 48.5016C26.831 48.24 26.0083 48.0313 25.2133 48.1948C24.3 48.3821 23.5352 49.0562 23.0876 49.8735C22.6399 50.6909 22.4801 51.6391 22.4637 52.5709C22.4575 52.9053 22.4697 53.2399 22.5001 53.573C22.1126 52.859 21.8887 52.0138 21.8887 51.1087C21.8887 49.1771 22.9065 47.5184 24.3592 46.8019C24.8412 46.8217 25.3155 46.9286 25.7592 47.1177C26.4747 47.4249 27.1059 47.8995 27.5995 48.5016Z" fill="white"/>
</g>
<path d="M25.9637 56.3279C23.4206 56.3279 21.3516 53.9863 21.3516 51.1084C21.3516 48.2305 23.4206 45.8887 25.9637 45.8887C28.5069 45.8887 30.5761 48.2303 30.5761 51.1084C30.5761 53.9866 28.5078 56.3279 25.9637 56.3279ZM25.9637 46.9594C24.0113 46.9594 22.4226 48.8208 22.4226 51.1084C22.4226 53.396 24.0122 55.2572 25.9637 55.2572C27.9152 55.2572 29.5051 53.3958 29.5051 51.1084C29.5051 48.821 27.9171 46.9599 25.9637 46.9599V46.9594Z" fill="#000215"/>
<path d="M25.2139 55.6992C23.0847 55.6992 21.3525 53.6678 21.3525 51.1713C21.3525 48.6748 23.0847 46.6432 25.2139 46.6432C27.343 46.6432 29.0753 48.6746 29.0753 51.1713C29.0753 53.6681 27.343 55.6992 25.2139 55.6992ZM25.2139 47.7139C23.6752 47.7139 22.4236 49.2648 22.4236 51.1713C22.4236 53.0778 23.6752 54.6291 25.2139 54.6291C26.7526 54.6291 28.0042 53.0783 28.0042 51.172C28.0042 49.2658 26.7524 47.7139 25.2139 47.7139Z" fill="#000215"/>
<path d="M24.6703 50.1152C24.67 50.1388 24.6621 50.1616 24.6476 50.1803C24.6331 50.199 24.613 50.2124 24.5902 50.2185C24.5674 50.2246 24.5432 50.2231 24.5213 50.2143C24.4994 50.2054 24.4811 50.1896 24.469 50.1693C24.1622 49.6612 23.6341 48.6615 24.1335 48.5081C24.6328 48.3547 24.6804 49.5113 24.6703 50.1152Z" fill="#000215"/>
<path d="M25.9761 51.7609C25.9588 51.7445 25.9475 51.7229 25.9437 51.6994C25.94 51.6759 25.9441 51.6518 25.9554 51.6309C25.9666 51.6099 25.9845 51.5933 26.0062 51.5835C26.0279 51.5737 26.0522 51.5713 26.0753 51.5766C26.655 51.7038 27.7427 52.0105 27.5113 52.4772C27.2766 52.9479 26.406 52.1835 25.9761 51.7609Z" fill="#000215"/>
<path d="M24.2891 51.6121C24.3065 51.5963 24.3285 51.5865 24.352 51.5843C24.3754 51.5821 24.3989 51.5876 24.4189 51.6C24.4389 51.6124 24.4544 51.6309 24.4629 51.6528C24.4714 51.6748 24.4726 51.6989 24.4662 51.7215C24.305 52.2925 23.9344 53.3602 23.4816 53.1011C23.0288 52.842 23.8414 52.0175 24.2891 51.6121Z" fill="#000215"/>
<path opacity="0.2" d="M30.0413 51.1084C30.0413 53.695 28.216 55.7924 25.9636 55.7924C24.5901 55.7924 23.3751 55.0117 22.6367 53.8157C23.4395 53.957 24.2661 53.8582 25.0128 53.5315C26.4568 52.8952 27.4857 51.4587 27.7398 49.9037C27.9184 48.8121 27.7322 47.6792 27.2705 46.6707C28.8827 47.2969 30.0413 49.0472 30.0413 51.1084Z" fill="#000215"/>
<path d="M11.5485 48.8962L11.1915 47.6551L10.8459 46.4541L9.04457 40.1856L8.73633 39.1156C8.73633 39.1156 13.5512 37.5725 15.8898 39.8422C16.2814 40.2233 16.604 40.71 16.823 41.3286C18.9287 47.2765 11.5485 48.8962 11.5485 48.8962Z" fill="#DF3E08"/>
<path opacity="0.6" d="M16.2435 46.1335C16.7982 45.0784 16.9705 43.733 16.3693 42.034C16.1504 41.4154 15.8283 40.9285 15.436 40.5478C13.6059 38.7708 10.261 39.3293 8.89327 39.6561L8.7373 39.1156C8.7373 39.1156 13.5522 37.5725 15.8908 39.8422C16.2824 40.2233 16.6049 40.71 16.824 41.3286C17.5681 43.431 17.1265 44.993 16.2435 46.1335Z" fill="white"/>
<path d="M11.549 49.4317C11.4328 49.4316 11.3199 49.3937 11.2272 49.3239C11.1344 49.254 11.0669 49.1559 11.0348 49.0443L8.22209 39.2636C8.18356 39.1299 8.19864 38.9864 8.26414 38.8636C8.32963 38.7407 8.4404 38.6482 8.57296 38.6056C8.64207 38.5826 10.3135 38.0568 12.2111 38.0674C14.8519 38.0868 16.6217 39.1529 17.3285 41.1501C17.9385 42.8742 17.8659 44.4345 17.1133 45.7882C15.5889 48.53 11.8236 49.384 11.6642 49.419C11.6263 49.4274 11.5877 49.4317 11.549 49.4317ZM9.40116 39.4889L11.9169 48.2385C12.9133 47.9301 15.1846 47.0554 16.1789 45.2634C16.7739 44.1906 16.8207 42.9264 16.3171 41.5061C15.2106 38.3779 10.8853 39.1301 9.40186 39.4898L9.40116 39.4889Z" fill="#000215"/>
<path d="M11.1921 48.1903C11.0758 48.1903 10.9628 48.1526 10.8699 48.0827C10.7771 48.0128 10.7095 47.9146 10.6774 47.8029L8.52958 40.3334C8.49527 40.2139 8.50361 40.0862 8.55317 39.9722C8.60273 39.8582 8.69042 39.765 8.8012 39.7086C9.93304 39.1328 12.3419 38.7433 14.1545 39.683C15.2681 40.2604 15.9551 41.2505 16.1417 42.5464C16.3438 43.9513 16.0113 45.1664 15.1534 46.1597C13.7539 47.7806 11.4694 48.1894 11.1934 48.1903H11.1921ZM9.69046 40.4937L11.5726 47.0408C12.2555 46.8663 13.6027 46.3833 14.421 45.3667C15.0092 44.636 15.2315 43.7385 15.082 42.6989C14.9438 41.7459 14.4671 41.051 13.6619 40.6335C12.4416 40.0011 10.7283 40.1321 9.69046 40.4937Z" fill="#000215"/>
<path d="M11.6139 42.6453C11.5969 42.6616 11.5751 42.6721 11.5517 42.6749C11.5283 42.6778 11.5045 42.673 11.4841 42.6612C11.4637 42.6495 11.4476 42.6313 11.4384 42.6096C11.4291 42.5879 11.4272 42.5638 11.4329 42.5409C11.5761 41.9652 11.9119 40.8848 12.3721 41.1301C12.8361 41.3776 12.0489 42.2266 11.6139 42.6453Z" fill="#000215"/>
<path d="M12.1593 44.1844C12.1386 44.173 12.1223 44.1552 12.1128 44.1336C12.1032 44.1121 12.101 44.088 12.1064 44.0651C12.1118 44.0422 12.1245 44.0216 12.1427 44.0066C12.1608 43.9916 12.1834 43.9829 12.2069 43.9819C12.8004 43.9543 13.9296 43.9667 13.8278 44.4787C13.726 44.9907 12.6848 44.4799 12.1593 44.1844Z" fill="#000215"/>
<path opacity="0.2" d="M11.5493 48.8962L11.1922 47.6551L10.8467 46.4541C12.3812 46.1625 13.8317 45.3877 14.799 44.168C15.7526 42.9672 16.1638 41.3352 15.8908 39.8422C16.2824 40.2233 16.605 40.71 16.8241 41.3286C18.9295 47.2765 11.5493 48.8962 11.5493 48.8962Z" fill="#000215"/>
<path d="M37.3017 26.6587C37.3017 29.2453 35.4764 31.3427 33.224 31.3427C31.8505 31.3427 30.6355 30.5619 29.8971 29.366C29.848 29.2867 29.8015 29.2064 29.7589 29.1232C29.3714 28.4093 29.1475 27.564 29.1475 26.6589C29.1475 24.7273 30.1653 23.0687 31.618 22.3522C32.0674 22.1279 32.5588 22.0003 33.0606 21.9776C33.5624 21.9548 34.0633 22.0375 34.5312 22.2202C36.1431 22.8471 37.3017 24.5974 37.3017 26.6587Z" fill="#DF3E08"/>
<g opacity="0.61">
<path d="M34.8602 24.0518C34.0917 23.7902 33.269 23.5816 32.474 23.7451C31.5608 23.9323 30.7959 24.6064 30.3483 25.4238C29.9007 26.2411 29.7408 27.1893 29.7244 28.1211C29.7182 28.4556 29.7304 28.7901 29.7608 29.1232C29.3733 28.4092 29.1494 27.564 29.1494 26.6589C29.1494 24.7273 30.1672 23.0687 31.62 22.3522C32.1019 22.3719 32.5763 22.4789 33.02 22.6679C33.7355 22.9751 34.3666 23.4498 34.8602 24.0518Z" fill="white"/>
</g>
<path d="M33.2245 31.8782C30.6813 31.8782 28.6123 29.5367 28.6123 26.6588C28.6123 23.7808 30.6813 21.4391 33.2245 21.4391C35.7676 21.4391 37.8369 23.7806 37.8369 26.6588C37.8369 29.5369 35.7685 31.8782 33.2245 31.8782ZM33.2245 22.5098C31.272 22.5098 29.6833 24.3711 29.6833 26.6588C29.6833 28.9464 31.2729 30.8075 33.2245 30.8075C35.176 30.8075 36.7658 28.9462 36.7658 26.6588C36.7658 24.3714 35.1778 22.5102 33.2245 22.5102V22.5098Z" fill="#000215"/>
<path d="M32.4746 31.2495C30.3455 31.2495 28.6133 29.2182 28.6133 26.7217C28.6133 24.2251 30.3455 22.1936 32.4746 22.1936C34.6038 22.1936 36.336 24.2249 36.336 26.7217C36.336 29.2184 34.6038 31.2495 32.4746 31.2495ZM32.4746 23.2643C30.9359 23.2643 29.6843 24.8152 29.6843 26.7217C29.6843 28.6282 30.9359 30.1795 32.4746 30.1795C34.0133 30.1795 35.265 28.6286 35.265 26.7224C35.265 24.8161 34.0131 23.2643 32.4746 23.2643Z" fill="#000215"/>
<path d="M31.931 25.6654C31.9308 25.689 31.9228 25.7119 31.9083 25.7305C31.8939 25.7492 31.8737 25.7626 31.8509 25.7687C31.8281 25.7749 31.8039 25.7734 31.7821 25.7645C31.7602 25.7556 31.7418 25.7398 31.7298 25.7195C31.423 25.2115 30.8949 24.2117 31.3942 24.0583C31.8935 23.9049 31.9412 25.0615 31.931 25.6654Z" fill="#000215"/>
<path d="M33.2368 27.3112C33.2196 27.2948 33.2082 27.2732 33.2045 27.2497C33.2007 27.2262 33.2048 27.2021 33.2161 27.1812C33.2274 27.1602 33.2452 27.1436 33.2669 27.1338C33.2886 27.124 33.3129 27.1216 33.3361 27.1269C33.9158 27.2541 35.0035 27.5608 34.772 28.0274C34.5374 28.4982 33.6668 27.7338 33.2368 27.3112Z" fill="#000215"/>
<path d="M31.5498 27.1624C31.5672 27.1466 31.5893 27.1368 31.6127 27.1346C31.6361 27.1324 31.6596 27.1379 31.6796 27.1503C31.6997 27.1627 31.7151 27.1812 31.7236 27.2031C31.7322 27.2251 31.7333 27.2492 31.7269 27.2718C31.5657 27.8427 31.1951 28.9104 30.7424 28.6513C30.2896 28.3923 31.1021 27.5678 31.5498 27.1624Z" fill="#000215"/>
<path opacity="0.2" d="M37.302 26.6587C37.302 29.2453 35.4767 31.3427 33.2243 31.3427C31.8508 31.3427 30.6358 30.562 29.8975 29.366C30.7002 29.5073 31.5268 29.4085 32.2736 29.0818C33.7176 28.4455 34.7464 27.009 35.0006 25.454C35.1791 24.3623 34.993 23.2295 34.5313 22.2209C36.1435 22.8472 37.302 24.5975 37.302 26.6587Z" fill="#000215"/>
<path d="M17.4892 23.1121C17.4892 25.6986 15.6639 27.7961 13.4115 27.7961C12.038 27.7961 10.823 27.0153 10.0846 25.8193C10.0355 25.7401 9.989 25.6597 9.94638 25.5766C9.55889 24.8626 9.33496 24.0174 9.33496 23.1123C9.33496 21.1807 10.3528 19.522 11.8055 18.8056C12.2549 18.5813 12.7463 18.4537 13.2481 18.4309C13.7499 18.4082 14.2508 18.4909 14.7187 18.6736C16.3306 19.3005 17.4892 21.0508 17.4892 23.1121Z" fill="#DF3E08"/>
<g opacity="0.61">
<path d="M15.0477 20.5052C14.2792 20.2436 13.4565 20.0349 12.6615 20.1984C11.7483 20.3857 10.9834 21.0598 10.5358 21.8771C10.0882 22.6945 9.92829 23.6427 9.91194 24.5745C9.90575 24.9089 9.9179 25.2435 9.94834 25.5766C9.56084 24.8626 9.33691 24.0174 9.33691 23.1123C9.33691 21.1807 10.3547 19.522 11.8075 18.8055C12.2894 18.8253 12.7638 18.9322 13.2075 19.1213C13.923 19.4285 14.5541 19.9031 15.0477 20.5052Z" fill="white"/>
</g>
<path d="M13.412 28.3315C10.8688 28.3315 8.7998 25.9899 8.7998 23.112C8.7998 20.2341 10.8688 17.8923 13.412 17.8923C15.9551 17.8923 18.0244 20.2339 18.0244 23.112C18.0244 25.9902 15.956 28.3315 13.412 28.3315ZM13.412 18.963C11.4595 18.963 9.87083 20.8244 9.87083 23.112C9.87083 25.3997 11.4604 27.2608 13.412 27.2608C15.3635 27.2608 16.9533 25.3994 16.9533 23.112C16.9533 20.8246 15.3653 18.9635 13.412 18.9635V18.963Z" fill="#000215"/>
<path d="M12.6621 27.7028C10.533 27.7028 8.80078 25.6714 8.80078 23.1749C8.80078 20.6784 10.533 18.6469 12.6621 18.6469C14.7913 18.6469 16.5235 20.6782 16.5235 23.1749C16.5235 25.6717 14.7913 27.7028 12.6621 27.7028ZM12.6621 19.7175C11.1234 19.7175 9.87181 21.2684 9.87181 23.1749C9.87181 25.0814 11.1234 26.6327 12.6621 26.6327C14.2008 26.6327 15.4525 25.0819 15.4525 23.1756C15.4525 21.2694 14.2006 19.7175 12.6621 19.7175Z" fill="#000215"/>
<path d="M12.1185 22.1188C12.1183 22.1424 12.1103 22.1652 12.0958 22.1839C12.0814 22.2026 12.0612 22.216 12.0384 22.2221C12.0156 22.2282 11.9914 22.2267 11.9696 22.2179C11.9477 22.209 11.9293 22.1932 11.9173 22.1729C11.6105 21.6648 11.0824 20.6651 11.5817 20.5117C12.081 20.3583 12.1287 21.5149 12.1185 22.1188Z" fill="#000215"/>
<path d="M13.4243 23.7644C13.4071 23.748 13.3957 23.7264 13.392 23.7029C13.3882 23.6794 13.3923 23.6554 13.4036 23.6344C13.4149 23.6135 13.4327 23.5968 13.4544 23.587C13.4761 23.5772 13.5004 23.5748 13.5236 23.5802C14.1033 23.7073 15.191 24.0141 14.9595 24.4807C14.7249 24.9514 13.8543 24.187 13.4243 23.7644Z" fill="#000215"/>
<path d="M11.7373 23.6157C11.7547 23.5998 11.7768 23.5901 11.8002 23.5879C11.8236 23.5857 11.8471 23.5912 11.8671 23.6036C11.8872 23.6159 11.9026 23.6345 11.9111 23.6564C11.9197 23.6783 11.9208 23.7024 11.9144 23.7251C11.7532 24.296 11.3826 25.3637 10.9299 25.1046C10.4771 24.8455 11.2896 24.021 11.7373 23.6157Z" fill="#000215"/>
<path opacity="0.2" d="M17.4895 23.112C17.4895 25.6986 15.6642 27.796 13.4118 27.796C12.0383 27.796 10.8233 27.0152 10.085 25.8192C10.8877 25.9606 11.7143 25.8617 12.4611 25.535C13.9051 24.8987 14.9339 23.4623 15.1881 21.9072C15.3666 20.8156 15.1805 19.6827 14.7188 18.6742C16.331 19.3004 17.4895 21.0507 17.4895 23.112Z" fill="#000215"/>
<path d="M17.4352 53.2065C17.4168 53.3486 17.3442 53.4782 17.2327 53.5682C17.1211 53.6583 16.9792 53.702 16.8363 53.6901L15.6726 53.3794C15.6726 53.3794 16.3684 55.5952 15.9092 55.8492C15.1469 56.2691 13.3684 55.9547 13.1797 55.3561C13.1369 55.2191 13.1431 55.0243 13.1797 54.8034C13.3004 54.0779 13.7418 53.0908 13.7418 53.0908L12.7784 52.9538L12.7657 52.9524C12.6823 52.9406 12.6027 52.91 12.5328 52.8631C12.4629 52.8162 12.4044 52.7541 12.3619 52.6815C12.3193 52.6088 12.2937 52.5275 12.287 52.4436C12.2802 52.3597 12.2925 52.2753 12.3229 52.1968C12.689 51.2486 13.5997 49.6466 15.5231 49.9181C15.9378 49.9759 16.2663 50.1056 16.528 50.2829C17.2362 50.7631 17.4463 51.5957 17.4765 52.3211C17.4875 52.6169 17.4737 52.913 17.4352 53.2065Z" fill="#00AA54"/>
<path opacity="0.6" d="M17.4769 52.3211C17.0782 51.6825 16.4656 51.1781 15.7549 50.9266C15.3651 50.7885 14.9347 50.7256 14.5399 50.8474C14.1825 50.9568 13.8858 51.2083 13.6414 51.49C13.2652 51.9213 12.9947 52.4232 12.7784 52.9538L12.7657 52.9524C12.6823 52.9406 12.6027 52.91 12.5328 52.8631C12.4629 52.8162 12.4044 52.7541 12.3619 52.6815C12.3193 52.6088 12.2937 52.5275 12.287 52.4436C12.2802 52.3597 12.2925 52.2753 12.3229 52.1968C12.689 51.2486 13.5997 49.6466 15.5231 49.9181C15.9378 49.9759 16.2665 50.1056 16.528 50.2829C17.2367 50.7631 17.4468 51.5957 17.4769 52.3211Z" fill="white"/>
<path d="M14.9643 56.5786C14.4607 56.5786 13.9463 56.4777 13.5551 56.3211C13.0752 56.1292 12.7771 55.8586 12.6693 55.5173C12.5094 55.0132 12.7458 54.1698 12.9854 53.5235L12.6909 53.4818C12.5278 53.4589 12.3719 53.3994 12.2349 53.3078C12.0979 53.2162 11.9834 53.0949 11.8999 52.9529C11.8164 52.8109 11.7661 52.6518 11.7527 52.4876C11.7392 52.3234 11.7631 52.1583 11.8224 52.0047C12.555 50.1069 13.9301 49.1528 15.5967 49.3872C17.3616 49.6362 18.246 51.0896 17.9652 53.2755C17.9293 53.5541 17.7874 53.8081 17.569 53.9847C17.3505 54.1613 17.0723 54.2469 16.7924 54.2237C16.7601 54.2209 16.7282 54.2154 16.697 54.2071L16.4383 54.138C16.8575 55.9385 16.3691 56.2075 16.1678 56.3181C15.8342 56.5023 15.4034 56.5786 14.9643 56.5786ZM13.6871 55.1774C13.8781 55.3941 14.9606 55.632 15.5317 55.4328C15.5548 55.1129 15.3967 54.2886 15.162 53.5394C15.1333 53.4479 15.1297 53.3505 15.1516 53.2571C15.1735 53.1638 15.2201 53.0781 15.2864 53.0089C15.3528 52.9397 15.4365 52.8895 15.5288 52.8637C15.6212 52.8379 15.7188 52.8373 15.8114 52.8621L16.8953 53.1518C16.8974 53.1503 16.8991 53.1485 16.9005 53.1463C16.9018 53.1441 16.9026 53.1417 16.9029 53.1391C17.0465 52.0247 16.9105 50.6539 15.4474 50.4476C13.9769 50.2403 13.2079 51.3897 12.8211 52.39C12.8196 52.3932 12.8189 52.3967 12.8191 52.4003C12.8194 52.4038 12.8205 52.4073 12.8225 52.4102C12.8243 52.4134 12.8269 52.4161 12.83 52.4181C12.833 52.4201 12.8366 52.4214 12.8402 52.4217L13.8154 52.5599C13.8976 52.5715 13.9759 52.6019 14.0443 52.6489C14.1127 52.6959 14.1692 52.7581 14.2094 52.8307C14.2496 52.9032 14.2724 52.9841 14.276 53.067C14.2796 53.1499 14.2639 53.2324 14.2301 53.3082C13.8977 54.0537 13.6454 54.927 13.6871 55.1781V55.1774Z" fill="#000215"/>
<path opacity="0.2" d="M17.4358 53.2064C17.4173 53.3486 17.3448 53.4781 17.2332 53.5682C17.1217 53.6583 16.9797 53.7019 16.8368 53.6901L15.6732 53.3794C15.6732 53.3794 16.3689 55.5952 15.9098 55.8492C15.1474 56.269 13.3689 55.9547 13.1802 55.3561C13.1374 55.2191 13.1436 55.0242 13.1802 54.8034C13.6216 54.8814 14.0633 54.8752 14.433 54.6421C14.809 54.4045 15.0242 53.9694 15.0984 53.5305C15.125 53.3672 15.1371 53.2019 15.1348 53.0365C15.1339 52.9563 15.151 52.8769 15.1848 52.8041C15.2186 52.7314 15.2682 52.6671 15.3301 52.616C15.3919 52.5649 15.4644 52.5283 15.5422 52.5088C15.62 52.4893 15.7012 52.4874 15.7798 52.5033C15.7976 52.507 15.8165 52.5095 15.834 52.5132C16.1058 52.556 16.4127 52.4902 16.5901 52.2781C16.737 52.1021 16.7711 51.8582 16.7744 51.6279C16.7831 51.1683 16.6993 50.7116 16.5279 50.285C17.559 50.9833 17.5351 52.428 17.4358 53.2064Z" fill="#000215"/>
<path d="M33.8376 41.6532C33.8191 41.7953 33.7466 41.9249 33.635 42.015C33.5235 42.105 33.3815 42.1487 33.2386 42.1368L32.075 41.8261C32.075 41.8261 32.7707 44.0419 32.3116 44.2959C31.5493 44.7158 29.7707 44.4014 29.5821 43.8029C29.5392 43.6658 29.5454 43.471 29.5821 43.2501C29.7028 42.5246 30.1442 41.5376 30.1442 41.5376L29.1807 41.4005L29.1681 41.3991C29.0847 41.3873 29.0051 41.3568 28.9351 41.3098C28.8652 41.2629 28.8068 41.2008 28.7642 41.1282C28.7216 41.0555 28.696 40.9742 28.6893 40.8903C28.6826 40.8064 28.6949 40.722 28.7253 40.6435C29.0914 39.6953 30.002 38.0933 31.9255 38.3648C32.3401 38.4227 32.6687 38.5523 32.9304 38.7296C33.6385 39.2098 33.8487 40.0424 33.8788 40.7679C33.8898 41.0636 33.876 41.3597 33.8376 41.6532Z" fill="#00AA54"/>
<path opacity="0.6" d="M33.8793 40.7679C33.4805 40.1292 32.8679 39.6249 32.1572 39.3734C31.7674 39.2352 31.3371 39.1723 30.9422 39.2941C30.5849 39.4035 30.2882 39.655 30.0437 39.9367C29.6675 40.3681 29.3971 40.8699 29.1807 41.4005L29.1681 41.3991C29.0847 41.3873 29.0051 41.3568 28.9351 41.3098C28.8652 41.2629 28.8068 41.2008 28.7642 41.1282C28.7216 41.0555 28.696 40.9742 28.6893 40.8903C28.6826 40.8064 28.6949 40.722 28.7253 40.6435C29.0914 39.6953 30.002 38.0933 31.9255 38.3648C32.3401 38.4227 32.6689 38.5523 32.9304 38.7296C33.639 39.2098 33.8491 40.0424 33.8793 40.7679Z" fill="white"/>
<path d="M31.3666 45.0253C30.863 45.0253 30.3486 44.9244 29.9574 44.7678C29.4776 44.5759 29.1794 44.3053 29.0716 43.964C28.9117 43.4599 29.1481 42.6165 29.3877 41.9703L29.0933 41.9286C28.9301 41.9056 28.7742 41.8461 28.6372 41.7545C28.5003 41.663 28.3858 41.5416 28.3023 41.3996C28.2188 41.2576 28.1684 41.0985 28.155 40.9344C28.1416 40.7702 28.1654 40.6051 28.2248 40.4514C28.9574 38.5536 30.3325 37.5995 31.999 37.8339C33.764 38.0829 34.6484 39.5364 34.3675 41.7222C34.3317 42.0008 34.1898 42.2548 33.9713 42.4314C33.7528 42.608 33.4747 42.6936 33.1947 42.6704C33.1625 42.6676 33.1306 42.6621 33.0993 42.6538L32.8406 42.5847C33.2599 44.3852 32.7715 44.6542 32.5701 44.7648C32.2366 44.949 31.8057 45.0253 31.3666 45.0253ZM30.0894 43.6241C30.2804 43.8408 31.363 44.0787 31.9341 43.8795C31.9571 43.5596 31.7991 42.7353 31.5643 41.9861C31.5357 41.8947 31.5321 41.7972 31.554 41.7039C31.5759 41.6105 31.6224 41.5248 31.6888 41.4556C31.7551 41.3864 31.8388 41.3363 31.9312 41.3104C32.0235 41.2846 32.1211 41.2841 32.2137 41.3088L33.2977 41.5985C33.2997 41.5971 33.3015 41.5952 33.3028 41.593C33.3041 41.5908 33.3049 41.5884 33.3053 41.5859C33.4488 40.4714 33.3129 39.1006 31.8497 38.8943C30.3792 38.687 29.6102 39.8365 29.2234 40.8367C29.2219 40.8399 29.2212 40.8434 29.2215 40.847C29.2217 40.8505 29.2229 40.854 29.2248 40.8569C29.2267 40.8601 29.2292 40.8629 29.2323 40.8649C29.2354 40.8669 29.2389 40.8681 29.2426 40.8685L30.2178 41.0066C30.2999 41.0182 30.3783 41.0487 30.4466 41.0956C30.515 41.1426 30.5715 41.2048 30.6117 41.2774C30.6519 41.35 30.6747 41.4309 30.6783 41.5137C30.6819 41.5966 30.6662 41.6792 30.6324 41.7549C30.3 42.5004 30.0477 43.3737 30.0894 43.6248V43.6241Z" fill="#000215"/>
<path opacity="0.2" d="M33.8371 41.6531C33.8187 41.7953 33.7461 41.9249 33.6346 42.0149C33.523 42.105 33.3811 42.1486 33.2382 42.1368L32.0745 41.8261C32.0745 41.8261 32.7703 44.0419 32.3111 44.2959C31.5488 44.7158 29.7703 44.4014 29.5816 43.8028C29.5388 43.6658 29.545 43.4709 29.5816 43.2501C30.023 43.3282 30.4646 43.3219 30.8344 43.0889C31.2104 42.8512 31.4256 42.4161 31.4997 41.9772C31.5263 41.8139 31.5385 41.6486 31.5361 41.4832C31.5353 41.403 31.5524 41.3236 31.5862 41.2509C31.62 41.1781 31.6696 41.1139 31.7314 41.0627C31.7933 41.0116 31.8657 40.975 31.9435 40.9555C32.0214 40.936 32.1026 40.9341 32.1812 40.95C32.1989 40.9537 32.2178 40.9562 32.2353 40.9599C32.5072 41.0027 32.814 40.9369 32.9914 40.7248C33.1384 40.5488 33.1725 40.3049 33.1757 40.0746C33.1845 39.615 33.1006 39.1583 32.9292 38.7317C33.9604 39.43 33.9364 40.8747 33.8371 41.6531Z" fill="#000215"/>
<path d="M18.0684 35.2416C18.0684 35.2416 19.4619 35.4892 19.8695 35.2403C20.2821 34.9869 20.1865 33.5979 19.7298 33.1065C19.4545 32.8096 17.9248 33.7426 17.9248 33.7426L17.9412 32.8147C17.9234 32.7057 17.8644 32.6077 17.7763 32.541C17.6883 32.4743 17.578 32.444 17.4682 32.4563C16.7135 32.5443 15.1953 32.9169 15.3612 34.4996C15.5172 35.9899 16.8858 36.3734 17.665 36.4701C17.7295 36.4783 17.7951 36.4718 17.8568 36.4511C17.9184 36.4304 17.9746 36.396 18.0212 36.3506C18.0677 36.3051 18.1033 36.2497 18.1254 36.1885C18.1475 36.1273 18.1555 36.062 18.1488 35.9973L18.0684 35.2416Z" fill="#00AA54"/>
<path d="M17.7197 37.009C17.6794 37.0089 17.6392 37.0064 17.5992 37.0016C15.9801 36.8001 14.9706 35.9085 14.8289 34.5553C14.6778 33.114 15.6415 32.1304 17.4064 31.9245C17.6529 31.8959 17.9009 31.9633 18.0989 32.1127C18.2969 32.2621 18.4298 32.4821 18.4698 32.7269C18.4752 32.759 18.4776 32.7917 18.477 32.8243V32.8305C19.6768 32.2619 19.98 32.5882 20.1228 32.7423C20.5773 33.2317 20.7308 34.1656 20.6444 34.7957C20.5702 35.3355 20.3345 35.5838 20.1497 35.6969C19.8086 35.9042 19.2093 35.9136 18.6723 35.8643L18.6806 35.9417C18.6946 36.0763 18.6803 36.2124 18.6384 36.3411C18.5965 36.4698 18.528 36.5883 18.4375 36.6889C18.3469 36.7895 18.2362 36.87 18.1126 36.9252C17.989 36.9804 17.8551 37.009 17.7197 37.0092V37.009ZM17.4027 33.0046C16.3181 33.1614 15.8106 33.6453 15.8942 34.4438C15.9993 35.4461 16.8526 35.8026 17.6013 35.9208L17.5361 35.2973C17.5274 35.2148 17.5381 35.1314 17.5671 35.0538C17.5962 34.9761 17.643 34.9062 17.7037 34.8497C17.7644 34.7931 17.8375 34.7515 17.917 34.728C17.9966 34.7046 18.0806 34.6999 18.1623 34.7144C18.705 34.8104 19.3314 34.8434 19.5549 34.7918C19.6413 34.5675 19.5973 33.9424 19.4287 33.6071C19.1642 33.6831 18.6435 33.9321 18.204 34.1997C18.1221 34.2496 18.0284 34.2766 17.9325 34.2779C17.8366 34.2793 17.7421 34.2548 17.6589 34.2072C17.5758 34.1595 17.5069 34.0904 17.4595 34.007C17.4122 33.9237 17.3881 33.8291 17.3898 33.7333L17.4027 33.0046Z" fill="#000215"/>
<path d="M26.4986 18.4394C26.3955 18.539 26.258 18.595 26.1146 18.5959C25.9712 18.5967 25.833 18.5423 25.7287 18.4439L25.013 17.4755C25.013 17.4755 24.1743 19.6413 23.6569 19.5535C22.7991 19.4063 21.6051 18.0516 21.8311 17.4661C21.8831 17.3323 22.0096 17.1839 22.176 17.0341C22.723 16.5423 23.6839 16.046 23.6839 16.046L23.0163 15.3381L23.0073 15.3291C22.9495 15.2679 22.9063 15.1944 22.881 15.1141C22.8556 15.0338 22.8487 14.9489 22.8607 14.8655C22.8728 14.7822 22.9035 14.7027 22.9506 14.6329C22.9977 14.5631 23.0599 14.5048 23.1327 14.4624C24.0104 13.9496 25.7218 13.2652 27.0558 14.6768C27.3438 14.9806 27.5197 15.2868 27.6136 15.5886C27.8675 16.4055 27.5123 17.1873 27.0832 17.7731C26.9073 18.0111 26.7118 18.234 26.4986 18.4394Z" fill="#00AA54"/>
<path opacity="0.6" d="M27.0836 17.7733C27.1704 17.0255 27.0063 16.2493 26.6077 15.6095C26.3892 15.2584 26.0921 14.941 25.7074 14.79C25.3599 14.6527 24.971 14.6642 24.6042 14.732C24.041 14.8345 23.5165 15.0581 23.0163 15.338L23.0073 15.329C22.9495 15.2678 22.9063 15.1942 22.881 15.114C22.8556 15.0337 22.8487 14.9487 22.8607 14.8654C22.8728 14.7821 22.9035 14.7025 22.9506 14.6327C22.9977 14.5629 23.0599 14.5047 23.1327 14.4623C24.0104 13.9494 25.7218 13.2651 27.0558 14.6767C27.3438 14.9805 27.5199 15.2868 27.6136 15.5885C27.8679 16.4057 27.5127 17.1874 27.0836 17.7733Z" fill="white"/>
<path d="M22.4634 19.5345C22.0698 19.2205 21.7306 18.8208 21.5226 18.4545C21.2672 18.0053 21.203 17.6079 21.3317 17.2739C21.5213 16.7802 22.2323 16.2684 22.8228 15.9126L22.6186 15.6965C22.5054 15.5768 22.4207 15.4331 22.3708 15.2761C22.3208 15.1191 22.307 14.9528 22.3304 14.7898C22.3537 14.6267 22.4136 14.471 22.5056 14.3343C22.5975 14.1976 22.7192 14.0834 22.8614 14.0003C24.6181 12.9738 26.2883 13.0854 27.4446 14.3079C28.6688 15.603 28.4532 17.2906 26.8699 18.824C26.6681 19.0193 26.3986 19.1294 26.1177 19.1312C25.8367 19.133 25.5659 19.0265 25.3616 18.8337C25.3381 18.8115 25.3166 18.7873 25.2974 18.7613L25.1383 18.546C24.3426 20.2148 23.793 20.1205 23.5666 20.0813C23.1909 20.0173 22.8066 19.8083 22.4634 19.5345ZM22.3394 17.6429C22.3534 17.9314 23.0511 18.7923 23.6218 18.9927C23.8394 18.7571 24.2302 18.0143 24.5141 17.2823C24.5488 17.1929 24.6069 17.1145 24.6822 17.0552C24.7575 16.9959 24.8474 16.9579 24.9425 16.9452C25.0375 16.9325 25.1342 16.9455 25.2225 16.9829C25.3108 17.0203 25.3874 17.0807 25.4444 17.1578L26.1108 18.0602C26.1134 18.0603 26.1159 18.0599 26.1183 18.059C26.1207 18.0581 26.1228 18.0568 26.1247 18.055C26.9322 17.2734 27.6812 16.1172 26.6664 15.0436C25.6463 13.9646 24.3281 14.3836 23.4016 14.9242C23.3984 14.9257 23.3957 14.9281 23.3937 14.931C23.3916 14.9339 23.3904 14.9373 23.3901 14.9409C23.3895 14.9445 23.3898 14.9482 23.391 14.9517C23.3921 14.9552 23.3941 14.9584 23.3968 14.9609L24.0728 15.677C24.1298 15.7373 24.172 15.81 24.1962 15.8893C24.2203 15.9687 24.2256 16.0525 24.2118 16.1343C24.1979 16.2161 24.1653 16.2936 24.1164 16.3606C24.0675 16.4276 24.0037 16.4823 23.93 16.5205C23.205 16.8959 22.463 17.4212 22.3389 17.6434L22.3394 17.6429Z" fill="#000215"/>
<path opacity="0.2" d="M26.4985 18.4395C26.3953 18.5391 26.2578 18.5952 26.1144 18.596C25.971 18.5969 25.8328 18.5424 25.7285 18.4441L25.0128 17.4756C25.0128 17.4756 24.1741 19.6414 23.6568 19.5536C22.7989 19.4065 21.605 18.0517 21.831 17.4662C21.883 17.3324 22.0094 17.184 22.1758 17.0342C22.4721 17.3705 22.8212 17.641 23.2556 17.6894C23.6978 17.738 24.1374 17.5322 24.4693 17.2353C24.592 17.1243 24.7046 17.0027 24.806 16.8719C24.8554 16.8087 24.9182 16.7573 24.99 16.7215C25.0618 16.6857 25.1407 16.6664 25.2209 16.6651C25.3012 16.6637 25.3807 16.6802 25.4537 16.7135C25.5266 16.7468 25.5913 16.7959 25.6428 16.8574C25.6544 16.8713 25.6676 16.8851 25.679 16.8989C25.8647 17.1019 26.1457 17.2417 26.4167 17.1866C26.6413 17.1407 26.8202 16.9713 26.9664 16.7933C27.26 16.4395 27.4794 16.0302 27.6116 15.5899C27.9819 16.7787 27.0618 17.893 26.4985 18.4395Z" fill="#000215"/>
<path d="M24.2913 25.7542C23.8305 25.8661 23.4409 26.198 23.1868 26.5992C22.9327 27.0004 22.8021 27.4695 22.7261 27.9384C22.6607 28.336 22.6339 28.7482 22.7422 29.136C22.8505 29.5239 23.1159 29.8829 23.4932 30.0227C23.8706 30.1625 24.3537 30.0264 24.5398 29.6692C24.8783 29.0154 24.1072 28.1966 24.4016 27.5227C24.579 27.1153 25.0974 26.9064 25.1955 26.4728C25.2199 26.3564 25.2109 26.2354 25.1695 26.1239C25.1281 26.0124 25.0559 25.9149 24.9614 25.8427C24.7705 25.7015 24.4988 25.704 24.2913 25.7542Z" fill="#DF3E08"/>
<path d="M11.8137 30.1829C11.1382 30.0836 10.4545 30.4848 10.0842 31.0581C9.71403 31.6313 9.6175 32.3459 9.66265 33.0274C9.68569 33.377 9.74697 33.7303 9.91054 34.0408C10.0741 34.3512 10.3522 34.6128 10.6938 34.6946C11.0355 34.7764 11.4336 34.6419 11.6059 34.3362C11.792 34.0081 11.6863 33.5967 11.5598 33.2409C11.4333 32.8851 11.2893 32.4977 11.4126 32.1407C11.5068 31.8678 11.7397 31.6716 11.9459 31.4692C12.1521 31.2667 12.3509 31.0164 12.3447 30.7285C12.3385 30.4406 12.0049 30.164 11.8137 30.1829Z" fill="#DF3E08"/>
<path d="M32.3455 15.0184C32.328 15.6633 32.6235 16.2934 33.0712 16.7586C33.5188 17.2238 34.1065 17.5345 34.7204 17.7344C35.0448 17.8401 35.3959 17.9157 35.7267 17.8289C36.0575 17.742 36.3531 17.4454 36.3368 17.1045C36.3179 16.7197 35.938 16.4555 35.5719 16.3349C35.2058 16.2142 34.802 16.1677 34.4965 15.9339C34.2373 15.7351 34.0864 15.4295 33.9206 15.1467C33.7547 14.8639 33.5418 14.5808 33.2294 14.4802C32.917 14.3795 32.3572 14.5405 32.3455 15.0184Z" fill="#DF3E08"/>
<path d="M22.2901 43.4075C21.7353 43.606 21.1615 43.7468 20.5779 43.8276C20.3491 43.8589 20.1063 43.8865 19.9202 44.0249C19.6221 44.2463 19.5767 44.7103 19.7693 45.0284C19.9619 45.3464 20.3353 45.5212 20.7051 45.5503C21.0748 45.5793 21.4423 45.4786 21.7917 45.3503C22.2202 45.1931 22.6306 44.9903 23.0157 44.7456C23.2358 44.6058 23.456 44.4386 23.5541 44.1972C23.6735 43.9017 23.5617 43.5307 23.2986 43.3497C23.0356 43.1686 22.6799 43.2679 22.2901 43.4075Z" fill="#DF3E08"/>
<path d="M21.9284 58.0608C21.8757 57.7275 21.8132 57.3906 21.6718 57.0838C21.5303 56.777 21.3046 56.4965 20.9988 56.353C20.6931 56.2095 20.302 56.2247 20.0428 56.4412C19.7836 56.6577 19.7083 57.0861 19.9234 57.3466C20.0428 57.4912 20.2252 57.569 20.3612 57.6973C20.7261 58.0356 20.6883 58.6116 20.833 59.0882C20.9184 59.3687 21.0806 59.6326 21.3248 59.7936C21.569 59.9546 21.8982 60.0009 22.1588 59.8652C22.4194 59.7296 22.5751 59.4025 22.4769 59.1271C22.4104 58.9428 22.2519 58.809 22.1235 58.6607C21.9952 58.5124 21.9674 58.3074 21.9284 58.0608Z" fill="#DF3E08"/>
<path d="M15.5205 13.3987C14.5896 13.3445 13.7128 13.8526 12.8085 14.079C12.5217 14.1506 12.2109 14.2386 12.0335 14.4763C11.7732 14.8273 11.9518 15.3717 12.3178 15.608C12.6839 15.8443 13.1631 15.8332 13.5821 15.7126C14.0012 15.5919 14.3859 15.3754 14.7946 15.222C15.0752 15.1177 15.3683 15.041 15.6286 14.8913C15.8889 14.7416 16.1165 14.4998 16.1568 14.2047C16.1972 13.9097 16.0161 13.4272 15.5205 13.3987Z" fill="#DF3E08"/>
<path d="M39.9543 16.2695C39.6991 16.3538 39.4046 16.5387 39.2977 16.7851C39.2236 16.9574 39.2625 17.1624 39.3544 17.327C39.6235 17.8125 40.2978 17.9648 40.8185 17.7736C41.3391 17.5825 41.7229 17.1246 41.9883 16.6368C42.1104 16.413 42.2148 16.1463 42.1229 15.9086C42.0111 15.6156 41.6361 15.4961 41.3306 15.568C41.0251 15.6398 40.8097 15.9878 39.9543 16.2695Z" fill="#DF3E08"/>
</svg>
